<?xml version="1.0" encoding="utf-8"?>
<!-- Generator: Adobe Illustrator 19.0.0, SVG Export Plug-In . SVG Version: 6.00 Build 0)  -->
<svg version="1.1" id="Layer_1" xmlns="http://www.w3.org/2000/svg" xmlns:xlink="http://www.w3.org/1999/xlink" x="0px" y="0px"
	 width="375px" height="300px" viewBox="0 0 375 300" enable-background="new 0 0 375 300" xml:space="preserve">
<path id="XMLID_88_" fill="#FF7373" d="M352,300H23c-12.7,0-23-10.4-23-23V23C0,10.4,10.4,0,23,0h329c12.7,0,23,10.4,23,23v254
	C375,289.6,364.6,300,352,300z"/>
<circle id="XMLID_51_" fill="#FFFFFF" cx="226.6" cy="59.1" r="49.9"/>
<circle id="XMLID_90_" fill="#FFFFFF" cx="114.5" cy="112.1" r="18.9"/>
<g id="XMLID_91_">
	<path id="XMLID_92_" fill="#FFFFFF" d="M70.1,134.5c-0.6,0-1.1,0-1.6,0c-0.5,0-0.9-0.5-0.9-1c0-0.5,0.4-0.9,1-0.9
		c0.5,0,1,0.1,1.5,0c1.3,0,2.5-0.1,3.8-0.2c0.5-0.1,1,0.3,1,0.8c0.1,0.5-0.3,1-0.8,1C72.7,134.4,71.4,134.5,70.1,134.5z M63,133.7
		c-0.1,0-0.1,0-0.2,0c-1.8-0.4-3.7-1-5.4-1.8c-0.5-0.2-0.7-0.7-0.5-1.2c0.2-0.5,0.7-0.7,1.2-0.5c1.6,0.7,3.3,1.3,5.1,1.7
		c0.5,0.1,0.8,0.6,0.7,1.1C63.8,133.4,63.4,133.7,63,133.7z M79.3,133c-0.4,0-0.8-0.2-0.9-0.6c-0.2-0.5,0.1-1,0.6-1.2
		c1.7-0.5,3.3-1.2,4.9-2.1c0.4-0.2,1-0.1,1.2,0.4c0.2,0.4,0.1,1-0.4,1.2c-1.7,0.9-3.4,1.6-5.2,2.2C79.5,133,79.4,133,79.3,133z
		 M52.9,129.3c-0.2,0-0.4-0.1-0.5-0.2c-1.6-1.1-3-2.3-4.4-3.6c-0.4-0.4-0.4-0.9,0-1.3c0.4-0.4,0.9-0.4,1.3,0
		c1.3,1.2,2.7,2.4,4.2,3.4c0.4,0.3,0.5,0.9,0.2,1.3C53.5,129.2,53.2,129.3,52.9,129.3z M89,127.9c-0.3,0-0.5-0.1-0.7-0.3
		c-0.3-0.4-0.2-1,0.1-1.3c1.4-1.1,2.7-2.3,3.9-3.7c0.3-0.4,0.9-0.4,1.3-0.1c0.4,0.3,0.4,0.9,0.1,1.3c-1.2,1.4-2.6,2.7-4.1,3.9
		C89.4,127.8,89.2,127.9,89,127.9z M45.1,121.6c-0.3,0-0.6-0.1-0.7-0.4c-1.1-1.5-2.1-3.2-2.9-4.9c-0.2-0.5,0-1,0.4-1.2
		c0.5-0.2,1,0,1.2,0.4c0.8,1.6,1.7,3.2,2.7,4.6c0.3,0.4,0.2,1-0.2,1.3C45.4,121.6,45.3,121.6,45.1,121.6z M96.3,119.6
		c-0.2,0-0.3,0-0.5-0.1c-0.4-0.3-0.6-0.8-0.3-1.3c0.9-1.5,1.7-3.1,2.3-4.8c0.2-0.5,0.7-0.7,1.2-0.5c0.5,0.2,0.7,0.7,0.5,1.2
		c-0.7,1.8-1.5,3.5-2.5,5.1C96.9,119.5,96.6,119.6,96.3,119.6z M40.4,111.7c-0.4,0-0.8-0.3-0.9-0.7c-0.5-1.8-0.8-3.7-0.9-5.6
		c0-0.5,0.3-0.9,0.8-1c0.5-0.1,0.9,0.3,1,0.8c0.1,1.8,0.4,3.5,0.9,5.3c0.1,0.5-0.2,1-0.7,1.1C40.6,111.7,40.5,111.7,40.4,111.7z
		 M100.1,109.4c-0.1,0-0.1,0-0.2,0c-0.5-0.1-0.8-0.6-0.7-1.1c0.3-1.7,0.5-3.5,0.5-5.3c0-1.6-0.1-3.1-0.4-4.7c-0.1-0.5,0.3-1,0.8-1.1
		c0.5-0.1,1,0.3,1.1,0.8c0.3,1.6,0.4,3.3,0.4,4.9c0,1.9-0.2,3.8-0.5,5.6C101,109.1,100.6,109.4,100.1,109.4z M39.6,100.8
		C39.5,100.8,39.5,100.8,39.6,100.8c-0.6-0.1-1-0.5-0.9-1c0.2-1.9,0.6-3.8,1.1-5.6c0.1-0.5,0.7-0.8,1.1-0.6c0.5,0.1,0.8,0.7,0.6,1.1
		c-0.5,1.7-0.8,3.5-1,5.2C40.4,100.4,40,100.8,39.6,100.8z M98.9,93.7c-0.4,0-0.7-0.2-0.9-0.6c-0.6-1.7-1.3-3.3-2.2-4.9
		c-0.3-0.4-0.1-1,0.3-1.3c0.4-0.2,1-0.1,1.3,0.3c0.9,1.6,1.7,3.4,2.4,5.2c0.2,0.5-0.1,1-0.6,1.2C99.1,93.7,99,93.7,98.9,93.7z
		 M42.6,90.2c-0.1,0-0.3,0-0.4-0.1c-0.5-0.2-0.6-0.8-0.4-1.2c0.8-1.7,1.8-3.3,3-4.8c0.3-0.4,0.9-0.5,1.3-0.2
		c0.4,0.3,0.5,0.9,0.2,1.3c-1.1,1.4-2,3-2.8,4.5C43.3,90,42.9,90.2,42.6,90.2z M93.5,84.2c-0.3,0-0.5-0.1-0.7-0.3
		c-1.1-1.4-2.4-2.6-3.8-3.8c-0.4-0.3-0.4-0.9-0.1-1.3c0.3-0.4,0.9-0.4,1.3-0.1c1.5,1.2,2.8,2.6,4,4c0.3,0.4,0.3,1-0.1,1.3
		C93.9,84.1,93.7,84.2,93.5,84.2z M49.2,81.4c-0.2,0-0.5-0.1-0.7-0.3c-0.3-0.4-0.3-1,0-1.3c1.4-1.3,2.9-2.5,4.5-3.5
		c0.4-0.3,1-0.2,1.3,0.3c0.3,0.4,0.1,1-0.3,1.3c-1.5,1-2.9,2.1-4.2,3.3C49.6,81.4,49.4,81.4,49.2,81.4z M85,77.2
		c-0.2,0-0.3,0-0.4-0.1c-1.6-0.9-3.2-1.6-4.9-2.2c-0.5-0.2-0.7-0.7-0.6-1.2c0.2-0.5,0.7-0.7,1.2-0.6c1.8,0.6,3.5,1.4,5.2,2.3
		c0.4,0.2,0.6,0.8,0.4,1.3C85.7,77,85.3,77.2,85,77.2z M58.4,75.5c-0.4,0-0.7-0.2-0.9-0.6c-0.2-0.5,0-1,0.5-1.2
		c1.8-0.7,3.6-1.3,5.4-1.7c0.5-0.1,1,0.2,1.1,0.7c0.1,0.5-0.2,1-0.7,1.1c-1.7,0.4-3.5,0.9-5.1,1.6C58.7,75.5,58.5,75.5,58.4,75.5z
		 M74.7,73.6c0,0-0.1,0-0.1,0c-1.8-0.3-3.6-0.4-5.3-0.3c-0.5,0.1-0.9-0.4-0.9-0.9c0-0.5,0.4-0.9,0.9-0.9c1.9,0,3.8,0.1,5.7,0.4
		c0.5,0.1,0.8,0.5,0.8,1C75.5,73.3,75.1,73.6,74.7,73.6z"/>
</g>
<g id="XMLID_1_">
	<path id="XMLID_23_" fill="#FFFFFF" d="M176.6,63.1C176.5,63.1,176.5,63.1,176.6,63.1c-2-0.2-3.9-0.7-5.7-1.4
		c-0.5-0.2-0.7-0.7-0.5-1.2c0.2-0.5,0.7-0.7,1.2-0.5c1.6,0.7,3.3,1.1,5.1,1.3c0.5,0.1,0.9,0.5,0.8,1C177.4,62.8,177,63.1,176.6,63.1
		z M182.1,62.9c-0.4,0-0.8-0.3-0.9-0.8c-0.1-0.5,0.2-1,0.7-1.1c1.7-0.3,3.4-0.9,5-1.6c0.5-0.2,1,0,1.2,0.4c0.2,0.5,0,1-0.4,1.2
		c-1.7,0.8-3.6,1.5-5.5,1.8C182.2,62.9,182.1,62.9,182.1,62.9z M166.5,59.1c-0.2,0-0.4-0.1-0.6-0.2c-1.5-1.2-2.9-2.6-4-4.1
		c-0.3-0.4-0.2-1,0.2-1.3c0.4-0.3,1-0.2,1.3,0.2c1,1.4,2.3,2.7,3.7,3.8c0.4,0.3,0.5,0.9,0.2,1.3C167,58.9,166.7,59.1,166.5,59.1z
		 M191.8,58.1c-0.3,0-0.5-0.1-0.7-0.3c-0.3-0.4-0.3-1,0.1-1.3c1.3-1.2,2.4-2.5,3.4-4c0.3-0.4,0.8-0.6,1.3-0.3
		c0.4,0.3,0.6,0.8,0.3,1.3c-1,1.6-2.3,3.1-3.7,4.4C192.3,58,192.1,58.1,191.8,58.1z M160,50.3c-0.4,0-0.7-0.2-0.9-0.6
		c-0.7-1.8-1.1-3.7-1.2-5.6c0-0.5,0.3-0.9,0.8-1c0.5,0,0.9,0.3,1,0.8c0.1,1.8,0.5,3.5,1.1,5.1c0.2,0.5-0.1,1-0.5,1.2
		C160.2,50.3,160.1,50.3,160,50.3z M197.6,48.9c-0.1,0-0.2,0-0.3,0c-0.5-0.1-0.8-0.6-0.6-1.1c0.5-1.7,0.7-3.4,0.7-5.2
		c0-0.9-0.1-1.9-0.2-2.8c-0.1-0.5,0.3-1,0.8-1c0.5-0.1,1,0.3,1,0.8c0.2,1,0.2,2,0.2,3.1c0,1.9-0.3,3.9-0.8,5.7
		C198.4,48.6,198,48.9,197.6,48.9z M159.2,39.4c-0.1,0-0.1,0-0.2,0c-0.5-0.1-0.8-0.6-0.7-1.1c0.4-1.9,1-3.7,1.9-5.4
		c0.2-0.4,0.8-0.6,1.2-0.4c0.4,0.2,0.6,0.8,0.4,1.2c-0.8,1.6-1.4,3.2-1.8,4.9C160,39.1,159.6,39.4,159.2,39.4z M196.6,35.2
		c-0.3,0-0.7-0.2-0.8-0.5c-0.7-1.6-1.7-3.1-2.8-4.4c-0.3-0.4-0.3-1,0.1-1.3c0.4-0.3,1-0.3,1.3,0.1c1.3,1.5,2.3,3.1,3.1,4.9
		c0.2,0.5,0,1-0.5,1.2C196.9,35.2,196.7,35.2,196.6,35.2z M164.3,29.8c-0.2,0-0.5-0.1-0.6-0.3c-0.4-0.4-0.4-0.9,0-1.3
		c1.3-1.4,2.9-2.6,4.5-3.6c0.4-0.3,1-0.1,1.3,0.3c0.3,0.4,0.1,1-0.3,1.3c-1.5,0.9-2.9,2-4.1,3.3C164.8,29.7,164.5,29.8,164.3,29.8z
		 M189.5,26.9c-0.2,0-0.4-0.1-0.5-0.2c-1.5-1-3-1.7-4.7-2.3c-0.5-0.2-0.8-0.7-0.6-1.2c0.2-0.5,0.7-0.7,1.2-0.6
		c1.8,0.6,3.6,1.4,5.2,2.5c0.4,0.3,0.5,0.9,0.3,1.3C190.1,26.8,189.8,26.9,189.5,26.9z M173.7,24.3c-0.4,0-0.8-0.3-0.9-0.7
		c-0.1-0.5,0.2-1,0.7-1.1c1.7-0.4,3.4-0.6,5.1-0.6c0,0,0,0,0,0l0.6,0c0.5,0,0.9,0.4,0.9,0.9c0,0.5-0.4,0.9-0.9,0.9l-0.5,0
		c0,0,0,0,0,0c-1.6,0-3.1,0.2-4.7,0.6C173.8,24.3,173.8,24.3,173.7,24.3z"/>
</g>
<path id="XMLID_40_" fill="#FFB27D" d="M170.4,112.7c0,0-5,0-6,0.8c-1,0.8-7.3,4.7-6.3,6.3c1,1.6,8.1-1.2,9.1-1.5
	c1-0.3,3.8-1.4,3.8-1.4L170.4,112.7z"/>
<path id="XMLID_39_" fill="#ED7D2B" d="M170,111.9c-0.1,1.8,0.4,4.7,1.3,5.8c0,0,24.1-3.4,27.1-5.3c4.6-2.8,12.2-11.5,17.1-20.1
	c0.1-0.2,0.2-0.4,0.4-0.6c2.6-4.6,4.4-9.1,4.5-12.8c0.1-2.2-0.1-4.1-0.6-5.8c-0.6-2.2-1.6-3.9-2.6-5.2c-0.1-0.2-0.3-0.4-0.5-0.6
	c-1.7-2-3.3-2.9-3.3-2.9c-0.8-0.4-1.8,0.1-2.7,1.1v0c-0.8,0.8-0.7,2-1.5,3.6c0,0,1.4,1.7,0.2,1c-0.2,0.3-0.4,0.4-0.6,0.7
	c-0.1,0.1-0.3,0.6-0.3,0.7c-0.4,0.8-0.9,3.4-1.3,4.3c-4.3,9.4-10.5,23.2-14.3,27.4C191.2,105.3,170,111.9,170,111.9z"/>
<path id="XMLID_38_" fill="#FFB27D" d="M215.2,74.3c2.7,1.2,5.9,2.1,9.8,2.3c14.6,0.8,18-12,18.6-20.5c-2.1-0.8-4-0.7-5-0.6
	c-1,0.1-2.1,0.2-3,0.3c-1.8-0.9-5-5.5-6.9-13.1l-0.6,0.3l-10.6,5c0,0,1.1,3.4,2,6.7c0.6,2.6,1.1,5.1,0.7,5.8
	c-0.8,0.3-1.3,0.6-1.3,0.6s0,0,0,0C218.7,61.2,216.4,67.1,215.2,74.3z"/>
<path id="XMLID_37_" fill="#F99746" d="M211.6,83.9c0.1,0.3-1.4,1.1-1.2,1.4c1.1,2.3,8.7,23.7,10.1,38.9
	c4.8,53.1-5.3,140.8-5.3,140.8c-1,5.9,60.6,5.4,60.8,0c11.1-135.9-10-150.9-18.4-165.3c-0.4-0.7-1-1.2-1.4-1.9
	c-1-1.7-1.7-3.5-1.9-5.5c-0.8-7.7-0.5-14.9-0.6-19.2l0,0c-0.8-0.6-1.6-1.1-2.3-1.7c-1.1-0.8-2.1-1.6-2.8-2.3
	c-0.8-0.8-1.3-1.7-1.3-2.7c0-0.7,0-1.5,0.1-2.2c0-0.4,0.1-0.7,0.1-1.1c0.6-3.7,2.1-7.1,2.1-7.1c-3.9-1.6-10.9-0.6-10.9-0.6
	s0,0.4,0,1c0,2.6,0,9.1-0.8,10.3c-1,1.5-19.7,8.3-20.7,6.2c-1-2.1,1.7-11.7,1.8-12.1c0,0,0,0,0,0c-6.3,2.5-8.5,4.5-8.5,4.5
	C214.1,67.9,208.6,76.2,211.6,83.9z"/>
<path id="XMLID_36_" fill="#ED985F" d="M217.5,47.9c0,0,1.1,3.4,2,6.7c6.2-1.7,8-8.2,8.6-11.7L217.5,47.9z"/>
<rect id="XMLID_35_" x="199.2" y="72.6" fill="#2C3A64" width="0.9" height="51.4"/>
<rect id="XMLID_34_" x="160.3" y="72.6" fill="#F0E3BD" width="38.9" height="51.4"/>
<rect id="XMLID_33_" x="156.9" y="72.6" fill="#2C3A64" width="38.9" height="51.4"/>
<path id="XMLID_32_" fill="#FFB27D" d="M156.9,113c1,0.6,2.3,4.3,2.3,5.2c0,1.2-2.1,2-2.6,1.8C156,119.8,155.7,112.9,156.9,113z"/>
<rect id="XMLID_31_" x="159.7" y="75.4" fill="#86BA7B" width="33.2" height="45.8"/>
<path id="XMLID_30_" fill="#2C3A64" d="M193.5,98.3c-0.3,11.8-15,15.5-17.2,24.1c-2.2-9.1-17.6-13-17.2-24.1
	c0.5-12,15.5-15.6,17.2-24.1C178.6,82.5,193.8,87.4,193.5,98.3z"/>
<path id="XMLID_29_" fill="#FFB27D" d="M186.2,124c2.3,1,6.5,4,11.3,1.4c5.3-2.9,6.7-1.5,8.6-2c0.7-0.1,1.2-0.2,1.2-0.2l-2-5.9
	c0,0-0.1,0-0.2,0.1c-1.3,0.3-7.9,1.7-11,1c-3.5-0.8-9.3,3.4-9.3,3.4S183.9,123.1,186.2,124z"/>
<path id="XMLID_28_" fill="#ED7D2B" d="M199.3,118c0.2,3.5,0.6,4.7,1.9,6.7c0,0,22.3-5.4,26.4-6.8c2.9-1,7.5-3,10.7-5.4
	c3.3-2.5,8.5-12,12.3-21.4c0.5-1.3,2.2-4.4,2.7-5.7c1.8-4.7-0.5-5.6,0.4-9.6c0.5-2.4,0.9-4.6,1-6.4c0-0.6,0.1-1.2,0-1.8
	c-0.1-10.2-5.1-11.6-5.1-11.6c-0.1,0-0.2-0.1-0.4-0.1c-0.9-0.1-1.8,0.5-2.7,1.6c-1.2,1.4-2.5,3.8-3.8,6.7c-2,4.5-4.1,10.4-6.1,16.3
	c-1.1,3.2-2.1,6.4-3.2,9.4c-0.6,1.8-1.3-1.1-1.8,0.4c-1.1,3-2,10-2.9,11.5c-0.6,1-2.2,2.4-4.3,3.9C220.5,108.4,199.3,118,199.3,118z
	"/>
<path id="XMLID_27_" fill="#F99746" d="M242.6,64.3c6.8-1.9,12,3.4,12,3.4c-0.1-10.2-5.2-11.6-5.2-11.6
	C247.4,55.2,245.1,58.8,242.6,64.3z"/>
<path id="XMLID_26_" fill="#A05A2B" d="M134.3,191.5c0,0-9.5,67.3-8.4,75.6l-6-0.7c0,0-7.5-29.4-6.6-37.6c0.9-8.2-7.4-42.1,0.3-45
	C121.3,180.7,134.3,191.5,134.3,191.5z"/>
<path id="XMLID_25_" fill="#BC6E39" d="M125.7,191.5c0,0-13.5,67.3-12.9,75.7l-5.9-1.4c0,0-5.8-30.3-4.3-38.4
	c1.4-8.1-4.8-42.5,3-44.9C113.3,180,125.7,191.5,125.7,191.5z"/>
<path id="XMLID_22_" fill="#BC6E39" d="M128.5,133.2c0,0,9,15.2,10.8,27.5c0,0-4.4,5.9-6.2,1.8C131.3,158.3,118.6,136.1,128.5,133.2
	z"/>
<path id="XMLID_21_" fill="#6F9CD1" d="M129.5,139.1c-0.9-2.4,0.3-5,2.5-2.2c4.4,7.8,7.8,23.8,7.8,25.5c0,1.7-6.4,1.6-6.4,1.6
	C130.8,151.5,129.5,139.1,129.5,139.1z"/>
<path id="XMLID_20_" fill="#2C3A64" d="M131.4,135.8c-0.1-0.2,3.9-37.5-16.3-37.4c-6.2,0-11.8,3.3-12.7,9.4
	c-0.9,6.1,1.3,13.5-1.9,29.3L131.4,135.8z"/>
<path id="XMLID_19_" fill="#A0C2EB" d="M98.8,204.7c1.1-12.1,2.6-28,3.6-34.6c0.3-2.2,0.3-4.3,0-6.5l-2.3-17.2l-0.7-5.4
	c-0.4-2.9,1.2-5.6,3.9-6.7c2.4-1,4.2-1.2,7.3-1.9c1.9,1.7,5.6,4.2,9.5,3.4c2.9-0.6,3.5-2.2,3.3-3.8c0.7,0.1,1.4,0.2,2.1,0.2
	c2.5,0.3,4.6,1.7,5.9,3.6l0,0l0,0.1c0.2,0.3,0.4,0.6,0.6,1c0,0,1.2,4.9,1.8,11.1c2.1,23.3,1.4,104.7,1.9,119.2
	c-11.3,3.6-37.2,2.7-40.3-0.2C95.3,266.9,98.1,213.2,98.8,204.7z"/>
<path id="XMLID_18_" fill="#FFB27D" d="M122.7,127c0,0-8.8,0.8-12.9-5.3c-5.6-8.5-0.6-16.1,3-16.8c7.3-1.4,8.6,0.7,12.1,4.1
	C127.2,111.4,130.8,126.5,122.7,127z"/>
<path id="XMLID_17_" fill="#A0C2EB" d="M125.1,109.3c-3.2-3.8-6.4-3.2-11.7,3.7c-4.4-4.5,5.5-10,5.5-10
	C123,103.5,125.1,109.3,125.1,109.3z"/>
<path id="XMLID_16_" fill="#FFFFFF" d="M121.3,120.8c0,0,1,1,2.7,0.4c0,0,1.6-0.8,1.5-1.8C125.5,119.4,123.7,119.9,121.3,120.8z"/>
<path id="XMLID_15_" fill="#FFB27D" d="M111.5,138.6c0,0,4.3,17.2,4.5,24c0,0,9.5,16.7,10.1,17.8c0.6,1.2-3.4,2.8-3.4,2.8
	s-12-12.8-14.3-18.1c-2.3-5.4-10.5-22.8-7.2-28C104.5,131.9,111.5,138.6,111.5,138.6z"/>
<path id="XMLID_14_" fill="#FFB27D" d="M139.3,160.7c0,0,0.9,11.7-7.5,20.9c0,0-2.3-2.7-2-3.6c0.3-0.8,3.5-13.9,5.9-15.8
	C138.1,160.5,139.3,160.7,139.3,160.7z"/>
<path id="XMLID_13_" fill="#FFB27D" d="M126.2,180.4c0,0,5.3,0,5.6,1.2c0.3,1.3-1.4,5.2-5.3,3.8c-3.9-1.4-3.8-2.2-3.8-2.2
	L126.2,180.4z"/>
<path id="XMLID_12_" fill="#FFB27D" d="M129.8,178.1c0,0-4.3,2-2.8,4.1c1.5,2.1,4.4,0.8,4.8-0.5
	C132.2,180.3,129.8,178.1,129.8,178.1z"/>
<path id="XMLID_11_" fill="#6F9CD1" d="M114.7,147.6c0,0-5.6,5.2-14.2,4.4c0,0-4.2-15.1,2.6-16.9
	C109.8,133.3,115.5,142.2,114.7,147.6z"/>
<path id="XMLID_10_" fill="#6F9CD1" d="M114.5,144.6c1,4.8,2.8,18,2.8,18c2.6,6.8,7.6,13.2,8.2,15.5c-1.3,3.2-4,5.2-4,5.2
	c-4.7-4.2-11.8-13-13.6-16.5c-1.8-3.5-6.6-10.3-7.5-14.8C99.5,147.6,113.5,139.8,114.5,144.6z"/>
<path id="XMLID_9_" fill="#6F9CD1" d="M135.3,160.5c-1.7,3.9-6.2,16.3-6.1,16.6c0.4,1.6,3.4,4.6,3.4,4.6c5.4-5.7,7.1-16.6,7.1-19.3
	c0.1-2.6-1.6-3.5-1.6-3.5C137,159.1,135.3,160.5,135.3,160.5z"/>
<path id="XMLID_8_" fill="#2C3A64" d="M120,104.7c-7.7,2.9-8.9,19.2,1.1,21c3.2,0.4,4.8-0.4,6.5-2.2c1,0.1,0.7,3.5,1.7,7.1
	c1,3.9,2.8,6.2,2.8,6.2c-2,5.7-2.9,7.1-13.5,6.1s-11.8-9.4-16.7-7.8c3.6-9.5,4.1-20,4.4-24.6c0.3-4.6,9.8-9.6,12.5-8.9
	c1.3,0.4,7.7,4.8,6.3,7.6C124.3,107.8,122.5,105.1,120,104.7z"/>
<path id="XMLID_7_" fill="#2C3A64" d="M128.4,108.4c3,8.2,3.2,20,6,33.8c-10.4,6.5-24.2,0.1-27.7-5.3c-3.5-5.5,21.5-5.4,21.8-13
	c0.4-7.6-0.6-14.7-0.6-14.7L128.4,108.4z"/>
<path id="XMLID_6_" fill="#2C3A64" d="M209.5,20.5c-8.6,6.2-3.1,25.3,0.5,33.4c3.6,8.1-4.2,18.1-8.8,31.6
	c15.1,11.9,33.1,11.7,45.9,9.1c8.7-1.7,13.1-6.4,13.1-6.4c0.2-24.3-5-33.4-10.4-35.1c-5.4-1.7-5.5-5.7-6.5-13.6
	c-0.9-8-8.6-21.2-16.4-22.6C219.2,15.5,212.8,18.1,209.5,20.5z"/>
<path id="XMLID_5_" fill="#FFB27D" d="M217.5,51.2c0,0,8.1,0,8.9-11.8c0.6-9.4,0.4-16.2-9.1-14.4c-9.5,1.8-9.2,6.1-9.2,9.3
	C208.1,37.5,213.6,51.8,217.5,51.2z"/>
<path id="XMLID_4_" fill="#FFFFFF" d="M214.1,25.8c-0.4,0.1-0.8,0.3-1.2,0.4c-1.7,1.2-3,2.3-4,3.3c-0.9,1.6-0.9,3.3-0.9,4.7
	c0,0.7,0.2,2.1,0.8,3.4c1.1-5.6,1.8-6.7,1.8-6.7c7.7,0.8,13,4,13,4C221.1,29.7,215.5,26.5,214.1,25.8z"/>
<path id="XMLID_3_" fill="#FFFFFF" d="M219.2,44.5c-0.1,2.2-2.3,2.7-3,2.7c-0.9,0-1.5-0.7-1.5-0.7C215.7,45.8,219.2,44.5,219.2,44.5
	z"/>
<path id="XMLID_2_" fill="#2C3A64" d="M207.7,34c0.9-4.9,1.5-6.6,9.2-3.6c6.8,2.6,9.2,13.6,5.5,20.9c19.2,1.2,13.4-17.1,9.1-22.3
	c-4.3-5.2-2.4-9.5-11.1-7.6s-14.4,1.9-14.2,5.6C206.4,30.6,207.7,34,207.7,34z"/>
</svg>
