<?xml version="1.0" encoding="utf-8"?>
<!-- Generator: Adobe Illustrator 19.0.0, SVG Export Plug-In . SVG Version: 6.00 Build 0)  -->
<svg version="1.1" id="Layer_1" xmlns="http://www.w3.org/2000/svg" xmlns:xlink="http://www.w3.org/1999/xlink" x="0px" y="0px"
	 width="375px" height="300px" viewBox="0 0 375 300" enable-background="new 0 0 375 300" xml:space="preserve">
<path id="XMLID_88_" fill="#FF7373" d="M352,300H23c-12.7,0-23-10.4-23-23V23C0,10.4,10.4,0,23,0h329c12.7,0,23,10.4,23,23v254
	C375,289.6,364.6,300,352,300z"/>
<circle id="XMLID_46_" fill="#FFFFFF" cx="276.5" cy="70.4" r="49.9"/>
<g id="XMLID_17_">
	<g id="XMLID_23_">
		<path id="XMLID_45_" fill="#47B291" d="M230.1,80.4c0,0-1.2-1.3-2.5-1.6c-1.3-0.3-1.5,2.6-2.9,5.8c-1.5,3.2-1.7,4.1,0,5.1
			c1.7,1,5.1-1.7,5.8-4.2C231.1,82.9,230.1,80.4,230.1,80.4z"/>
		<path id="XMLID_44_" fill="#FFC4B2" d="M231.1,82.9c0,0-4.3-1.6-6.7-3.8c-2.4-2.2-2.3-2.7-5.5-3.3c-3.2-0.6-3.9-1-5.1-1.3
			c-1.2-0.4-0.5,2.3,0.6,2.7c1.1,0.4,3,1.3,2.9,1.5c-0.1,0.2-2.2,1.7-4.2,2c-1.9,0.3-5.4-1.5-7.1-0.6c-1.7,0.8-1.7,2.6,0,4.4
			c1.7,1.8,6.3,2.4,10.4,1.7c4.1-0.7,4.7-1.5,7.7,0c2.9,1.5,5.4,2.6,5.4,2.6L231.1,82.9z"/>
		<path id="XMLID_43_" fill="#47B291" d="M277.6,51c-1.8-0.2-4.3-0.1-7.7,3c-2.9,2.6-16.7,22-22.1,27.7c-1.5-1.3-3.7-1.3-3.4,0.1
			c-4-0.7-13.6-2.3-16.8-3c0.7,1.9-1,9.3-2.9,10.9c2.5,1.7,7.1,3.6,13.9,6.3c6,2.3,10.4,2.6,12.2,1.7c13.2-6.6,24-17.8,24.3-18
			c0.3-0.2,10.4-20.9,10.5-20.9C285.7,58.7,277.6,51,277.6,51z"/>
		<g id="XMLID_39_">
			<path id="XMLID_42_" fill="#47B291" d="M284.2,52.5C284.2,52.5,284.2,52.5,284.2,52.5L284.2,52.5
				C284.2,52.5,284.2,52.5,284.2,52.5z"/>
			<path id="XMLID_41_" fill="#47B291" d="M284.2,52.5C284.2,52.5,284.2,52.5,284.2,52.5C284.2,52.5,284.2,52.5,284.2,52.5z"/>
			<path id="XMLID_40_" fill="#47B291" d="M284.2,52.5C284.2,52.4,284.2,52.4,284.2,52.5L284.2,52.5z"/>
		</g>
		<path id="XMLID_38_" fill="#47B291" d="M314.1,128.2c-1.1-3.7-4.4-8.7-6.4-11c-0.7-0.9-1.3-1.9-1.5-3c-0.7-2.9-1.7-5.5-2.6-7.4
			c0-0.1,0.1-0.1,0.1-0.1s1.8-17.6,1.2-26.5c-0.6-8.9-0.9-16.3-11.4-22.4c-4-2.3-6.3-3.6-7.5-4.4c-1.2-0.7-2.5-1.1-3.8-1.1
			c-1.9,0-4.6,0.3-6.3,1.9c-2.9,2.6-9.6,12-11.1,16.5c-1.4,4-0.2,6.8,1,8.5c1.2,1.6,1.8,3.5,1.6,5.5c-0.2,1.9-1.7,5.1-1.9,7.6
			c-0.2,3.6-2.8,4.8-6.4,5.3c-5.5,0.9-12.1,3.3-18.4,5.2c-5,1.5-13.9,11.5-6.2,22.2c0,0,0,0,0,0.1c1.5,1.9,2.1,4.3,1.7,6.6
			c0,0,0,0,0,0c-0.6,3.3,7.5,9.2,15.7,10.1c8.2,0.9,15.1,6,24.8,13.1c5,3.7,9.4,2.6,11.7-0.2c1.5-1.8,3.7-2.9,6-2.9
			c9.8,0.1,15.5-3,18.9-7.2C317.7,138.8,315.6,133.1,314.1,128.2z"/>
		<path id="XMLID_37_" fill="#47B291" d="M293.5,119.8c0,0-9.4,3.7-19.2,2.7c-9.9-1-23.7-10.4-23.7-10.4s7.6-1.2,14.5,0
			c5.5,1,15.3,4,24.3,3.5c5.2-0.3,8-1,8-1L293.5,119.8z"/>
		<path id="XMLID_36_" fill="#47B291" d="M278.6,57.4c0,0-2.6,2.8-2.8,4.6c-0.3,1.8,1.4,3.9,1.4,3.9s-1.9,3.2-3.3,6.5
			c-1.4,3.4-1.8,6.6-1.8,6.6l2.2,1.3c0,0,0.9-5,2.3-7.6c1.4-2.6,3.3-5.2,3.3-5.2s4.3,2.6,9.1,0c4.8-2.6,8.3-6.8,7.3-7.9
			c-1.9-2-4.4-3.7-7.3-4.5C286.1,54.4,278.6,57.4,278.6,57.4z"/>
		<path id="XMLID_35_" fill="#47B291" d="M271.2,145.6c0,0,9.7,3.2,16.2,3.3c6.5,0.1,17.1-2.6,17.1-2.6s-9.9-0.1-17.1-0.7
			C280.2,145,271.2,145.6,271.2,145.6z"/>
		<path id="XMLID_34_" fill="#47B291" d="M236.3,123.2c0,0,1.6,4.9,9,9.3c7.4,4.4,13.8,6.1,13.8,6.1s-7.1-4.9-12.3-7.7
			C241.6,128.1,236.3,123.2,236.3,123.2z"/>
		<path id="XMLID_33_" fill="#47B291" d="M267.4,139.8c0.6,0,9.6-2.7,16.7-2.6c7.1,0.1,17.4-0.3,17.4-0.3s-12,2.5-17.8,3.2
			S267.4,139.8,267.4,139.8z"/>
		<path id="XMLID_32_" fill="#47B291" d="M236.3,116.6c1.6,3.9,5.7,7.7,10.6,10.8c4.9,3.1,9.2,5.3,9.2,5.3s-4.9-4.6-10.3-9
			C240.4,119.4,236.3,116.6,236.3,116.6z"/>
		<g id="XMLID_27_">
			<g id="XMLID_30_">
				<path id="XMLID_31_" fill="#FF9F8C" d="M293.5,61.5c-0.5-0.8-1.1-2.3-1.2-3c-0.5-3.4,0.5-7.4,0.5-7.4l-11.5,2.4
					c0,0-0.4,2.9-3.6,8.2c0,1.5,0.8,3.6,4,4.1C287.7,66.8,293.5,61.5,293.5,61.5z"/>
			</g>
			<g id="XMLID_28_">
				<path id="XMLID_29_" fill="#FFC4B2" d="M276.6,35.2c-5,5.2-3,23.1,4.4,24.3c4.8,0.8,11.4-3.5,13.8-11.8
					C296.9,40.8,286.1,25.4,276.6,35.2z"/>
			</g>
		</g>
		<path id="XMLID_26_" fill="#47B291" d="M273.9,85.4c0,0,1.2,4.4,5.4,5.7c4.2,1.2,8.1-0.6,8.1-0.6s-5.6-0.4-8.1-1.7
			C276.8,87.6,276.6,85.9,273.9,85.4z"/>
		<path id="XMLID_25_" fill="#FFC4B2" d="M297.6,84.1c-0.5,1,2.6,19.8,2.5,22.6c-2.9,4.2-6.6,8.3-9.8,15.7
			c-1.8,4.3-2.9,14.7,0.1,16.3c7.3,3.9,7.4-8.6,7.9-11c1.2-5.2,0.5-6.9,3.4-9.1c7.6-5.6,10.6-14.4,10.3-20.2
			c-0.4-7.2-3.2-15.6-3.2-15.6L297.6,84.1z"/>
		<path id="XMLID_24_" fill="#47B291" d="M299.3,63.7c-5.8,1.7-6.7,9.9-6.3,17.8c0.1,2.9,2.7,10.6,3.5,12.2c1.9,3.9,2.9,9.3,2.9,9.3
			s-5.3,9.2-9,14c6.9-2.1,13.1,2.7,13.8,8.5c5.8-6.4,8.2-15,8.8-19.7c0.4-2.9-1.4-23.3-2.3-27.5C308.9,70.1,304.3,63.7,299.3,63.7z"
			/>
	</g>
	<path id="XMLID_20_" fill="#3052B5" d="M300.8,36.8c-4-10.1-10.6-14-21.7-7.6c-6.6,3.8-6.9,7.4-7.3,10.2c-0.4,3.5,0.5,12.7,0.3,16
		c0,0.4-2.5,6.2-2.4,11.4c0.1,4.1,1.9,6.6,4.9,8.4c7.4,4.4,17.2-9.2,24.2-10.7c1.8-0.4,2.2-0.3,4.3,0.7c0.4-1.8-0.1-4.3-1.4-6.6
		c-1-1.8-0.7-4.8-0.2-6.9C302.5,47.8,302.6,41.3,300.8,36.8z M291.5,53.9c0,0-5.3,6.8-10.8,5c-2.9-0.9-4.8-4.7-5.7-8
		c-1-3.8-0.7-10.4,0-12.4c0,0,10.2-2.4,14,5.1C292.8,51.1,291.5,53.9,291.5,53.9z"/>
	<path id="XMLID_19_" fill="#47B291" d="M265.5,98.3c0.1,0.4,2.2,7.3,10.9,10.2c8.7,2.9,12.1,1.9,12.1,1.9s-9.3-2.9-14.3-5.6
		C269.3,102.1,265.5,98.3,265.5,98.3z"/>
	<path id="XMLID_18_" fill="#47B291" d="M274,101.7c0.6,0,9,2.9,15.4,1.7c6.4-1.2,7.1-3.6,7.1-3.6s-6.4,1.7-12,1.9
		C278.9,101.8,274,101.7,274,101.7z"/>
</g>
<circle id="XMLID_90_" fill="#FFFFFF" cx="102.2" cy="80.4" r="18.9"/>
<g id="XMLID_91_">
	<path id="XMLID_92_" fill="#FFFFFF" d="M61.2,117c-0.6,0-1.1,0-1.6,0c-0.5,0-0.9-0.5-0.9-1c0-0.5,0.4-0.9,1-0.9c0.5,0,1,0.1,1.5,0
		c1.3,0,2.5-0.1,3.8-0.2c0.5-0.1,1,0.3,1,0.8c0.1,0.5-0.3,1-0.8,1C63.9,116.9,62.6,117,61.2,117z M54.2,116.2c-0.1,0-0.1,0-0.2,0
		c-1.8-0.4-3.7-1-5.4-1.8c-0.5-0.2-0.7-0.7-0.5-1.2c0.2-0.5,0.7-0.7,1.2-0.5c1.6,0.7,3.3,1.3,5.1,1.7c0.5,0.1,0.8,0.6,0.7,1.1
		C55,115.9,54.6,116.2,54.2,116.2z M70.5,115.5c-0.4,0-0.8-0.2-0.9-0.6c-0.2-0.5,0.1-1,0.6-1.2c1.7-0.5,3.3-1.2,4.9-2.1
		c0.4-0.2,1-0.1,1.2,0.4c0.2,0.4,0.1,1-0.4,1.2c-1.7,0.9-3.4,1.6-5.2,2.2C70.7,115.5,70.6,115.5,70.5,115.5z M44.1,111.8
		c-0.2,0-0.4-0.1-0.5-0.2c-1.6-1.1-3-2.3-4.4-3.6c-0.4-0.4-0.4-0.9,0-1.3c0.4-0.4,0.9-0.4,1.3,0c1.3,1.2,2.7,2.4,4.2,3.4
		c0.4,0.3,0.5,0.9,0.2,1.3C44.7,111.6,44.4,111.8,44.1,111.8z M80.2,110.4c-0.3,0-0.5-0.1-0.7-0.3c-0.3-0.4-0.2-1,0.1-1.3
		c1.4-1.1,2.7-2.3,3.9-3.7c0.3-0.4,0.9-0.4,1.3-0.1c0.4,0.3,0.4,0.9,0.1,1.3c-1.2,1.4-2.6,2.7-4.1,3.9
		C80.6,110.3,80.4,110.4,80.2,110.4z M36.2,104.1c-0.3,0-0.6-0.1-0.7-0.4c-1.1-1.5-2.1-3.2-2.9-4.9c-0.2-0.5,0-1,0.4-1.2
		c0.5-0.2,1,0,1.2,0.4c0.8,1.6,1.7,3.2,2.7,4.6c0.3,0.4,0.2,1-0.2,1.3C36.6,104.1,36.4,104.1,36.2,104.1z M87.4,102.1
		c-0.2,0-0.3,0-0.5-0.1c-0.4-0.3-0.6-0.8-0.3-1.3c0.9-1.5,1.7-3.1,2.3-4.8c0.2-0.5,0.7-0.7,1.2-0.5c0.5,0.2,0.7,0.7,0.5,1.2
		c-0.7,1.8-1.5,3.5-2.5,5.1C88,102,87.7,102.1,87.4,102.1z M31.6,94.2c-0.4,0-0.8-0.3-0.9-0.7c-0.5-1.8-0.8-3.7-0.9-5.6
		c0-0.5,0.3-0.9,0.8-1c0.5-0.1,0.9,0.3,1,0.8c0.1,1.8,0.4,3.5,0.9,5.3c0.1,0.5-0.2,1-0.7,1.1C31.7,94.2,31.6,94.2,31.6,94.2z
		 M91.3,91.9c-0.1,0-0.1,0-0.2,0c-0.5-0.1-0.8-0.6-0.7-1.1c0.3-1.7,0.5-3.5,0.5-5.3c0-1.6-0.1-3.1-0.4-4.7c-0.1-0.5,0.3-1,0.8-1.1
		c0.5-0.1,1,0.3,1.1,0.8c0.3,1.6,0.4,3.3,0.4,4.9c0,1.9-0.2,3.8-0.5,5.6C92.1,91.5,91.7,91.9,91.3,91.9z M30.7,83.3
		C30.7,83.3,30.7,83.3,30.7,83.3c-0.6-0.1-1-0.5-0.9-1c0.2-1.9,0.6-3.8,1.1-5.6c0.1-0.5,0.7-0.8,1.1-0.6c0.5,0.1,0.8,0.7,0.6,1.1
		c-0.5,1.7-0.8,3.5-1,5.2C31.6,82.9,31.2,83.3,30.7,83.3z M90.1,76.2c-0.4,0-0.7-0.2-0.9-0.6c-0.6-1.7-1.3-3.3-2.2-4.9
		c-0.3-0.4-0.1-1,0.3-1.3c0.4-0.2,1-0.1,1.3,0.3c0.9,1.6,1.7,3.4,2.4,5.2c0.2,0.5-0.1,1-0.6,1.2C90.3,76.2,90.2,76.2,90.1,76.2z
		 M33.8,72.7c-0.1,0-0.3,0-0.4-0.1c-0.5-0.2-0.6-0.8-0.4-1.2c0.8-1.7,1.8-3.3,3-4.8c0.3-0.4,0.9-0.5,1.3-0.2
		c0.4,0.3,0.5,0.9,0.2,1.3c-1.1,1.4-2,3-2.8,4.5C34.4,72.5,34.1,72.7,33.8,72.7z M84.6,66.7c-0.3,0-0.5-0.1-0.7-0.3
		c-1.1-1.4-2.4-2.6-3.8-3.8c-0.4-0.3-0.4-0.9-0.1-1.3c0.3-0.4,0.9-0.4,1.3-0.1c1.5,1.2,2.8,2.6,4,4c0.3,0.4,0.3,1-0.1,1.3
		C85,66.6,84.8,66.7,84.6,66.7z M40.3,63.9c-0.2,0-0.5-0.1-0.7-0.3c-0.3-0.4-0.3-1,0-1.3c1.4-1.3,2.9-2.5,4.5-3.5
		c0.4-0.3,1-0.2,1.3,0.3c0.3,0.4,0.1,1-0.3,1.3c-1.5,1-2.9,2.1-4.2,3.3C40.8,63.9,40.6,63.9,40.3,63.9z M76.2,59.7
		c-0.2,0-0.3,0-0.4-0.1c-1.6-0.9-3.2-1.6-4.9-2.2c-0.5-0.2-0.7-0.7-0.6-1.2c0.2-0.5,0.7-0.7,1.2-0.6c1.8,0.6,3.5,1.4,5.2,2.3
		c0.4,0.2,0.6,0.8,0.4,1.3C76.8,59.5,76.5,59.7,76.2,59.7z M49.6,58c-0.4,0-0.7-0.2-0.9-0.6c-0.2-0.5,0-1,0.5-1.2
		c1.8-0.7,3.6-1.3,5.4-1.7c0.5-0.1,1,0.2,1.1,0.7c0.1,0.5-0.2,1-0.7,1.1c-1.7,0.4-3.5,0.9-5.1,1.6C49.8,58,49.7,58,49.6,58z
		 M65.8,56.1c0,0-0.1,0-0.1,0c-1.8-0.3-3.6-0.4-5.3-0.3c-0.5,0.1-0.9-0.4-0.9-0.9c0-0.5,0.4-0.9,0.9-0.9c1.9,0,3.8,0.1,5.7,0.4
		c0.5,0.1,0.8,0.5,0.8,1C66.7,55.8,66.3,56.1,65.8,56.1z"/>
</g>
<g id="XMLID_89_">
	<path id="XMLID_87_" fill="#834E3A" d="M127.1,112.9c0,0,3.5-0.1,4.5,0.6c0.9,0.8,0.5,1.5-0.6,3c-1,1.5-4.2,4.3-5,3.8
		c-0.8-0.5-1,0.7-0.8-0.5C125.4,118.7,124.5,114.4,127.1,112.9z"/>
	<path id="XMLID_86_" fill="#EA9443" d="M109.3,89.3c0,0,3.7,5.5,3.6,8.6s0.6,8.3,0.7,9.7c0.4,3.1,0.9,5.5,1.2,6.1
		c2.3,1.2,5.5,2.8,7.2,3.9c1.8,1.1,3.1,1.4,3.1,1.4s0.8-1.8,2.2-3.4c1.1-1.3,4.2-2,4.2-2s-4.5-3.4-6.6-4.4c-3.1-1.5-7-3.2-7-3.2
		s-1.7-12.3-3.2-14.6C112.7,87.9,109.3,89.3,109.3,89.3z"/>
	<path id="XMLID_85_" fill="#FFB25E" d="M105.5,90l4.5-0.9c0,0,4,6.8,4,12.8c0,2.4,0.2,8.1,1.3,10.1c1.4,2.6,1.3,4.2,1.2,5
		c2.8,0.5,8.5,0.1,11.5,2.4c3.2,2.5,3.6,7,0,10.4c-1.7,1.6-4.8,4.4-9.5,5.1c-3.3,0.5-8.8-0.8-11.5,0c-1.6,0.5,0,6.2-3.9,6.2
		c-2.3,0-11.2-1-15.6-3c-4.7-2.1-8.5-3.2-8.5-7.1c0-3.2,1.7-6.8,3.7-8.6c0.4-0.4,3.6-1.7,6.4-3.1c-3.4-4.8-2.8-23.9-0.3-25.7
		c3.4-2.5,9.6-3.7,9.6-3.7H105.5z"/>
	<path id="XMLID_84_" fill="#EA9443" d="M100.3,124.5c0,0,6,0.9,9.1,0.5c3.1-0.4,4.8-1.8,7.2-2.8c2.4-1,4.7-0.9,4.7-0.9
		s-4.7,3.1-7.6,4.9c-2.9,1.8-7.5,3.9-7.5,3.9s-3.4-0.7-5.1-2.3C99.3,126.2,100.3,124.5,100.3,124.5z"/>
	<path id="XMLID_83_" fill="#EA9443" d="M107,88.7c0,0,2.3,4.7,2.7,8c0.4,3.2-1.9,7-7.3,5.3c-5.7-1.8-8.9-10.5-8.9-10.5
		s3.5-2,6.1-2.5C102.1,88.5,107,88.7,107,88.7z"/>
	<path id="XMLID_82_" fill="#FFAA94" d="M107,85.6c0,0-1.6,5.2,0.1,7.6c1.7,2.5,0.7,6.7-3.5,6c-4.6-0.8-8-8.5-8-8.5s1.7-4.9,2.2-6.9
		C98.2,81.9,107,85.6,107,85.6z"/>
	<path id="XMLID_101_" fill="#FFC4B2" d="M110.2,71.7c-3.4-2.2-11.4-2.7-14,4.7c-2.8,7.8,4.9,15.6,9.4,15.5c4.3-0.1,8.1-5.6,8.4-9.8
		C114.4,75.7,112.9,73.5,110.2,71.7z"/>
	<g id="XMLID_98_">
		<path id="XMLID_80_" fill="#DCE6F4" d="M102.8,74.9c-4.4,1.3-7,2.5-8.5,3.5c-0.2-0.9-0.4-1.8-0.6-2.5c-1-3.2,1.7-6.5,8.5-7.7
			c7.9-1.4,9.9,0.2,10.7,5.7c0,0,0,0,0,0C111.2,73.5,108.1,73.3,102.8,74.9z"/>
		<path id="XMLID_79_" fill="#AFCAF2" d="M104.8,77.4l-9.7,4.2c0,0-0.3-1.6-0.7-3.2c1.5-0.9,4.1-2.1,8.5-3.5c5.2-1.6,8.4-1.4,10.1-1
			c0.4,1.6,0.7,2.7,0.7,2.7L104.8,77.4z"/>
	</g>
	<path id="XMLID_78_" fill="#3F2727" d="M93.7,81.4c1.6,0.1,1.2-0.8,1.2-0.8c4.8-3.1,11.5-4.9,15.1-4.8c2.4,0,3.7,0.8,3.7,0.8
		s1,2.3,2.4,2.6c1.4,0.3-0.2,1.6-1.9,1.9c-0.5-1.5,0-1.8-1.4-2.7c-0.8,0.7-3,2.2-5.5,0c0.3,2.3-2,3.8-4.5,2.6
		c-0.5,1.1-1.1,1.8-1.8,2.2c-0.7,0.4-2.6,1.2-3.2,0.8c-1.3-1,0.6-1,0.5-2c-0.2-1-0.7-1.4-0.7-1.4s-0.2,1.2-0.8,1.8
		c-0.7,0.8-1.7,1.5-2.8,1.2C92.1,83,92.7,81.4,93.7,81.4z"/>
	<path id="XMLID_77_" fill="#FFAA94" d="M114.8,131.4c2.9,1.2,4.2,2.7,6.7,3.5c2.5,0.8,1.7,2,2.1,4.5c0.4,2.5-0.8,3.6-2.4,2.8
		c-1.6-0.8-6-2.7-9.2-3.6c-3.2-0.9-6,0.1-8,0c-3.4-1.4-1.2-6.5-1.2-6.5s4,0,6.5-0.4C112.4,131.2,113.6,130.9,114.8,131.4z"/>
	<path id="XMLID_76_" fill="#FFC4B2" d="M109,132c1.7-0.8,3.6-1.8,5.3-2.7c1.1,0.1,2.1,0.2,3,0.9c1,0.7,1.6,1.7,2.1,2.7
		c0.1,0.2,0.2,0.3,0.2,0.5c-0.9,0.7-1.7,1.5-2.4,2.5c-0.6,0.9,0.2,3.1,1.2,4.4c3,3.8,3.5,4.9,2,5.5c-1.2,0.5-1.8,0.8-3.4,0.1
		c-1.1-0.5-2.8-0.1-4.2-1.6c-1.7-1.8-3.1-4.4-4-5.1C106.1,137.2,104.4,134.2,109,132z"/>
	<path id="XMLID_75_" fill="#FFC4B2" d="M102.3,125c0,0,2.5,1.8,4.8,4.3c2.2,2.5,2.5,3.7,3.1,5.4c0.5,1.7,0.5,4-0.2,5.8
		c-0.6,1.8-3.1,2.1-4.5,1.3c-1.3-0.8-1.3-6-3.3-6.9c-2-0.9-6.2-6-5.7-7.2S102.3,125,102.3,125z"/>
	<path id="XMLID_74_" fill="#EA9443" d="M91,92.5c0,0,3,6.4,3.5,9.4c0.5,3,1.1,10.3,1.1,13.7c6,5.4,9.3,10.6,9.3,10.6
		c0.1,0-3.2-0.5-5.2,1.6c-1.8,1.8-2.6,3.4-2.6,3.4s-11.3-8.4-12.3-12.5c-0.6-2.4-1.2-11.9,0.4-18.1C86.2,96.3,87.9,93,91,92.5z"/>
	<path id="XMLID_73_" fill="#FFC4B2" d="M130.5,114c0,0,2.6,1.2,3.8,3.5c1.3,2.3,0.7,4.1-1.6,6.3c-2.3,2.2-3.9,3.9-4.6,2.4
		c-0.7-1.6-1.1-4.3,0-5.4c1.1-1.1-1.1-1.4-1.8-3.7C127.3,114.3,130.5,114,130.5,114z"/>
	<path id="XMLID_72_" fill="#EA9443" d="M111.5,110.7c0,0-2.3,2.9-5.2,4.5c-2.9,1.6-6.8,0.4-6.8,0.4s2.8-0.5,5.1-1.5
		C106.9,113,111.5,110.7,111.5,110.7z"/>
	<path id="XMLID_1_" fill="#EA9443" d="M114,116c0,0-0.5,3-3.1,4.3c-2.6,1.3-7.7,0.9-7.7,0.9s4.3-0.5,6.4-1.8
		C111.6,118.2,114,116,114,116z"/>
</g>
<circle id="XMLID_3_" fill="#FFFFFF" cx="160.5" cy="165.4" r="35.8"/>
<g id="XMLID_4_">
	<path id="XMLID_5_" fill="#FFFFFF" d="M224.5,70.7C224.5,70.7,224.4,70.7,224.5,70.7c-2-0.2-3.9-0.7-5.7-1.4
		c-0.5-0.2-0.7-0.7-0.5-1.2c0.2-0.5,0.7-0.7,1.2-0.5c1.6,0.7,3.3,1.1,5.1,1.3c0.5,0.1,0.9,0.5,0.8,1C225.4,70.3,225,70.7,224.5,70.7
		z M230,70.5c-0.4,0-0.8-0.3-0.9-0.8c-0.1-0.5,0.2-1,0.7-1.1c1.7-0.3,3.4-0.9,5-1.6c0.5-0.2,1,0,1.2,0.4c0.2,0.5,0,1-0.4,1.2
		c-1.7,0.8-3.6,1.5-5.5,1.8C230.1,70.5,230.1,70.5,230,70.5z M214.4,66.6c-0.2,0-0.4-0.1-0.6-0.2c-1.5-1.2-2.9-2.6-4-4.1
		c-0.3-0.4-0.2-1,0.2-1.3c0.4-0.3,1-0.2,1.3,0.2c1,1.4,2.3,2.7,3.7,3.8c0.4,0.3,0.5,0.9,0.2,1.3C214.9,66.5,214.7,66.6,214.4,66.6z
		 M239.8,65.7c-0.3,0-0.5-0.1-0.7-0.3c-0.3-0.4-0.3-1,0.1-1.3c1.3-1.2,2.4-2.5,3.4-4c0.3-0.4,0.8-0.6,1.3-0.3
		c0.4,0.3,0.6,0.8,0.3,1.3c-1,1.6-2.3,3.1-3.7,4.4C240.2,65.6,240,65.7,239.8,65.7z M208,57.9c-0.4,0-0.7-0.2-0.9-0.6
		c-0.7-1.8-1.1-3.7-1.2-5.6c0-0.5,0.3-0.9,0.8-1c0.5,0,0.9,0.3,1,0.8c0.1,1.8,0.5,3.5,1.1,5.1c0.2,0.5-0.1,1-0.5,1.2
		C208.2,57.8,208.1,57.9,208,57.9z M245.6,56.5c-0.1,0-0.2,0-0.3,0c-0.5-0.1-0.8-0.6-0.6-1.1c0.5-1.7,0.7-3.4,0.7-5.2
		c0-0.9-0.1-1.9-0.2-2.8c-0.1-0.5,0.3-1,0.8-1c0.5-0.1,1,0.3,1,0.8c0.2,1,0.2,2,0.2,3.1c0,1.9-0.3,3.9-0.8,5.7
		C246.3,56.2,246,56.5,245.6,56.5z M207.2,47c-0.1,0-0.1,0-0.2,0c-0.5-0.1-0.8-0.6-0.7-1.1c0.4-1.9,1-3.7,1.9-5.4
		c0.2-0.4,0.8-0.6,1.2-0.4c0.4,0.2,0.6,0.8,0.4,1.2c-0.8,1.6-1.4,3.2-1.8,4.9C208,46.7,207.6,47,207.2,47z M244.5,42.8
		c-0.3,0-0.7-0.2-0.8-0.5c-0.7-1.6-1.7-3.1-2.8-4.4c-0.3-0.4-0.3-1,0.1-1.3c0.4-0.3,1-0.3,1.3,0.1c1.3,1.5,2.3,3.1,3.1,4.9
		c0.2,0.5,0,1-0.5,1.2C244.8,42.8,244.7,42.8,244.5,42.8z M212.2,37.4c-0.2,0-0.5-0.1-0.6-0.3c-0.4-0.4-0.4-0.9,0-1.3
		c1.3-1.4,2.9-2.6,4.5-3.6c0.4-0.3,1-0.1,1.3,0.3c0.3,0.4,0.1,1-0.3,1.3c-1.5,0.9-2.9,2-4.1,3.3C212.7,37.3,212.5,37.4,212.2,37.4z
		 M237.5,34.5c-0.2,0-0.4-0.1-0.5-0.2c-1.5-1-3-1.7-4.7-2.3c-0.5-0.2-0.8-0.7-0.6-1.2c0.2-0.5,0.7-0.7,1.2-0.6
		c1.8,0.6,3.6,1.4,5.2,2.5c0.4,0.3,0.5,0.9,0.3,1.3C238.1,34.4,237.8,34.5,237.5,34.5z M221.6,31.9c-0.4,0-0.8-0.3-0.9-0.7
		c-0.1-0.5,0.2-1,0.7-1.1c1.7-0.4,3.4-0.6,5.1-0.6c0,0,0,0,0,0l0.6,0c0.5,0,0.9,0.4,0.9,0.9c0,0.5-0.4,0.9-0.9,0.9l-0.5,0
		c0,0,0,0,0,0c-1.6,0-3.1,0.2-4.7,0.6C221.8,31.8,221.7,31.9,221.6,31.9z"/>
</g>
<g id="XMLID_47_">
	<path id="XMLID_71_" fill="#FF9E8B" d="M170.6,218.5c0,0,8.1,2.6,13.4,1.6c4-0.7,4.7-3.6,5.8-1.5c0.9,1.8,0,3.3-0.2,6.5
		c-0.2,2.6-4.5,1.3-5.5,2.5c-1,1.2-16.7-0.4-18.2-2C164.4,223.8,170.6,218.5,170.6,218.5z"/>
	<path id="XMLID_70_" fill="#FFBDB2" d="M183.8,244.5c0,0,11.6-1.6,13.7-7.5c2.2-6.2,0.4-14.4-7.8-13.8c-8.6,0.6-20.7-0.9-20.7-0.9
		s-7.9,14.3-5.7,17.6C165.5,243.3,183.8,244.5,183.8,244.5z"/>
	<path id="XMLID_69_" fill="#DCD5C6" d="M144,209.8c6-1.9,10.1,2.3,10.1,2.3l20.6,16.2l14.7-2.4c0,0,2.2-0.1,4.8,4.8
		c2.7,5.3-0.3,10.3-0.3,10.3s-11.5,9.1-25.7,9c-12.5,0-20.3-3.2-24.4-9.2c0,0,0,0,0,0C137,231.5,138,211.7,144,209.8z"/>
	<path id="XMLID_68_" fill="#FFBDB2" d="M142.4,196.2c0,0-8.4,18.4-9.7,21.3c-1.3,2.9-4.6,12.1-5.5,12.7c-2.7,1.9-16.2,1.9-12.5,6.6
		c2.7,3.4,8.2,0.9,11,0.3c3.6-0.8,4.9-1.6,6-4.4c0.2-0.6,2.8-3.9,5.5-8.1c3.1-4.9,6.3-10.9,7-12.3c1.3-2.8,2.7-9.5,3.1-9.8
		C147.6,202.2,142.4,196.2,142.4,196.2z"/>
	<path id="XMLID_67_" fill="#AFCAF2" d="M156.1,183c0,0-6.6-4.2-10.2,1.8c-1.2,2-2.2,4.1-2.9,6c-0.3,0.9-5.3,14-8.1,19.5
		c-2.8,5.6-9.5,18.4-9.5,18.4s1.7,3.9,5.8,5.1c4.2,1.1,6.2,0.2,6.2,0.2L156.1,183z"/>
	<path id="XMLID_66_" fill="#FFBDB2" d="M174.6,159.4c-3.3-10-4.8-3.4-6.1-4.3c-3.4-2.5-10-2-13.1,4c-1.7,3.3-0.3,10.4-0.9,16.8
		c-0.2,2-0.7,8.3-0.7,8.3s-0.3-0.8,4,1.2c4.3,2,7.9,0.2,7.9,0.2l0.1-6.5c0,0,3.8-0.6,4.8-1C172.5,177.4,177.7,169.1,174.6,159.4z"/>
	<path id="XMLID_65_" fill="#DCE6F4" d="M190.1,222.1c-2.6-0.1-7.2-0.8-10.4-0.3c-4.1,0.6-4.7-3-4.6-4.4c0.5-10,0.7-18.1-1.6-23.3
		c-3.1-7.1-3.3-6.8-6.5-8c-3.3-1.3-15.3-1.4-15.3-1.4s-4.3,1.6-5,12.3c-0.5,7.3-3.1,11.6-4.1,15.2c-2.1,8-4.8,8.3-7,17
		c-0.9,3.6-0.8,13.5,8.5,18.5c5.2,2.8,12.4,4,15.1,4.7c2.7,0.7,8.4,2.6,16.1,0.5c7.6-2.1,14-5.6,18.6-7.9c6-3.1,8-8.5,7.8-14.3
		C201.4,224.8,194.7,222.2,190.1,222.1z"/>
	<path id="XMLID_64_" fill="#AFCAF2" d="M152.3,185c0,0,3.6,4.7,8.6,3.6c5-1.2,7.9-1.8,7.9-1.8s-0.9-2.8-4.1-3.3
		c-5-0.7-11.3-2.7-11.3-2.7L152.3,185z"/>
	<path id="XMLID_63_" fill="#FFBDB2" d="M173.4,203.7c0,0-5.1,19.9-4.9,24.8c0.3,7.1-0.1,23.3,0.3,27.4c0.2,2.2,6.7,3.9,5.9,5
		c-1.4,1.8-3.9-0.6-4.9,0.2c-2.4,1.9-0.6,9.3-3.9,10.4c-4.6,1.6-8.9-3.7-6.8-8.8c2.1-5.1,2.7-7.5,2.8-9.8c0.1-3.1-3.3-20.9-2.6-30
		c0.6-9.1,4.3-21.7,4.3-21.7L173.4,203.7z"/>
	<path id="XMLID_62_" fill="#AFCAF2" d="M175,198.9c0-4.3-0.7-8.5-3.5-9.6c-4.4-1.7-8.1,2.9-9.1,8.6c-0.8,4.6-4.7,25.9-4.8,29
		c-0.1,3.1,2.1,23.3,1.7,25.3c-0.4,2-1,3.6-1,3.6s4.3,4.6,7.9,3c3.6-1.6,5.4-3.8,5.4-3.8s-0.4-10.3-0.9-18.3
		c-0.5-8-0.8-11.5,0.6-17.2C172.6,213.8,175,203.8,175,198.9z"/>
	<path id="XMLID_61_" fill="#AFCAF2" d="M177.3,243.9c0,0,5.8,0.9,9.6-1.1c3.8-2.1,8.4-6.5,8.4-6.5s-6.5,3.3-11.1,5
		C179.5,243,177.3,243.9,177.3,243.9z"/>
	<path id="XMLID_60_" fill="#AFCAF2" d="M144.4,218.7c0,0-4.2,7.4-4.7,11.6c-0.6,4.2,0,8.4,0,8.4s2.9-6.6,3.7-9.9
		C144.2,225.3,144.4,218.7,144.4,218.7z"/>
	<path id="XMLID_59_" fill="#AFCAF2" d="M146.4,230.9c0,0,1,8.8,4.3,12.6c3.3,3.7,6.2,4.5,6.2,4.5s-3.3-3.5-5.3-7.7
		C149.6,236,146.4,230.9,146.4,230.9z"/>
	<path id="XMLID_58_" fill="#3D252E" d="M173.2,156.5l0.2,3.3c0,0-1.7,6.1-6,10.3c-2.3,6.8-11.3,10.2-11.3,10.2s-2-6.3-2.5-11.7
		c-0.3-3.2-1-4.4-0.6-7.8c0.8-7.6,5.4-9.6,11.9-9.7C171.4,151,173.2,156.5,173.2,156.5z"/>
	<path id="XMLID_57_" fill="#FFBDB2" d="M172.4,166.2c0,0-2.4-2.8-4.6,0.6c-1.6,2.5,1.2,5.5,1.2,5.5L172.4,166.2z"/>
	<g id="XMLID_48_">
		<path id="XMLID_56_" fill="#8FB0E5" d="M153.2,169.7c0,0,7.7,2.2,13.5-1.1c7.6-4.4,7.9-9.1,7.9-9.1s0-0.2-0.2-0.7
			c-0.5-1.9-2.3-7.2-7.2-9.6c-2.4-1.2-5.6-0.4-8.6,0.8c-4,1.7-6.7,4.8-7.9,7.2C148.9,160.8,153.2,169.7,153.2,169.7z"/>
		<path id="XMLID_55_" fill="#DCE6F4" d="M152.4,167.7c0,0,6.2,2.1,13.1-0.8c6.7-2.8,8.5-9.6,8.5-9.6l-0.5-1.3c0,0-2.7,6.1-7.6,9
			c-4.9,3-14.1,0.9-14.1,0.9L152.4,167.7z"/>
		<path id="XMLID_54_" fill="#7FA0DD" d="M157.1,154.8c0,0-3.2,2.6-3.8,4.6c-0.6,2,0.5,4.6,0.5,4.6s-0.1-2.8,1.1-5.3
			C155.5,157.5,157.1,154.8,157.1,154.8z"/>
		<path id="XMLID_53_" fill="#7FA0DD" d="M159.3,154.3c0,0,1,2.2,2.2,4.7c1.2,2.4,2.5,3.5,2.5,3.5s-0.6-2.7-1.7-4.5
			C161.1,156.2,159.3,154.3,159.3,154.3z"/>
		<path id="XMLID_52_" fill="#7FA0DD" d="M161.2,152.5c0.2,0.1,4.2-1,6.2,0.3c1.9,1.3,3.3,2.2,3.3,2.2s-1.1-1.9-3.3-3.1
			C165,150.5,161.2,152.5,161.2,152.5z"/>
		<path id="XMLID_51_" fill="#7FA0DD" d="M162,149.3c0,0-1.4,1.2-1.8,1.8c-0.4,0.6-0.8,1.5-0.8,1.5s1.2-0.8,1.6-1.7
			C161.6,150.1,162,149.3,162,149.3z"/>
		<path id="XMLID_50_" fill="#7FA0DD" d="M158.3,153.3c0,0-1.3,0-2.5,0.3c-0.9,0.3-1.7,1-1.7,1s0.9-0.2,1.9-0.4
			C156.9,154.1,158.3,153.3,158.3,153.3z"/>
		
			<ellipse id="XMLID_49_" transform="matrix(0.7827 -0.6223 0.6223 0.7827 -60.8763 132.2106)" fill="#7FA0DD" cx="158.9" cy="153.3" rx="1.8" ry="1"/>
	</g>
</g>
</svg>
