<svg width="521" height="521" viewBox="0 0 521 521" fill="none" xmlns="http://www.w3.org/2000/svg">
<path d="M0 260.5C0 45.9783 45.9783 0 260.5 0C475.022 0 521 45.9783 521 260.5C521 475.022 475.022 521 260.5 521C45.9783 521 0 475.022 0 260.5Z" fill="url(#paint0_linear)"/>
<path d="M101.923 335.391C90.9574 335.391 80.7753 333.54 71.3765 329.837C62.12 325.993 54.6437 320.367 48.9474 312.962C43.3935 305.557 40.4742 296.657 40.1894 286.261C40.1894 284.979 40.6166 283.911 41.4711 283.057C42.3255 282.06 43.4648 281.562 44.8888 281.562H73.7262C75.5775 281.562 77.0015 282.06 77.9984 283.057C79.1376 284.054 80.1345 285.549 80.9889 287.543C83.2674 298.935 90.6014 304.632 102.991 304.632C110.111 304.632 115.594 302.282 119.439 297.582C123.284 292.883 125.206 286.119 125.206 277.289V215.556H55.9965C54.5725 215.556 53.2908 215.058 52.1516 214.061C51.1547 212.922 50.6563 211.64 50.6563 210.216V189.069C50.6563 187.502 51.1547 186.22 52.1516 185.224C53.2908 184.227 54.5725 183.728 55.9965 183.728H159.384C160.95 183.728 162.232 184.227 163.229 185.224C164.368 186.22 164.938 187.502 164.938 189.069V278.357C164.938 290.462 162.303 300.787 157.034 309.331C151.765 317.875 144.36 324.355 134.819 328.769C125.277 333.184 114.312 335.391 101.923 335.391ZM192.899 333.255C191.332 333.255 189.98 332.757 188.84 331.76C187.843 330.763 187.345 329.481 187.345 327.915V312.749C187.345 308.476 189.125 304.988 192.685 302.282L214.901 280.494C227.86 270.525 237.686 262.764 244.379 257.21C251.072 251.656 256.127 246.601 259.545 242.044C262.963 237.487 264.672 233.143 264.672 229.014C264.672 217.763 259.118 212.138 248.01 212.138C242.172 212.138 237.686 213.918 234.553 217.479C231.42 220.896 229.355 225.24 228.358 230.509C227.504 233.784 225.083 235.422 221.095 235.422H194.394C193.112 235.422 192.044 234.995 191.19 234.14C190.336 233.286 189.908 232.218 189.908 230.936C190.193 221.822 192.685 213.491 197.385 205.944C202.226 198.254 208.991 192.201 217.678 187.787C226.507 183.23 236.618 180.951 248.01 180.951C259.972 180.951 270.226 182.874 278.77 186.719C287.314 190.564 293.794 195.975 298.209 202.953C302.623 209.931 304.83 218.048 304.83 227.305C304.83 237.273 301.698 246.387 295.432 254.647C289.308 262.764 279.909 271.593 267.235 281.134L247.583 301H302.481C304.047 301 305.329 301.499 306.326 302.495C307.465 303.492 308.035 304.774 308.035 306.34V327.915C308.035 329.481 307.465 330.763 306.326 331.76C305.329 332.757 304.047 333.255 302.481 333.255H192.899ZM384.163 335.391C373.198 335.391 363.016 333.54 353.617 329.837C344.361 325.993 336.884 320.367 331.188 312.962C325.634 305.557 322.715 296.657 322.43 286.261C322.43 284.979 322.857 283.911 323.712 283.057C324.566 282.06 325.705 281.562 327.129 281.562H355.967C357.818 281.562 359.242 282.06 360.239 283.057C361.378 284.054 362.375 285.549 363.229 287.543C365.508 298.935 372.842 304.632 385.231 304.632C392.352 304.632 397.834 302.282 401.679 297.582C405.524 292.883 407.447 286.119 407.447 277.289V215.556H338.237C336.813 215.556 335.531 215.058 334.392 214.061C333.395 212.922 332.897 211.64 332.897 210.216V189.069C332.897 187.502 333.395 186.22 334.392 185.224C335.531 184.227 336.813 183.728 338.237 183.728H441.624C443.191 183.728 444.472 184.227 445.469 185.224C446.609 186.22 447.178 187.502 447.178 189.069V278.357C447.178 290.462 444.544 300.787 439.275 309.331C434.006 317.875 426.6 324.355 417.059 328.769C407.518 333.184 396.553 335.391 384.163 335.391Z" fill="#FFFCFC"/>
<defs>
<linearGradient id="paint0_linear" x1="453.27" y1="104.2" x2="46.89" y2="468.9" gradientUnits="userSpaceOnUse">
<stop stop-color="#FFA477"/>
<stop offset="1" stop-color="#FFCA93"/>
</linearGradient>
</defs>
</svg>
