<?xml version="1.0" encoding="utf-8"?>
<!-- Generator: Adobe Illustrator 19.0.0, SVG Export Plug-In . SVG Version: 6.00 Build 0)  -->
<svg version="1.1" id="Layer_1" xmlns="http://www.w3.org/2000/svg" xmlns:xlink="http://www.w3.org/1999/xlink" x="0px" y="0px"
	 width="521px" height="521px" viewBox="73 -110 521 521" style="enable-background:new 73 -110 521 521;" xml:space="preserve">
<style type="text/css">
	.st0{fill:url(#SVGID_1_);}
	.st1{fill:#FFFCFC;}
</style>
<g>
	
		<linearGradient id="SVGID_1_" gradientUnits="userSpaceOnUse" x1="517.9693" y1="317.0493" x2="111.5893" y2="-47.6507" gradientTransform="matrix(1 0 0 -1 0 302)">
		<stop  offset="0" style="stop-color:#FFA477"/>
		<stop  offset="1" style="stop-color:#FFCA93"/>
	</linearGradient>
	<path class="st0" d="M73,150.5C73-64,119-110,333.5-110C548-110,594-64,594,150.5C594,365,548,411,333.5,411
		C119,411,73,365,73,150.5z"/>
	<path class="st1" d="M174.9,225.4c-8.1,0-15.9-1-23.3-3c-7.3-2.1-13.7-5.3-19.4-9.4c-5.7-4.1-10.3-9.3-13.7-15.4
		c-3.3-6.1-5.1-13.2-5.3-21.4c0-1.3,0.4-2.3,1.3-3.2c0.9-1,2-1.5,3.4-1.5h28.8c2,0,3.5,0.5,4.5,1.5c1.1,1,2.1,2.5,2.8,4.5
		c0.7,4,2.1,7.3,4.1,9.8c2,2.4,4.5,4.3,7.5,5.6c3.1,1.1,6.6,1.7,10.5,1.7c7.1,0,12.6-2.3,16.4-6.8c3.8-4.7,5.8-11.5,5.8-20.5v-61.7
		H129c-1.4,0-2.7-0.5-3.8-1.5c-1-1-1.5-2.3-1.5-3.8V79.1c0-1.6,0.5-2.8,1.5-3.8c1.1-1,2.4-1.5,3.8-1.5h103.4c1.6,0,2.8,0.5,3.8,1.5
		c1.1,1,1.7,2.3,1.7,3.8v89.3c0,12.4-2.7,22.9-8.1,31.4c-5.4,8.4-12.8,14.8-22.2,19.2C198.2,223.3,187.3,225.4,174.9,225.4z
		 M265.7,223.3c-1.6,0-2.9-0.5-4.1-1.5c-1-1-1.5-2.3-1.5-3.8v-15.2c0-1,0.3-2.5,0.9-4.5c0.6-2.1,2.1-4.1,4.5-6l22.2-21.8
		c11.4-8.7,20.7-16,28-22c7.4-6.1,12.9-11.5,16.4-16.2c3.6-4.7,5.3-9.1,5.3-13.2c0-4.8-1.3-8.8-3.8-12c-2.4-3.3-6.7-4.9-12.8-4.9
		c-4.1,0-7.6,0.9-10.5,2.8c-2.7,1.7-4.8,4-6.2,6.8c-1.4,2.8-2.4,5.8-3,8.8c-0.6,1.9-1.6,3.1-3,3.8c-1.3,0.7-2.7,1.1-4.3,1.1h-26.7
		c-1.3,0-2.4-0.4-3.2-1.3c-0.9-0.9-1.3-1.9-1.3-3.2c0.1-6.8,1.6-13.2,4.3-19.2c2.8-6,6.8-11.3,11.7-15.8c5.1-4.7,11.2-8.3,18.2-10.9
		c7.1-2.6,15.1-3.8,23.9-3.8c12.1,0,22.4,1.9,30.8,5.8c8.5,3.8,15,9.3,19.4,16.2c4.4,6.8,6.6,14.9,6.6,24.1c0,7-1.6,13.5-4.7,19.7
		c-3,6-7.3,11.7-13,17.3c-5.6,5.4-12.2,11-19.9,16.9L320.4,191h54.9c1.6,0,2.8,0.5,3.8,1.5c1.1,1,1.7,2.3,1.7,3.8v21.6
		c0,1.6-0.6,2.8-1.7,3.8c-1,1-2.3,1.5-3.8,1.5H265.7z M457,225.4c-8.1,0-15.9-1-23.3-3c-7.3-2.1-13.7-5.3-19.4-9.4
		c-5.7-4.1-10.3-9.3-13.7-15.4c-3.3-6.1-5.1-13.2-5.3-21.4c0-1.3,0.4-2.3,1.3-3.2c0.9-1,2-1.5,3.4-1.5h28.8c2,0,3.5,0.5,4.5,1.5
		c1.1,1,2.1,2.5,2.8,4.5c0.7,4,2.1,7.3,4.1,9.8c2,2.4,4.5,4.3,7.5,5.6c3.1,1.1,6.6,1.7,10.5,1.7c7.1,0,12.6-2.3,16.4-6.8
		c3.8-4.7,5.8-11.5,5.8-20.5v-61.7H411c-1.4,0-2.7-0.5-3.8-1.5c-1-1-1.5-2.3-1.5-3.8V79.1c0-1.6,0.5-2.8,1.5-3.8
		c1.1-1,2.4-1.5,3.8-1.5h103.4c1.6,0,2.8,0.5,3.8,1.5c1.1,1,1.7,2.3,1.7,3.8v89.3c0,12.4-2.7,22.9-8.1,31.4
		c-5.4,8.4-12.8,14.8-22.2,19.2C480.2,223.3,469.3,225.4,457,225.4z"/>
</g>
</svg>
