<?xml version="1.0" encoding="utf-8"?>
<!-- Generator: Adobe Illustrator 19.0.0, SVG Export Plug-In . SVG Version: 6.00 Build 0)  -->
<svg version="1.1" id="Layer_1" xmlns="http://www.w3.org/2000/svg" xmlns:xlink="http://www.w3.org/1999/xlink" x="0px" y="0px"
	 viewBox="0 0 626 626" enable-background="new 0 0 626 626" xml:space="preserve">
<linearGradient id="XMLID_11_" gradientUnits="userSpaceOnUse" x1="93.4365" y1="221.1808" x2="555.2894" y2="416.8243">
	<stop  offset="0" style="stop-color:#F493E9"/>
	<stop  offset="0.644" style="stop-color:#CD85F6"/>
	<stop  offset="1" style="stop-color:#BC7FFC"/>
</linearGradient>
<path id="XMLID_144_" opacity="0.26" fill="url(#XMLID_11_)" d="M593.3,429.8c-0.2-0.4-0.3-0.8-0.5-1.2
	c-14.4-35.2-52.9-59.2-58.1-96.9c-3.4-25,9-49.1,19.9-71.9c10.9-22.8,20.7-49.1,11.9-72.7c-8.3-22.2-31.5-36.2-54.9-40
	c-20.4-3.4-43.3-1.1-59.8-13.5c-22.5-16.9-20.9-46.1-37.2-69c-11.2-15.8-31.5-26-50.7-28.7c-32.5-4.5-59.7,4.6-88,50.9
	c-13.8,22.6-20.7,36-49.5,39.5c-19.5,2.4-50.5-5.7-69.8-9.1c-22.7-4-44.8-0.7-61.9,20.6c-21.6,27-32.1,86.5,8.6,136.2
	c16.9,20.7,25.8,32.8,11.5,55.2c-16,25-48,35.5-66.4,58.8C29.2,412.2,28,447.9,42,475.4c13.9,27.5,41,46.9,70.5,55.9
	c27,8.2,55.7,8.3,83.9,8.3c94.6,0.1,189.3,0.3,283.9,2c24.3,0.4,49.5,0.8,71.6-9.4C588.8,515.3,607.9,467.6,593.3,429.8z"/>
<g id="XMLID_1_">
	<g id="XMLID_2_">
		<polygon id="XMLID_9_" fill="#F2D7C0" points="379.1,516.7 38.4,324.1 280.3,164.4 621,357 		"/>
		<polygon id="XMLID_8_" opacity="0.2" fill="#AC7150" points="395.1,506.1 386.1,512.1 45.4,319.6 54.5,313.6 		"/>
		<polygon id="XMLID_7_" opacity="0.2" fill="#AC7150" points="467.4,458.5 458.3,464.5 117.7,271.9 126.8,265.9 		"/>
		<polygon id="XMLID_6_" opacity="0.2" fill="#AC7150" points="540.7,410.1 531.6,416.1 191,223.5 200,217.5 		"/>
		<polygon id="XMLID_5_" opacity="0.2" fill="#AC7150" points="614,361.5 604.9,367.5 264.3,175 273.3,169 		"/>
		<polygon id="XMLID_4_" fill="#DBB49A" points="621.2,364.2 621,357 379.1,516.7 379.3,523.9 		"/>
		<polygon id="XMLID_3_" fill="#D1A78B" points="38.7,331.4 38.4,324.1 379.1,516.7 379.3,523.9 		"/>
	</g>
	<g id="XMLID_128_">
		<polygon id="XMLID_65_" fill="#FF7373" points="221.3,275.4 434.5,394.7 543.6,333.7 330.4,214.4 		"/>
		<polygon id="XMLID_64_" fill="#6969BE" points="231.5,275.6 434.3,389 533.4,333.5 330.7,220.1 		"/>
		<polygon id="XMLID_63_" fill="#FFB25E" points="242.6,273.7 436.2,382.1 522.8,333.6 329.2,225.3 		"/>
		<g id="XMLID_129_">
			<g id="XMLID_140_">
				<path id="XMLID_62_" fill="#FF7373" d="M254.3,272.7l101,56.5c8.2,3.7,29,12.5,53,17.8c36.2,8,60.9,4.3,60.9,4.3
					s6.8-13.1-7.7-34.1c-9.3-13.4-25.1-25.1-31.8-29.6l-101-56.5L254.3,272.7z"/>
				<path id="XMLID_141_" fill="#FFC68D" d="M470,351.8l-0.4,0.1c-0.2,0-25.4,3.7-61.6-4.3c-24.2-5.4-45.3-14.3-53.3-17.9l-101.8-57
					l75.7-42.4l101.7,56.9c6.6,4.5,22.6,16.3,32,29.9c14.5,20.9,7.8,34.3,7.7,34.5L470,351.8z M256.5,273.2l99.5,55.7
					c7.8,3.5,28.6,12.3,52.5,17.6c32.8,7.3,56.3,4.8,59.8,4.3c0.8-1.9,5.4-14.5-7.8-33.5c-9.3-13.4-25.2-25.1-31.6-29.5l-99.4-55.6
					L256.5,273.2z"/>
			</g>
			<g id="XMLID_135_">
				<path id="XMLID_59_" fill="#6969BE" d="M266.2,266.1l101,56.5c6.9,3.2,22.8,10.1,40.4,14.7c27.6,7.2,45.4,5.4,45.4,5.4
					s3.5-9.4-9.6-25.4c-8.1-9.9-20.5-18.8-26.3-22.6l-101-56.5L266.2,266.1z"/>
				<path id="XMLID_136_" fill="#FFC68D" d="M454.7,343.7l-1.1,0.1c-0.8,0.1-18.7,1.8-46.7-5.5c-17.5-4.6-33.1-11.3-40.9-14.9
					l-0.2-0.1l-101-56.5l52.5-29.4L418.5,294c6.5,4.3,18.5,13.1,26.6,22.9c13.3,16.2,10,25.7,9.8,26.1L454.7,343.7z M368.4,321.8
					c6.2,2.9,22.2,9.9,39.8,14.5c22.7,5.9,38.7,5.6,43,5.4c0.5-2.3,1.1-11-9.6-24.1c-8.1-9.9-20.7-18.8-25.8-22.3l-99.4-55.6
					L269,266.2L368.4,321.8z"/>
			</g>
			<path id="XMLID_56_" fill="#FFC68D" d="M273.9,263.4l97.9,54.8c5.7,2.7,18.7,8.5,33,12.5c22.4,6.4,36.3,5.3,36.3,5.3
				s2.1-7.3-9.5-20.3c-7.1-8-17.6-15.3-22.4-18.5l-97.9-54.8L273.9,263.4z"/>
			<ellipse id="XMLID_55_" fill="#FF7373" cx="490.8" cy="333.5" rx="16.1" ry="8.3"/>
			<ellipse id="XMLID_54_" fill="#FFC68D" cx="490.8" cy="333.5" rx="11.1" ry="5.7"/>
			<ellipse id="XMLID_53_" fill="#FF7373" cx="437.2" cy="364.1" rx="16.1" ry="8.3"/>
			<ellipse id="XMLID_52_" fill="#FFC68D" cx="437" cy="364.1" rx="11.1" ry="5.7"/>
		</g>
	</g>
	<g id="XMLID_87_">
		<path id="XMLID_37_" fill="#5252A7" d="M306.5,246.7c-0.2-0.5-8.2,1.9-13.6,5.9c-8.4,6.1-8.4,12.2-8.4,12.2l3.6,8.3
			c0,0,10.9-6,16.5-7.7c5.6-1.7,9-8.6,9-8.6L306.5,246.7z"/>
		<path id="XMLID_36_" fill="#5252A7" d="M364.6,160.3c0,0,5.1-7.5,13.6,18.9c4.3,13.5,3.5,45.5,5.9,60c2.4,14.5-12.1,8.3-17-5.6
			c-4.9-13.9-9.2-40.3-9.2-40.3L364.6,160.3z"/>
		<path id="XMLID_35_" fill="#6969BE" d="M323.2,160.1c0,0-12.4,9.7-12.4,19c0,6.3,4.4,23.2,2.5,34.4c-3.1,17.4-12.4,26-7,41.6
			c-11.7,3.6-17.7,8.5-19.6,15.2c4.9,10.5,9.5,14.3,16.7,23.3c14.7,18.4,45.7,24.6,58,25.3c14.2,0.9,24-11.2,34.4-15.9
			c10.5-4.7,16.6-7.9,18.6-14.1c3.2-9.9-6.7-26.8-22.4-41.9c-8.5-8.2-22.6-21.8-23.1-30.2c-0.6-8.9,1.7-19.2,4.1-28.1
			c2.9-11.1-1.4-20-9.6-28.5C357.2,154,323.2,160.1,323.2,160.1z"/>
		<path id="XMLID_34_" fill="#5252A7" d="M346.6,258.8c0,0,16.7,8,22.9,13.4c6.2,5.4,9.3,9.5,9.3,9.5s-7.8-5.9-17.5-10.1
			c-9.7-4.2-10.6-3.7-12.9-6.6C346.1,261.9,346.6,258.8,346.6,258.8z"/>
		<path id="XMLID_33_" fill="#5252A7" d="M359.8,233.5c0,0,2.5,6.9,6.5,12.3c4.8,6.5,11.6,11.9,15.4,16.5c7,8.4,7.8,16.8,7,22.8
			c-0.8,6-3.6,8.5-3.6,8.5s0.9-18-5.7-26.4c-6.6-8.4-10.5-10-16.1-19.1C357.8,239,359.8,233.5,359.8,233.5z"/>
		<path id="XMLID_32_" fill="#FFC2B0" d="M335.8,248.1c0,0,7.8,7.9,12.4,12.2c4.6,4.2,6.3,6.5,9.7,12c3.4,5.5,5.5,8.5,0,9.3
			c-4.5,0.6-7.3-2-11.9-5.6c-4.5-3.5-10.4-3.9-13.8-10.5s-5.5-12.7-5.5-12.7L335.8,248.1z"/>
		<path id="XMLID_31_" fill="#FFC2B0" d="M339.6,119.7c5.2-4.7,18.5-7.3,24.8,5.6c6.6,13.6-4.8,32.4-12.1,30.1
			c-4.1-1.3-12.9-6.5-16-13.6C332.8,133.7,335.5,123.4,339.6,119.7z"/>
		<path id="XMLID_30_" fill="#FFFFFF" d="M366.9,129.2c0,0-20.9,10.5-29.3,0c-8.5-10.5-5-13.9,6.6-14.4c11.6-0.5,21.5,5.8,21.5,5.8
			L366.9,129.2z"/>
		<path id="XMLID_29_" fill="#5252A7" d="M323.2,181.9c0,0,1.1,16.1,1.2,25.3c0.1,9.2,0,15.6,0,15.6l21.3,34c0,0-5.2-0.8-11,1.3
			c-5.8,2.1-4.9,7.4-4.9,7.4s-16.5-18.9-26.5-33.3c-5.7-8.3-2.8-20.3,0.2-40.9c3.9-26.8,11.9-24.4,11.9-24.4L323.2,181.9z"/>
		<path id="XMLID_28_" fill="#FF7373" d="M361.3,149c0,0,5.8,0.9,4.9,7.4c6,1.1,7,3.6,8,5.8c2.2,4.7-2,18.9-14.4,26.7
			c-11.7,7.3-32.1,5.1-42.4,0.7c-10.3-4.4-14-8.4-14-8.4s4.8-14.8,8.9-19.1c4.1-4.3,7.3-3.7,7.3-3.7s3.5-8.7,8.8-9.4
			c5.3-0.7,8.1,10.2,17,9C354.3,156.7,361.3,149,361.3,149z"/>
		<path id="XMLID_95_" fill="#FF7373" d="M331,114.3c3.5-7.4,13.7-10.8,25.5-4.8c2.3,1.2,7.2,4.5,9.1,11.2c0.6,2.2,1.1,6.4,1.3,8.6
			c0.9,8-1.1,17.8-3.5,21.8c-3.9,6.6-8,13.9-14.6,12.8c-6.6-1.1-17.1-4-20.4-14.9C323.6,133.4,327.5,121.5,331,114.3z M347.8,152.1
			c8.2,1.6,13.2-8.6,14.2-14.9c0.3-2,1.8-6.2,0.3-10.3c-0.9-2.6-3.7-3.7-8.4-3.6c-4.1,0.1-9.1,2.2-11.1,7.4
			C338.1,142.6,341,150.8,347.8,152.1z"/>
		<path id="XMLID_25_" fill="#F46161" d="M367.1,164.7c0,0-5.7,4.1-11,9.7c-5.3,5.5-10.2,11.5-16.1,11.4c-5.9-0.1-10.3-1.5-10.3-1.5
			s10-0.6,13.9-3c3.9-2.4,9.4-8.4,13.9-12.7S367.1,164.7,367.1,164.7z"/>
		<path id="XMLID_24_" fill="#F46161" d="M349.2,171.9c0,0-7.9,6.9-17.9,4.3c-10-2.6-16.1-9.5-16.1-9.5s0.3-2.7,2.5-2.8
			c2.1-0.1,3,3.7,8,6.4c5.1,2.8,7.7,3.4,13.1,3.3C342.9,173.7,349.2,171.9,349.2,171.9z"/>
		<path id="XMLID_23_" fill="#F46161" d="M363.4,158.5c0,0-12.1,9.3-23.4,7.3c-11.3-2-13.5-5.5-14.7-8.1c-1.2-2.6,1.1-3.7,2.1-2.8
			c1,1,3.3,5.7,9.1,7.1c5.8,1.4,12.1,0.8,15.9-0.9C356,159.5,363.4,158.5,363.4,158.5z"/>
		<path id="XMLID_22_" fill="#FFC2B0" d="M381.7,240.1c0,0,1.1,8.1,2.7,16.2c1.6,8.1,0.3,11.7,0,15.6s-6.8,3-9.6-2.7
			c-2.8-5.7-6.4-20.4-4.9-26.1C371.4,237.4,381.7,240.1,381.7,240.1z"/>
		<path id="XMLID_21_" fill="#5252A7" d="M369.2,208.6c0,0-2.5,5.4-2.1,16.5c0.4,11.1,1.3,24.3,1.3,24.3s4-4.7,8.3-4.7
			s7.7,2.8,7.7,2.8s-1.5-20.9-2-29.4C382,209.7,369.2,208.6,369.2,208.6z"/>
		<path id="XMLID_20_" fill="#5252A7" d="M363.4,196.9c0,0-9,5.7-13.6,9.6c-4.6,3.9-13.6,9.6-13.6,9.6s2.9-7.8,9.5-12.6
			C352.2,198.7,363.4,196.9,363.4,196.9z"/>
		<path id="XMLID_19_" fill="#5252A7" d="M305,241.2c-0.2,1.5,6.8,22.3,12,31.9c7.2,13.3,13.6,19.7,19.2,24.4
			c5.6,4.8,9.5,7.5,9.5,7.5s-13.5-2.4-25.2-16.8c-11.8-14.4-15.8-25.8-17-33S305,241.2,305,241.2z"/>
	</g>
	<g id="XMLID_91_">
		<polygon id="XMLID_113_" fill="#FFFFFF" points="93.9,350 295.7,470.4 398.9,408.8 197.1,288.3 		"/>
		<polygon id="XMLID_112_" fill="#7FA0DD" points="103.5,350.1 295.4,464.7 389.2,408.7 197.4,294.1 		"/>
		<polygon id="XMLID_111_" fill="#FFB25E" points="114.1,348.3 297.3,457.7 379.2,408.7 196,299.4 		"/>
		<g id="XMLID_92_">
			<g id="XMLID_104_">
				<path id="XMLID_110_" fill="#F23B3B" d="M125.2,347.3l95.5,57c7.7,3.7,27.4,12.6,50.1,17.9c34.3,8.1,57.7,4.4,57.7,4.4
					s6.5-13.2-7.3-34.4c-8.8-13.6-23.8-25.3-30-29.9l-95.5-57L125.2,347.3z"/>
				<path id="XMLID_105_" fill="#FFC68D" d="M329.3,427.1l-0.4,0.1c-0.2,0-24.1,3.7-58.3-4.4c-22.9-5.4-42.9-14.4-50.4-18
					l-96.3-57.5l71.7-42.8l96.2,57.5c6.2,4.5,21.4,16.4,30.3,30.2c13.7,21.1,7.4,34.7,7.3,34.8L329.3,427.1z M127.2,347.7l94.1,56.2
					c7.4,3.5,27.1,12.4,49.7,17.8c31.1,7.3,53.3,4.8,56.6,4.4c0.8-1.9,5.1-14.6-7.4-33.8c-8.8-13.5-23.8-25.3-29.9-29.7l-94-56.1
					L127.2,347.7z"/>
			</g>
			<g id="XMLID_99_">
				<path id="XMLID_103_" fill="#7FA0DD" d="M136.4,340.6l95.5,57c6.5,3.2,21.5,10.2,38.2,14.8c26.2,7.3,43,5.4,43,5.4
					s3.3-9.5-9.1-25.7c-7.7-10-19.4-18.9-24.8-22.8l-95.5-57L136.4,340.6z"/>
				<path id="XMLID_100_" fill="#FFC68D" d="M314.7,418.9l-1,0.1c-0.7,0.1-17.7,1.8-44.2-5.5c-16.6-4.6-31.4-11.4-38.7-15l-0.2-0.1
					l-95.5-57l49.7-29.7l95.7,57.1c6.1,4.4,17.5,13.2,25.2,23.1c12.6,16.3,9.4,26,9.3,26.4L314.7,418.9z M233,396.8
					c5.8,2.9,21,10,37.6,14.6c21.5,6,36.6,5.7,40.7,5.4c0.4-2.4,1.1-11.1-9.1-24.3c-7.7-10-19.6-19-24.5-22.5l-94-56.1L139,340.7
					L233,396.8z"/>
			</g>
			<path id="XMLID_98_" fill="#FFFFFF" d="M143.7,337.9l92.6,55.3c5.4,2.7,17.7,8.6,31.2,12.7c21.2,6.4,34.3,5.4,34.3,5.4
				s2-7.4-9-20.5c-6.8-8.1-16.6-15.4-21.2-18.6l-92.6-55.3L143.7,337.9z"/>
			<ellipse id="XMLID_97_" fill="#FFFFFF" cx="348.9" cy="408.6" rx="15.3" ry="8.4"/>
			<ellipse id="XMLID_96_" fill="#FFC68D" cx="348.9" cy="408.6" rx="10.5" ry="5.8"/>
			<ellipse id="XMLID_94_" fill="#FFFFFF" cx="298.2" cy="439.5" rx="15.3" ry="8.4"/>
			<ellipse id="XMLID_93_" fill="#FFC68D" cx="298" cy="439.5" rx="10.5" ry="5.8"/>
		</g>
	</g>
	<g id="XMLID_68_">
		<path id="XMLID_90_" fill="#50A063" d="M181.6,318.8c-3-1.1-15.6-1.2-24.8,7.2c-9.2,8.4-13.5,10.5-13.5,10.5s12.6,12.6,21.8,17.7
			s12.8,8.5,19.2,12.7c6.4,4.3,14.4-9.6,16.8-14.8C203.4,346.9,181.6,318.8,181.6,318.8z"/>
		<path id="XMLID_89_" fill="#428C52" d="M225.8,252.5c0,0,3.8-1,9.1,3.7c5.4,4.6,7.4,24.3,11.4,32.9c4,8.6,5.2,15.2,6.6,23.5
			c1.4,8.3-4.9,15.2-5.2,15.8c-0.3,0.6-15.8-4.2-16.9-9.2C229.7,314,225.8,252.5,225.8,252.5z"/>
		<path id="XMLID_88_" fill="#50A063" d="M220.9,251c0,0,4.2-0.5,10.4,10c3.5,6,6.3,20.8,6.4,34.2c0.1,10.6-1.8,12,2.9,22
			c2.3,4.9,14.4,12.9,23.5,29.7c5.9,10.8,4.1,20.7-3.2,25.4c-3.6,2.3-15,2-22.2,5.6c-7.4,3.6-11.6,12.2-18.4,12
			c-19.2-0.7-42.5-31.7-52.3-37.8c0.2-18.5,19.7-13,19.7-13s-5.5-7.5-6.4-23.2c-0.8-12.9,1.7-34.2,3.8-47.6c1.1-7.3,7.7-8.2,10.6-9
			C205.9,256.3,220.9,251,220.9,251z"/>
		<path id="XMLID_86_" fill="#428C52" d="M230.2,375.4c-6.2,5.6-16.1,4.5-16.1,4.5s11.1-5.7,16.2-9.4c6.7-4.8,15.2-2.8,15.2-2.8
			S236.4,369.8,230.2,375.4z"/>
		<path id="XMLID_85_" fill="#428C52" d="M244.2,339.6c0.3,1.1,2.3,15.6,0,19.5c-2.3,3.9-8.4-2-17-9.8c-8.6-7.8-11.6-9.8-11.6-9.8
			s14.3,8.9,15.7,3.4c2.3-8.9,8.2-14.7,8.2-14.7L244.2,339.6z"/>
		<path id="XMLID_84_" fill="#33211F" d="M199.5,251c0,0-0.8,2-2.3,5.1s-1.5,3.1-1.5,3.1s9,18.6,19.5,15.6
			c10.5-3.1,11.7-12.1,10.1-17.7C223.7,251.6,199.5,251,199.5,251z"/>
		<path id="XMLID_83_" fill="#FFC2B0" d="M207.8,228.9c4.4-4.2,15.5-6.6,20.7,5c5.5,12.1-4,29-10.1,26.9
			c-3.4-1.2-10.8-5.8-13.4-12.2C202.1,241.4,204.4,232.2,207.8,228.9z"/>
		<path id="XMLID_82_" fill="#FFFFFF" d="M230.2,238.4c0,0-15.7,9.5-24.5,2c-8.9-7.6-4.3-14.5,5.5-14.9c9.7-0.4,18,5.2,18,5.2
			L230.2,238.4z"/>
		<path id="XMLID_79_" fill="#33211F" d="M196.6,225.5c4.4-8.1,15.5-11,25.4-5.7c1.9,1,6,4.1,7.6,10c0.5,2,0.9,5.7,1.1,7.6
			c0.7,7.2-0.9,15.9-2.9,19.5c-3.3,5.9-6.7,12.4-12.2,11.4c-5.5-1-13.5-1.4-16.3-11.1C195.2,243.4,193.2,231.7,196.6,225.5z
			 M217,259.3c6.6,2.4,9.4-4.5,10.9-10c0.6-2.2,0.7-8.6,0.6-12.5c-0.1-2.7-2.5-5.8-8.6-4.7c-5.2,0.9-11.8,3-12.1,8.3
			C207.2,251.8,209.5,256.5,217,259.3z"/>
		<path id="XMLID_78_" fill="#428C52" d="M190.2,261.2c0,0,4.3,16.4,5.5,26.6c1.2,10.2,0.1,20.3,2.9,24.4c2.9,4.2,9.3,9.1,12.1,11.7
			c2.8,2.6,7.3,8.3,7.3,8.3s-3,1.1-4.3,6.9c-1.3,5.8-1.3,5.8-1.3,5.8s-11.2,5.1-22.7-0.9c-11.5-5.9-14.9-23.9-15.5-29.4
			c-0.6-5.5,1.4-26.4,3.7-37.3C180.2,266.4,184.6,261.2,190.2,261.2z"/>
		<path id="XMLID_77_" fill="#428C52" d="M237.7,295.3c0,0-4.7,12.1-5.1,18.7c-0.8,11,4.5,16.1,4.5,16.1l5.8,2.8
			c0,0,10.3-2.8,10.3-10.5c0-7.7,0.7-19.6-5.4-24.1C241.8,293.8,237.7,295.3,237.7,295.3z"/>
		<path id="XMLID_75_" fill="#FFC2B0" d="M215.9,332c0,0,7,5.6,11.1,8.6c4.1,3,5.7,4.7,9,8.8c3.3,4.1,5.3,6.4,1.1,7.7
			c-3.4,1.1-5.9-0.8-9.9-3.2c-3.9-2.4-8.6-2-12-7.1c-3.4-5.1-3.4-5.1-3.4-5.1L215.9,332z"/>
		<path id="XMLID_74_" fill="#33211F" d="M215.9,330l5,5.4c0,0-2,1.8-3.8,4.7c-1.8,2.9-2.1,5.6-2.1,5.6l-4.5,0c0,0-3.8-3.2-0.9-9.9
			C212.4,329.2,215.9,330,215.9,330z"/>
		<path id="XMLID_73_" fill="#FFC2B0" d="M246.6,325.5c0,0,0.9,6.8,2.1,13.6s0.2,9.8,0,13.1s-5.4,2.5-7.5-2.3
			c-2.2-4.8-5.1-17.1-3.8-21.9C238.6,323.2,246.6,325.5,246.6,325.5z"/>
		<path id="XMLID_72_" fill="#33211F" d="M237.1,332c0-0.5-3-7-3-7s0.9-4.4,6.9-4.2c5.9,0.2,7.5,2.2,9.1,4.2c1.6,2,0.6,3.4,0.6,3.4
			l-3,4.5c0,0-1.9-2.7-5.3-2.9C238.9,329.9,237.1,332,237.1,332z"/>
		<path id="XMLID_71_" fill="#428C52" d="M203.7,299.4c0,0,5.9,9.8,10.9,14.5c5.1,4.7,9.9,8.7,9.9,8.7s-8.7,0.5-15.4-6.9
			C202.5,308.3,203.7,299.4,203.7,299.4z"/>
		<path id="XMLID_70_" fill="#428C52" d="M197,367.2c0,0-10.2-7.3-21.1-13.1c-10.8-5.8-16.3-11.2-16.3-11.2s11.3,3,18.3,6.6
			S195,364.4,197,367.2z"/>
		<path id="XMLID_69_" fill="#428C52" d="M229.8,279.3c0,0,3.3,13.5-1.4,21.2c-4.7,7.8-7.6,10.5-7.6,10.5s2.2-6,5-12.9
			C228.6,291.3,229.8,279.3,229.8,279.3z"/>
	</g>
</g>
</svg>
