<?xml version="1.0" encoding="utf-8"?>
<!-- Generator: Adobe Illustrator 19.0.0, SVG Export Plug-In . SVG Version: 6.00 Build 0)  -->
<svg version="1.1" id="Layer_1" xmlns="http://www.w3.org/2000/svg" xmlns:xlink="http://www.w3.org/1999/xlink" x="0px" y="0px"
	 width="400px" height="244px" viewBox="0 0 400 244" enable-background="new 0 0 400 244" xml:space="preserve">
<g>
	<g>
		<g>
			<g>
				<g>
					<g>
						<g>
							<g>
								<path fill="#FDEACF" d="M136.9,243.2l-70.9-0.3c0,0-43.1-43.9-32.7-117.8c3.5-24.4,31.1-64,89.6-73.3
									c53-8.4,45.3-62.5,145.1-49.9c27.4,3.5,68.7,24.6,90.7,69.6c16.4,33.5,28.4,98.5-14.3,171.7L136.9,243.2z"/>
							</g>
						</g>
					</g>
				</g>
			</g>
		</g>
	</g>
	<g>
		<g>
			<g>
				<g>
					<g>
						<g>
							<path fill="#7FC6A6" d="M281,242.7c0.6-0.5,11.9-20.4,18.9-10.7c0,0,10.4-35.4,24.7-33.7c14.3,1.7,2.2,27.9,2.2,27.9
								s12.2-5,9.4,8.2c0,0,15.6-2.8,14.4,8.4L281,242.7z"/>
						</g>
					</g>
				</g>
			</g>
			<g>
				<g>
					<g>
						<g>
							
								<ellipse transform="matrix(-0.7699 -0.6382 0.6382 -0.7699 471.3152 592.4465)" fill="#7FC6A6" cx="342.5" cy="211.3" rx="2.9" ry="5.4"/>
						</g>
					</g>
				</g>
			</g>
			<g>
				<g>
					<g>
						<g>
							
								<ellipse transform="matrix(-0.7699 -0.6382 0.6382 -0.7699 469.5579 608.3954)" fill="#7FC6A6" cx="344.5" cy="219.5" rx="1.7" ry="3.2"/>
						</g>
					</g>
				</g>
			</g>
		</g>
		<g>
			<g>
				<g>
					<g>
						<g>
							<path fill="#7FC6A6" d="M326.2,228.7C326.2,228.7,326.1,228.7,326.2,228.7c-0.1-0.1-0.1-0.2-0.1-0.3c0.1-0.1,3.1-2,5.7-1.5
								l0,0c0.1,0,0.1,0.1,0.1,0.2c0,0.1-0.1,0.1-0.2,0.1l0,0c-2.5-0.5-5.4,1.4-5.5,1.4C326.3,228.7,326.3,228.7,326.2,228.7z"/>
						</g>
					</g>
				</g>
			</g>
			<g>
				<g>
					<g>
						<g>
							<path fill="#7FC6A6" d="M328.2,228.9C328.2,228.9,328.1,228.9,328.2,228.9c-0.1-0.1-0.1-0.2-0.1-0.3c0.1,0,1.4-0.9,3.9-0.8
								c0.1,0,0.1,0.1,0.1,0.2c0,0.1-0.1,0.1-0.2,0.1c-2.3-0.1-3.7,0.7-3.7,0.7C328.3,228.9,328.2,228.9,328.2,228.9z"/>
						</g>
					</g>
				</g>
			</g>
		</g>
		<g>
			<g>
				<g>
					<g>
						<path fill="#7FC6A6" d="M291.1,234.7c0,0-0.1,0-0.1,0c-0.1-0.1-0.1-0.2,0-0.2c0.1-0.1,2.6-2.6,5.2-2.6c0.1,0,0.2,0.1,0.2,0.1
							c0,0.1-0.1,0.1-0.1,0.1h0c-2.5,0-5,2.5-5,2.6C291.2,234.7,291.1,234.7,291.1,234.7z"/>
					</g>
				</g>
			</g>
		</g>
		<g>
			<g>
				<g>
					<g>
						<path fill="#7FC6A6" d="M293.1,234.5c0,0-0.1,0-0.1,0c-0.1-0.1-0.1-0.2,0-0.2c0,0,1.2-1.2,3.6-1.6c0.1,0,0.2,0,0.2,0.1
							c0,0.1,0,0.2-0.1,0.2c-2.3,0.4-3.4,1.5-3.4,1.5C293.2,234.5,293.1,234.5,293.1,234.5z"/>
					</g>
				</g>
			</g>
		</g>
	</g>
	<g>
		<g>
			<g>
				<g>
					<g>
						<g>
							<g>
								<path fill="#7FC6A6" d="M287.4,112.6c0,0,31.5,17.9,66.7-11.1C354.2,101.5,305.9,77.2,287.4,112.6z"/>
							</g>
						</g>
					</g>
				</g>
			</g>
		</g>
	</g>
	<g>
		<g>
			<g>
				<path fill="#3F9896" d="M303.9,91.3l3.6,1.5c0.3,0.1,0.4,0.4,0.3,0.7c-0.1,0.3-0.4,0.4-0.7,0.3l-3.7-1.5
					c-1.5,2.7-2.5,5.9-2.6,9.8c0,0,21,1.3,32-22.8C332.7,79.3,315.1,81.4,303.9,91.3z"/>
			</g>
		</g>
	</g>
	<g>
		<g>
			<g>
				<g>
					<path fill="#49263E" d="M308.5,238.4c0,2.5-2,4.5-4.5,4.5l-138.6,0.2c-2.5,0-4.5-2-4.5-4.5l-0.3-184.3c0-2.5,2-4.5,4.5-4.5
						l138.6-0.3c2.5,0,4.5,2,4.5,4.5l0.3,179.5L308.5,238.4z"/>
				</g>
			</g>
		</g>
		<g>
			<g>
				<g>
					<g>
						<g>
							<polygon fill="#FFFFFF" points="170.2,231.3 170.2,58.6 298.9,58.6 298.9,200.1 268.7,231.3 							"/>
						</g>
					</g>
				</g>
			</g>
		</g>
		<g>
			<g>
				<path fill="#4CB7D8" d="M234.5,37.9c-11.4,0-20.6,9.2-20.6,20.6c0,0,0,0,0,0h41.2c0,0,0,0,0,0C255.1,47.1,245.9,37.9,234.5,37.9
					z M234.5,53.4c-2,0-3.6-1.6-3.6-3.6c0-2,1.6-3.6,3.6-3.6c2,0,3.6,1.6,3.6,3.6C238.2,51.8,236.5,53.4,234.5,53.4z"/>
			</g>
		</g>
		<g>
			<g>
				<g>
					<path fill="#B1E8FC" d="M205.3,105.6h-24.9V80.7h24.9V105.6z M182.1,103.8h21.3V82.5h-21.3V103.8z"/>
				</g>
			</g>
		</g>
		<g>
			<g>
				<g>
					<path fill="#B1E8FC" d="M205.3,139.8h-24.9v-24.9h24.9V139.8z M182.1,138h21.3v-21.3h-21.3V138z"/>
				</g>
			</g>
		</g>
		<g>
			<g>
				<g>
					<path fill="#B1E8FC" d="M205.3,174.1h-24.9v-24.9h24.9V174.1z M182.1,172.3h21.3v-21.3h-21.3V172.3z"/>
				</g>
			</g>
		</g>
		<g>
			<g>
				<g>
					<path fill="#B1E8FC" d="M205.3,209.7h-24.9v-24.9h24.9V209.7z M182.1,207.9h21.3v-21.3h-21.3V207.9z"/>
				</g>
			</g>
		</g>
		<g>
			<g>
				<g>
					<rect x="211.6" y="84.8" fill="#B1E8FC" width="76.3" height="2.6"/>
				</g>
			</g>
			<g>
				<g>
					<rect x="211.6" y="96.1" fill="#B1E8FC" width="76.3" height="2.6"/>
				</g>
			</g>
		</g>
		<g>
			<g>
				<g>
					<rect x="211.6" y="120.4" fill="#B1E8FC" width="76.3" height="2.6"/>
				</g>
			</g>
			<g>
				<g>
					<rect x="211.6" y="131.8" fill="#B1E8FC" width="76.3" height="2.6"/>
				</g>
			</g>
		</g>
		<g>
			<g>
				<g>
					<rect x="211.6" y="156.1" fill="#B1E8FC" width="76.3" height="2.6"/>
				</g>
			</g>
			<g>
				<g>
					<rect x="211.6" y="167.4" fill="#B1E8FC" width="76.3" height="2.6"/>
				</g>
			</g>
		</g>
		<g>
			<g>
				<g>
					<rect x="211.6" y="191.8" fill="#B1E8FC" width="76.3" height="2.6"/>
				</g>
			</g>
			<g>
				<g>
					<rect x="211.6" y="203.1" fill="#B1E8FC" width="76.3" height="2.6"/>
				</g>
			</g>
		</g>
		<g>
			<g>
				<g>
					<g>
						<g>
							<path fill="#FF424D" d="M192.5,102.1L185,90.7c-0.2-0.3-0.1-0.6,0.2-0.8c0.3-0.2,0.6-0.1,0.8,0.2l6.3,9.6l8-21
								c0.1-0.3,0.4-0.4,0.7-0.3c0.3,0.1,0.4,0.4,0.3,0.7L192.5,102.1z"/>
						</g>
					</g>
				</g>
			</g>
		</g>
		<g>
			<g>
				<g>
					<g>
						<g>
							<path fill="#FF424D" d="M193.2,135.2l-9.1-13.7c-0.2-0.3-0.1-0.8,0.2-1c0.3-0.2,0.7-0.1,1,0.2l7.6,11.4l9.9-26
								c0.1-0.4,0.5-0.5,0.9-0.4c0.4,0.1,0.5,0.6,0.4,0.9L193.2,135.2z"/>
						</g>
					</g>
				</g>
			</g>
		</g>
		<g>
			<g>
				<g>
					<g>
						<g>
							<path fill="#FF424D" d="M193.2,172.2l-9.1-13.7c-0.2-0.3-0.1-0.8,0.2-1c0.3-0.2,0.7-0.1,1,0.2l7.6,11.4l9.9-26
								c0.1-0.4,0.5-0.5,0.9-0.4c0.4,0.1,0.5,0.6,0.4,0.9L193.2,172.2z"/>
						</g>
					</g>
				</g>
			</g>
		</g>
	</g>
	<g>
		<g>
			<g>
				<g>
					<path fill="#FFFFFF" d="M92.5,92.3c2.9-0.2,9.7-0.5,15.6,0c2.4,0.2,4.6-1.7,4.5-4.2c0-1-0.4-2.2-1.3-3.5
						c-3.6-5.1-9.8-0.2-9.8,2.4c0,0-1.3-3.9-5.1-3.2c-3.8,0.7-2.5,6.3-2.5,6.3s-1.2-0.3-2.1,0.3C91.1,91,91.5,92.3,92.5,92.3z"/>
				</g>
			</g>
		</g>
	</g>
	<g>
		<g>
			<g>
				<g>
					<path fill="#FFFFFF" d="M319.5,69.9c2.9-0.2,9.7-0.5,15.6,0c2.4,0.2,4.6-1.7,4.5-4.2c0-1-0.4-2.2-1.3-3.5
						c-3.6-5.1-9.8-0.2-9.8,2.4c0,0-1.3-3.9-5.1-3.2c-3.8,0.7-2.5,6.3-2.5,6.3s-1.2-0.3-2.1,0.3C318,68.6,318.5,69.9,319.5,69.9z"/>
				</g>
			</g>
		</g>
	</g>
	<g>
		<g>
			<path fill="#FFFFFF" d="M41.7,120.9c-0.2-0.5-0.1-1.2,0.3-1.7c0.7-0.9,2-1.7,4.2-1.9c0,0-2.4-10.8,7-12
				c9.7-1.2,10.2,10.2,10.2,10.2s5.5-6.1,8.5,1.3c0,0,5.9-3,8.8,0.6c0.9,1.1,0.7,2.5,0,3.4H41.7z"/>
		</g>
	</g>
	<g>
		<g>
			<path fill="#FFFFFF" d="M243.6,34.5c-0.2-0.5-0.1-1.2,0.3-1.7c0.7-0.9,2-1.7,4.2-1.9c0,0-2.4-10.8,7-12
				c9.7-1.2,10.2,10.2,10.2,10.2s5.5-6.1,8.5,1.3c0,0,5.9-3,8.8,0.6c0.9,1.1,0.7,2.5,0,3.4H243.6z"/>
		</g>
	</g>
	<g>
		<g>
			<g>
				<g>
					<path fill="#21111D" d="M360.9,243.6H56.6c-0.2,0-0.4-0.2-0.4-0.4l0,0c0-0.2,0.2-0.4,0.4-0.4h304.3c0.2,0,0.4,0.2,0.4,0.4l0,0
						C361.3,243.4,361.1,243.6,360.9,243.6z"/>
				</g>
			</g>
		</g>
	</g>
	<g>
		<g>
			<path fill="#FE9F73" d="M145,91c-3.6,0.2-5.6,0.5-7.8,4.5c-1,1.8,5.3,5.1,5.3,5.1l5.3-2.7L145,91z"/>
		</g>
		<g>
			<g>
				<g>
					<g>
						<path fill="#ED2B47" d="M116.1,131.5c0,0,14-11.5,15-12.5c2.4-2.2,13.4-19,13.4-19c-2.1-2.3-4.7-4.7-7-6l-13.6,17.5l-14.2,8.3
							L116.1,131.5z"/>
					</g>
				</g>
			</g>
		</g>
		<g>
			<path fill="#FE9F73" d="M139.8,94.6c-0.1,0.6,0.5,0.2,0.6,0.2l3.2,0.1c0.3,0.1,0.7-0.2,0.8-0.7c0.1-0.5-0.1-1-0.5-1.1l-2.9-0.6
				C140.7,92.4,139.9,94.2,139.8,94.6z"/>
		</g>
		<g>
			<g>
				<path fill="#F07162" d="M140.4,94.9c-0.1,0-0.1-0.1-0.1-0.2c0-0.1,0.1-0.2,0.2-0.1l3.2,0.1c0.3,0.1,0.6-0.2,0.7-0.6
					c0-0.2,0-0.4-0.1-0.6c-0.1-0.2-0.2-0.3-0.4-0.3l-2.8-0.6c-0.1,0-0.1-0.1-0.1-0.2c0-0.1,0.1-0.2,0.2-0.1l2.8,0.6
					c0.2,0,0.4,0.2,0.5,0.5c0.1,0.2,0.1,0.5,0.1,0.8c-0.1,0.6-0.5,0.9-1,0.8L140.4,94.9C140.4,94.9,140.4,94.9,140.4,94.9z"/>
			</g>
		</g>
		<path fill="#291523" d="M104,222.7c-7.3,1.8-15.8-1.6-15.8-1.6c6.6-15.1,17.7-30.7,17.7-30.7C105.4,211,104,222.7,104,222.7z"/>
		<g>
			<g>
				<g>
					<g>
						<g>
							<g>
								<g>
									<g>
										<g>
											<g>
												<g>
													<g>
														<g>
															<g>
																<polygon fill="#FE9F73" points="79.1,234.4 72.4,229.7 76.8,223.4 84,227.3 																"/>
															</g>
														</g>
													</g>
												</g>
											</g>
										</g>
									</g>
								</g>
							</g>
						</g>
					</g>
				</g>
				<g>
					<g>
						<g>
							<g>
								<path fill="#49263E" d="M71.8,230.3l5.8,4.1l4.2-0.9l2.4,5.6l0.9,0.7c0.3,0.2,0.5,0.7,0.3,1c-0.2,0.5-0.8,0.6-1.2,0.3
									l-13.4-9.6c-0.1-0.1-0.1-0.2-0.1-0.3l0.6-0.9C71.5,230.2,71.7,230.2,71.8,230.3z"/>
							</g>
						</g>
					</g>
					<g>
						<g>
							<g>
								<path fill="#FEC786" d="M71.8,230.4l1.7-2.4c0,0,1.9-0.6,2.9,1.1c0,0,1.1,3.2,4.4,2.7l3.3,5.7c0,0,1,1.4,0.9,2.4L71.8,230.4
									z"/>
							</g>
						</g>
					</g>
					<g>
						<g>
							<g>
								<g>
									<g>
										
											<rect x="72.6" y="227.7" transform="matrix(-0.8123 -0.5832 0.5832 -0.8123 -1.8915 457.7279)" width="0.1" height="2.9"/>
									</g>
								</g>
							</g>
						</g>
					</g>
					<g>
						<g>
							<g>
								<g>
									<g>
										<path d="M78,231.2c0.2,0.1,0.3,0.2,0.3,0.2l0.1-0.1c0,0-1.3-0.7-1.8-2.2l-0.1,0C76.8,230.2,77.6,230.9,78,231.2z"/>
									</g>
								</g>
							</g>
						</g>
					</g>
					<g>
						<g>
							<g>
								<g>
									<g>
										
											<rect x="73.2" y="229.9" transform="matrix(-0.9373 0.3485 -0.3485 -0.9373 222.1703 420.6667)" width="0.1" height="0.9"/>
									</g>
								</g>
							</g>
						</g>
					</g>
					<g>
						<g>
							<g>
								<g>
									<g>
										
											<rect x="73.7" y="230.1" transform="matrix(-0.9377 0.3474 -0.3474 -0.9377 223.0643 421.0391)" width="0.1" height="0.9"/>
									</g>
								</g>
							</g>
						</g>
					</g>
					<g>
						<g>
							<g>
								<g>
									<g>
										<g>
											<g>
												<g>
													<g>
														<g>
															<g>
																<path d="M84.7,241.4c0.3,0,0.5-0.2,0.6-0.4c0.3-0.4,0.2-0.9-0.2-1.2l-13.3-9.5c-0.2-0.1-0.5-0.1-0.6,0.1l-0.5,0.7
																	l0.1,0.1l0.5-0.7c0.1-0.2,0.3-0.2,0.5-0.1l13.3,9.5c0.3,0.2,0.4,0.7,0.2,1c-0.1,0.2-0.3,0.3-0.5,0.3L84.7,241.4z"/>
															</g>
														</g>
													</g>
												</g>
											</g>
										</g>
									</g>
								</g>
							</g>
						</g>
					</g>
					<g>
						<g>
							<g>
								<g>
									<g>
										<path d="M85.1,239.9l0.1,0c0,0,0.1-0.8-0.6-1.9c-0.7-1.1-3.6-6.2-3.7-6.2l-0.1,0.1c0,0.1,3,5.1,3.7,6.2
											C85.2,239.1,85.1,239.9,85.1,239.9z"/>
									</g>
								</g>
							</g>
						</g>
					</g>
				</g>
			</g>
			<g>
				<g>
					<g>
						<g>
							<g>
								<g>
									<g>
										<g>
											<g>
												<g>
													<g>
														<g>
															<g>
																<polygon fill="#FE9F73" points="117.5,240.4 109.3,240.5 109.2,232.8 117.3,231.8 																"/>
															</g>
														</g>
													</g>
												</g>
											</g>
										</g>
									</g>
								</g>
							</g>
						</g>
					</g>
				</g>
				<g>
					<g>
						<g>
							<g>
								<path fill="#49263E" d="M109.2,241.3h7.1l2.9-3.1l5.3,3.1h1.1c0.4,0,0.7,0.3,0.8,0.6c0.1,0.5-0.3,1-0.8,1h-16.5
									c-0.1,0-0.2-0.1-0.2-0.2v-1.1C108.9,241.5,109,241.3,109.2,241.3z"/>
							</g>
						</g>
					</g>
					<g>
						<g>
							<g>
								<path fill="#FEC786" d="M109.3,241.4v-2.9c0,0,1.2-1.6,3-0.8c0,0,2.8,2,5.2-0.4l6,2.7c0,0,1.7,0.6,2.1,1.4H109.3z"/>
							</g>
						</g>
					</g>
					<g>
						<g>
							<g>
								<g>
									<g>
										<rect x="109.2" y="238.4" width="0.1" height="2.9"/>
									</g>
								</g>
							</g>
						</g>
					</g>
					<g>
						<g>
							<g>
								<g>
									<g>
										<path d="M114.7,238.5c0.2,0,0.4,0,0.4,0l0-0.1c0,0-1.4,0.2-2.8-0.7l-0.1,0.1C113.2,238.4,114.2,238.5,114.7,238.5z"/>
									</g>
								</g>
							</g>
						</g>
					</g>
					<g>
						<g>
							<g>
								<g>
									<g>
										
											<rect x="110.3" y="240" transform="matrix(-0.5583 0.8297 -0.8297 -0.5583 371.5167 283.1977)" width="0.1" height="0.9"/>
									</g>
								</g>
							</g>
						</g>
					</g>
					<g>
						<g>
							<g>
								<g>
									<g>
										
											<rect x="110.9" y="239.9" transform="matrix(-0.5591 0.8291 -0.8291 -0.5591 372.2141 282.765)" width="0.1" height="0.9"/>
									</g>
								</g>
							</g>
						</g>
					</g>
					<g>
						<g>
							<g>
								<g>
									<g>
										<g>
											<g>
												<g>
													<g>
														<g>
															<g>
																<path d="M126.2,242.8c0.2-0.2,0.3-0.4,0.3-0.7c0-0.5-0.4-0.9-0.9-0.9h-16.3c-0.3,0-0.5,0.2-0.5,0.5v0.8h0.1v-0.8
																	c0-0.2,0.2-0.3,0.3-0.3h16.3c0.4,0,0.7,0.3,0.7,0.7C126.3,242.4,126.2,242.6,126.2,242.8L126.2,242.8z"/>
															</g>
														</g>
													</g>
												</g>
											</g>
										</g>
									</g>
								</g>
							</g>
						</g>
					</g>
					<g>
						<g>
							<g>
								<g>
									<g>
										<path d="M125.5,241.4l0.1-0.1c0,0-0.3-0.7-1.6-1.2c-1.2-0.5-6.5-2.9-6.6-2.9l0,0.1c0.1,0,5.4,2.4,6.6,2.9
											C125.2,240.7,125.5,241.4,125.5,241.4z"/>
									</g>
								</g>
							</g>
						</g>
					</g>
				</g>
			</g>
			<g>
				<g>
					<g>
						<g>
							<g>
								<g>
									<g>
										<g>
											<g>
												<g>
													<path fill="#3AA1C9" d="M103,166.2c0.3,9,1.6,42.4,4.4,65.5c0.2,1.5,1.5,2.7,3,2.7c1.7,0,4.1-0.2,6.7-1
														c1.3-0.4,2.1-1.5,2.2-2.9l0.6-68.3c0-0.2,0-0.3,0-0.5l-0.1-0.3c-0.3-1.9-1.7-3.1-3.5-2.4l-11.3,4.3
														C103.8,163.7,103,164.9,103,166.2z"/>
												</g>
											</g>
										</g>
									</g>
								</g>
							</g>
						</g>
					</g>
				</g>
			</g>
			<g>
				<g>
					<g>
						<g>
							<g>
								<g>
									<g>
										<g>
											<g>
												<g>
													<path fill="#4CB7D8" d="M95.9,162L94,187.5c0,0-13.7,26.5-19,35.7c-0.6,1.1-0.4,2.5,0.6,3.3c1.4,1.1,3.7,2.6,6.7,3.7
														c1,0.4,2.2,0,2.8-0.8l24.5-34.6c0.7-0.9,1.2-1.9,1.4-3.1l6-25.5L95.9,162z"/>
												</g>
											</g>
										</g>
									</g>
								</g>
							</g>
						</g>
					</g>
				</g>
			</g>
		</g>
		<g>
			<g>
				<path fill="#ED2B47" d="M92.9,148.2c0,0-0.9,22.6,0,26.7c0,0,21.4,5,27.2,3.4c0,0-0.1-7.4,0.1-13.6c0.2-5.4,0.2-12.3-0.5-13.8
					C118.3,147.4,92.9,148.2,92.9,148.2z"/>
			</g>
		</g>
		<g>
			<g>
				<g>
					<g>
						<g>
							<g>
								<g>
									<g>
										<path fill="#FE9F73" d="M110.4,104.7c0,0,1.1,7.9,0.1,9.3c0,0-0.5,0.7-1.7,0.8l0.1,4.6l-5.6-0.6l-0.2-13.2
											c0,0,2.9-1.5,2.9-1.3C106,104.3,110.4,104.7,110.4,104.7z"/>
									</g>
								</g>
							</g>
						</g>
					</g>
				</g>
			</g>
			<g>
				<g>
					<g>
						<g>
							<g>
								<g>
									<g>
										<path fill="#FBFDFC" d="M107.7,111.7c0.7,0.1,1.5,0.1,1.5,0.1s-0.2,0.6-1,0.5C107.9,112.2,107.7,111.7,107.7,111.7z"/>
									</g>
								</g>
							</g>
						</g>
					</g>
				</g>
			</g>
			<g>
				<g>
					<g>
						<g>
							<g>
								<g>
									<g>
										<path fill="#F07162" d="M108.7,111.2C108.7,111.2,108.7,111.2,108.7,111.2C108.7,111.2,108.7,111.2,108.7,111.2
											c0.2-0.2,0.4-0.6,0.4-0.7c-0.3-0.2-0.5-0.6-0.6-0.9c-0.1-0.6,0.2-1.2,0.2-1.2c0,0,0,0,0,0c0,0,0,0,0,0.1
											c0,0-0.3,0.6-0.2,1.1c0.1,0.4,0.3,0.7,0.6,0.9l0,0l0,0C109.2,110.6,109,111.1,108.7,111.2
											C108.7,111.2,108.7,111.2,108.7,111.2z"/>
									</g>
								</g>
							</g>
						</g>
					</g>
				</g>
			</g>
			<g>
				<g>
					<g>
						<g>
							<g>
								<g>
									<g>
										<path fill="#F07162" d="M108.8,116.3l0-1.6c0,0-2.7-0.1-4.3-1.1C104.4,113.6,106.7,115.7,108.8,116.3z"/>
									</g>
								</g>
							</g>
						</g>
					</g>
				</g>
			</g>
			<g>
				<g>
					<g>
						<g>
							<g>
								<g>
									<g>
										<path fill="#49263E" d="M105.4,108.7C105.4,108.7,105.4,108.7,105.4,108.7c-0.1,0-0.1-0.1-0.1-0.2c0,0,0.9-1.4,2.4-0.8
											c0.1,0,0.1,0.1,0,0.1c0,0-0.1,0.1-0.1,0C106.3,107.5,105.5,108.6,105.4,108.7C105.5,108.7,105.4,108.7,105.4,108.7z"/>
									</g>
								</g>
							</g>
						</g>
					</g>
				</g>
			</g>
			<g>
				<g>
					<g>
						<g>
							<g>
								<g>
									<g>
										<path fill="#49263E" d="M110.7,108.4C110.7,108.4,110.7,108.4,110.7,108.4c0.1-0.1,0.1-0.1,0.1-0.2c0,0-0.6-0.7-1.5-0.5
											c-0.1,0-0.1,0.1,0,0.1c0,0,0.1,0,0.1,0C110.2,107.8,110.6,108.4,110.7,108.4C110.6,108.4,110.7,108.4,110.7,108.4z"/>
									</g>
								</g>
							</g>
						</g>
					</g>
				</g>
			</g>
			<g>
				<g>
					<g>
						<g>
							<g>
								<g>
									<g>
										<circle cx="106.8" cy="109.2" r="0.3"/>
									</g>
								</g>
							</g>
						</g>
					</g>
				</g>
			</g>
			<g>
				<g>
					<g>
						<g>
							<g>
								<g>
									<g>
										<circle cx="110" cy="109.1" r="0.3"/>
									</g>
								</g>
							</g>
						</g>
					</g>
				</g>
			</g>
		</g>
		<g>
			<g>
				<g>
					<g>
						<g>
							<g>
								<g>
									<g>
										<g>
											<g>
												<path fill="#21111D" d="M99.9,144C99.9,144,99.9,144,99.9,144l3.9,1.3c0.1,0,0.2,0,0.2-0.1c0-0.1,0-0.2-0.1-0.2
													l-3.9-1.3c-0.1,0-0.2,0-0.2,0.1C99.8,143.9,99.8,144,99.9,144z"/>
											</g>
										</g>
									</g>
								</g>
							</g>
						</g>
					</g>
				</g>
			</g>
		</g>
		<g>
			<g>
				<g>
					<g>
						<g>
							
								<rect x="129.7" y="78.7" transform="matrix(-0.9974 -7.222918e-002 7.222918e-002 -0.9974 262.7086 282.8937)" fill="#8DD6EB" width="13.6" height="116"/>
						</g>
					</g>
				</g>
				<g>
					<g>
						<g>
							
								<rect x="133.9" y="78.7" transform="matrix(-0.9974 -7.222851e-002 7.222851e-002 -0.9974 262.7087 282.8937)" fill="#4CB7D8" width="5.2" height="116"/>
						</g>
					</g>
				</g>
				<g>
					<g>
						<g>
							
								<rect x="126.3" y="182.4" transform="matrix(-0.9974 -7.222918e-002 7.222918e-002 -0.9974 252.4191 377.4103)" fill="#4CB7D8" width="13.6" height="3.4"/>
						</g>
					</g>
				</g>
				<g>
					<g>
						<g>
							<path fill="#FC4963" d="M131.8,200.7L131.8,200.7c3.7,0.3,7-2.5,7.3-6.3l0.6-8.1l-13.5-1l-0.6,8.1
								C125.3,197.2,128.1,200.5,131.8,200.7z"/>
						</g>
					</g>
				</g>
				<g>
					<g>
						<g>
							<path fill="#F7D6B2" d="M141.9,61.7l5.5,17.6l0,0c-0.1,1.1-1.1,2-2.2,1.9c-1.1-0.1-2-1.1-1.9-2.2c-0.1,1.1-1.3,2-2.7,1.9
								c-1.4-0.1-2.5-1.1-2.5-2.2c-0.1,1.1-1.1,2-2.2,1.9c-1.1-0.1-2-1.1-1.9-2.2l0,0L141.9,61.7z"/>
						</g>
					</g>
				</g>
				<g>
					<g>
						<g>
							<path fill="#FF424D" d="M143.7,67.6c0,0-2.2,1.5-4.5-0.3l2.7-5.5L143.7,67.6z"/>
						</g>
					</g>
				</g>
			</g>
			<g>
				<g>
					<g>
						<path d="M131.8,201c-3.6-0.3-5.2-2.3-5.8-4c-0.7-1.8-0.6-3.5-0.6-3.5l8.3-115.2l0,0l8.3-17.1l3.6,11.3l-0.4,0.1l-3.2-10.2
							l-7.7,16.1l-8.3,115.1c0,0-0.1,1.7,0.6,3.3c0.9,2.2,2.8,3.5,5.4,3.7L131.8,201z"/>
					</g>
				</g>
			</g>
			<g>
				<g>
					<g>
						
							<rect x="110" y="135.3" transform="matrix(-7.161079e-002 0.9974 -0.9974 -7.161079e-002 288.7451 2.2366)" width="66.8" height="0.5"/>
					</g>
				</g>
			</g>
			<g>
				<g>
					<g>
						<rect x="134.8" y="172.2" transform="matrix(0.8283 0.5603 -0.5603 0.8283 121.1028 -45.6576)" width="0.5" height="5.1"/>
					</g>
				</g>
			</g>
			<g>
				<g>
					<g>
						<rect x="134.3" y="192.3" transform="matrix(0.8283 0.5603 -0.5603 0.8283 131.665 -42.1167)" width="0.5" height="2.9"/>
					</g>
				</g>
			</g>
			<g>
				<g>
					<g>
						<rect x="134.5" y="194.8" transform="matrix(0.8283 0.5603 -0.5603 0.8283 133.1203 -41.7815)" width="0.5" height="2.9"/>
					</g>
				</g>
			</g>
			<g>
				<g>
					<g>
						<rect x="135.5" y="174.8" transform="matrix(0.8283 0.5603 -0.5603 0.8283 122.6964 -45.6106)" width="0.5" height="5.1"/>
					</g>
				</g>
			</g>
			<g>
				<g>
					<g>
						
							<rect x="126.1" y="185.6" transform="matrix(0.9973 7.402715e-002 -7.402715e-002 0.9973 14.1231 -9.3289)" width="13.6" height="0.5"/>
					</g>
				</g>
			</g>
		</g>
		<g>
			<g>
				<g>
					<g>
						<g>
							<g>
								<g>
									<g>
										<g>
											<g>
												<g>
													<g>
														<g>
															<g>
																<g>
																	<path fill="#FE9F73" d="M136.1,155.2c0.1-0.4-0.3-0.8-0.7-0.9l-2.6-0.4c-0.1,0-0.1-0.1-0.2-0.2l0,0
																		c0-0.1,0.1-0.2,0.2-0.2l3.9,0.1c0.4,0,0.7-0.3,0.7-0.8v0c-0.1-0.4-0.5-0.8-0.9-0.8l-3.9-0.1
																		c-0.1,0-0.2-0.1-0.2-0.2l0-0.1c0-0.1,0.1-0.2,0.2-0.2l4.3-0.8c0.4-0.1,0.7-0.5,0.7-0.9c-0.1-0.4-0.5-0.7-0.9-0.7
																		l-4.3,0.8c-0.1,0-0.2-0.1-0.2-0.2l0-0.2c0-0.1,0-0.2,0.1-0.2l3.9-1.2c0.4-0.1,0.7-0.6,0.6-1
																		c-0.1-0.4-0.6-0.7-1-0.5c0,0-5.9,1.5-6.8,1.7l0.1-1.4c-1,0-4,2.3-4,2.3c-0.2,0.2-0.1,0.8,0.1,1.2
																		c0.5,4.6,0.6,5.3,0.8,6.6l4.9-1c1.4-0.3,2.9-0.3,4.3-0.1l0.4,0.1C135.6,155.9,136,155.6,136.1,155.2z"/>
																</g>
															</g>
														</g>
													</g>
												</g>
											</g>
										</g>
									</g>
								</g>
							</g>
						</g>
					</g>
				</g>
			</g>
		</g>
		<g>
			<g>
				<g>
					<g>
						<g>
							<g>
								<g>
									<g>
										<path fill="#ED2B47" d="M98.2,117.5c3.1-0.2,11.3,0.2,11.3,0.2s1.1,0.4,0.7,0.2c8.8,2.4,6.3,9.1,6.3,9.1l2.6,19.4l8,0.9
											c1.3,3.1-0.5,11.1-0.5,11.1l-23.8,0.6c0,0-5.2,0.4-9-5.5c-2.5-3.9-2.6-15.2-1.8-23.4C91.8,130.1,93.4,117.7,98.2,117.5z"
											/>
									</g>
								</g>
							</g>
						</g>
					</g>
				</g>
			</g>
		</g>
		<g>
			<g>
				<g>
					<g>
						<g>
							<g>
								<g>
									<g>
										<g>
											<g>
												<path fill="#21111D" d="M119.1,146.5C119.1,146.5,119.2,146.5,119.1,146.5c0.2,0,0.2-0.1,0.2-0.2
													c0-0.1-1.9-12.2-2.3-16.3c0-0.1-0.1-0.1-0.2-0.1c-0.1,0-0.1,0.1-0.1,0.2c0.4,4.1,2.3,16.2,2.3,16.3
													C119,146.4,119.1,146.5,119.1,146.5z"/>
											</g>
										</g>
									</g>
								</g>
							</g>
						</g>
					</g>
				</g>
			</g>
		</g>
		<g>
			<g>
				
					<rect x="108.9" y="158.4" transform="matrix(-0.9996 2.689992e-002 -2.689992e-002 -0.9996 239.604 313.9563)" fill="#21111D" width="17.7" height="0.3"/>
			</g>
		</g>
		<g>
			<g>
				<path fill="#ED2B47" d="M103.4,143.1l0.5,2.1l3.8,0.3L100,158h-1.5l-2.7-2c0,0,0.9-12.6,1.1-12.5
					C97.1,143.5,103.4,143.1,103.4,143.1z"/>
			</g>
		</g>
		<g>
			<g>
				<g>
					<g>
						<g>
							<g>
								<g>
									<g>
										<g>
											<g>
												<path fill="#21111D" d="M98.6,158.2c0.3,0.2,0.7,0.3,1,0.4c1.8,0.6,3.1,0.5,3.1,0.5c0.1,0,0.1-0.1,0.1-0.2
													c0-0.1-0.1-0.1-0.2-0.1c0,0-1.3,0.1-3-0.5c-1.6-0.6-3.9-1.9-5.9-4.9c-2.5-3.8-2.5-14.8-1.9-23c0-0.1-0.1-0.2-0.1-0.2
													c-0.1,0-0.2,0.1-0.2,0.1c-0.7,8.3-0.6,19.4,1.9,23.2C95.2,156.1,97.1,157.5,98.6,158.2z"/>
											</g>
										</g>
									</g>
								</g>
							</g>
						</g>
					</g>
				</g>
			</g>
		</g>
		<g>
			<g>
				<g>
					<g>
						<g>
							<g>
								<g>
									<g>
										<g>
											<g>
												<path fill="#21111D" d="M98.7,145C98.7,145.1,98.7,145.1,98.7,145c0.3,0,21.4,1.2,28.3,2.4c0.1,0.5,0.7,2.9,0.1,7.1
													c0,0.1,0,0.2,0.1,0.2c0.1,0,0.2,0,0.2-0.1c0.7-4.8-0.1-7.3-0.2-7.4l0-0.1l-0.1,0c-6.8-1.2-28.1-2.3-28.3-2.4
													c-0.1,0-0.2,0.1-0.2,0.1C98.6,145,98.6,145,98.7,145z"/>
											</g>
										</g>
									</g>
								</g>
							</g>
						</g>
					</g>
				</g>
			</g>
		</g>
		<g>
			<g>
				<g>
					<g>
						<g>
							<g>
								<g>
									<g>
										<g>
											<g>
												<path fill="#21111D" d="M103.8,145.4C103.9,145.4,103.9,145.4,103.8,145.4c0.2,0,0.2-0.1,0.2-0.2
													c0-0.1-1.6-10.8-2.1-17.5c0-0.1-0.1-0.1-0.2-0.1c-0.1,0-0.1,0.1-0.1,0.2c0.5,6.7,2.1,17.4,2.1,17.5
													C103.8,145.3,103.8,145.3,103.8,145.4z"/>
											</g>
										</g>
									</g>
								</g>
							</g>
						</g>
					</g>
				</g>
			</g>
		</g>
		<path fill="#ED2B47" d="M92.5,170.8c-1.7,19.4-2.1,17-2.1,17c-9.2,11.9-21,39-21,39c24.8,16,52.8,11.8,52.8,11.8
			c-1.9-53.1-1.8-79.9-1.8-79.9C103.7,160.1,93.5,160.1,92.5,170.8z"/>
		<path fill="#49263E" d="M111.7,110.9c0.2-3.7,0-7.9-4.7-8.9c-5.2-0.5-7.5,0.8-8,4.7c-0.4,3.2,0.4,8.7-3.3,11.8
			c7.3,12.3,18.4,7.4,17.6-0.5C110.8,115.1,111.5,114.6,111.7,110.9z M110.8,111.7c-0.1,1.4-0.8,3.2-3.2,2.9
			c-1.8-0.3-2.7-2.5-2.7-3.9c0-1.4,0.2-4,3.6-5.4c0,0,1.4,0.6,2,1.9C110.9,108,110.9,110.3,110.8,111.7z"/>
		<g>
			<g>
				<path fill="#FE9F73" d="M148.5,93.6c0,0.5-0.3,0.8-0.4,0.8l-2.8,0.2c-0.3,0-0.7-0.3-0.7-0.8c0-0.5,0.2-1,0.6-1l2.8-0.2
					C148,92.7,148.5,93.1,148.5,93.6z"/>
			</g>
			<g>
				<path fill="#FE9F73" d="M148.6,95.2c0,0.5-0.2,1-0.3,1l-3,0.3c-0.3,0-0.7-0.3-0.7-0.8c0-0.5,0.2-1,0.6-1l3.1-0.3
					C148.2,94.4,148.5,94.7,148.6,95.2z"/>
			</g>
			<g>
				<path fill="#FE9F73" d="M148.3,97c0,0.5-0.2,0.9-0.3,0.9l-2.8,0.3c-0.3,0-0.6-0.3-0.7-0.7c-0.1-0.5,0.2-0.9,0.5-0.9l2.9-0.3
					C148,96.3,148.3,96.4,148.3,97z"/>
			</g>
			<g>
				<g>
					<path fill="#F07162" d="M148.3,94.6c0.1,0,0.1-0.1,0.1-0.2c0-0.1-0.1-0.2-0.1-0.2l-3,0.2c-0.3,0-0.5-0.3-0.6-0.6
						c0-0.2,0-0.4,0.1-0.5c0.1-0.2,0.2-0.2,0.4-0.3l2.8-0.2c0.1,0,0.1-0.1,0.1-0.2c0-0.1-0.1-0.2-0.1-0.2l-2.8,0.2
						c-0.2,0-0.4,0.1-0.5,0.4c-0.1,0.2-0.2,0.5-0.2,0.8c0,0.5,0.4,0.9,0.8,0.9L148.3,94.6C148.3,94.6,148.3,94.6,148.3,94.6z"/>
				</g>
			</g>
			<g>
				<path fill="#FE9F73" d="M148.2,91.7c0,0.5-0.2,1-0.3,1l-3,0.2c-0.3,0-0.6-0.3-0.7-0.7c-0.1-0.5,0.2-1,0.6-1l2.8-0.2
					C147.9,91,148.2,91.4,148.2,91.7z"/>
			</g>
			<g>
				<g>
					<path fill="#F07162" d="M147.9,92.9c0.1,0,0.1-0.1,0.1-0.2c0-0.1-0.1-0.2-0.1-0.2l-3,0.3c-0.3,0-0.5-0.2-0.6-0.6
						c0-0.2,0-0.4,0.1-0.5c0.1-0.2,0.2-0.2,0.4-0.3l2.8-0.2c0.1,0,0.1-0.1,0.1-0.2c0-0.1-0.1-0.2-0.1-0.2l-2.8,0.2
						c-0.2,0-0.4,0.2-0.5,0.4c-0.1,0.2-0.2,0.5-0.2,0.8c0.1,0.5,0.4,0.9,0.8,0.9L147.9,92.9C147.9,92.9,147.9,92.9,147.9,92.9z"/>
				</g>
			</g>
			<g>
				<g>
					<path fill="#F07162" d="M148.2,96.3c0.1,0,0.1-0.1,0.1-0.2c0-0.1-0.1-0.2-0.1-0.2l-2.9,0.3c-0.3,0-0.5-0.2-0.5-0.6
						c0-0.2,0-0.4,0.1-0.5c0.1-0.2,0.2-0.2,0.4-0.3l3.1-0.3c0.1,0,0.1-0.1,0.1-0.2c0-0.1-0.1-0.2-0.1-0.2l-3.1,0.3
						c-0.2,0-0.4,0.2-0.5,0.4c-0.1,0.2-0.2,0.5-0.2,0.8c0.1,0.5,0.4,0.9,0.8,0.9L148.2,96.3C148.2,96.3,148.2,96.3,148.2,96.3z"/>
				</g>
			</g>
			<g>
				<g>
					<path fill="#F07162" d="M148.1,97.9c0.1,0,0.1-0.1,0.1-0.2c0-0.1-0.1-0.2-0.1-0.2l-2.8,0.3c-0.3,0-0.5-0.2-0.5-0.6
						c0-0.2,0-0.4,0.1-0.5c0.1-0.1,0.2-0.2,0.3-0.2l2.9-0.3c0.1,0,0.1-0.1,0.1-0.2c0-0.1-0.1-0.2-0.1-0.2l-2.9,0.3
						c-0.2,0-0.4,0.2-0.5,0.4c-0.1,0.2-0.2,0.5-0.1,0.8c0.1,0.5,0.4,0.9,0.8,0.8L148.1,97.9C148.1,97.9,148.1,97.9,148.1,97.9z"/>
				</g>
			</g>
		</g>
	</g>
</g>
</svg>
