<?xml version="1.0" encoding="utf-8"?>
<!-- Generator: Adobe Illustrator 19.0.0, SVG Export Plug-In . SVG Version: 6.00 Build 0)  -->
<svg version="1.1" xmlns="http://www.w3.org/2000/svg" xmlns:xlink="http://www.w3.org/1999/xlink" x="0px" y="0px"
	 viewBox="0 0 500 500" enable-background="new 0 0 500 500" xml:space="preserve">
<g id="BACKGROUND">
	<linearGradient id="SVGID_1_" gradientUnits="userSpaceOnUse" x1="46.6964" y1="261.9153" x2="475.6959" y2="261.9153">
		<stop  offset="0" style="stop-color:#F493E9"/>
		<stop  offset="0.644" style="stop-color:#CD85F6"/>
		<stop  offset="1" style="stop-color:#BC7FFC"/>
	</linearGradient>
	<path opacity="0.26" fill="url(#SVGID_1_)" d="M204.9,142.2c25.9-4.5,52.3-8.2,77.1-17.1c26.3-9.4,47.6-30.5,75.5-35.3
		c26.9-4.6,55.7,3.6,76.6,21c28.6,23.8,42.7,62.3,41.5,99.4s-16.6,72.9-38.4,103c-28.5,39.3-65.5,72.3-109.4,92.7
		C260.7,437.1,148.2,454,87.1,401c-32.9-28.6-45.4-76.1-38.6-119.2c12.8-80.7,78.5-125.8,154-139.2
		C203.3,142.5,204.1,142.4,204.9,142.2z"/>
	<path fill="none" d="M521,170c0,0.3,0,0.7,0,1"/>
</g>
<g id="OBJECTS">
	<g>
		<path fill="#1F5277" d="M340.5,426c-3.9-0.5-6.2-6.9-5.3-11.4c0.9-4.5,3.9-7.9,6.9-10.9c3-3,6.2-6.1,7.7-10.3
			c2.8-7.8-0.9-17.8,3.2-24.8c4.6-7.7,16.2-7.3,19.2-16c1.4-4.1,0-9.1,1.6-13.2c5.8-14.8,24.9-12.7,27.8-25.7
			c2.5,6-0.1,13.1-3.2,18.7c-3.1,5.6-6.9,11.2-7.2,17.8c-0.4,9.5,6.5,18.7,3.8,27.7c-2.2,7.1-9.7,10.8-11.3,18.1
			c-1.1,5,1.1,10.1,2,15.2c0.9,5.1-0.6,10.5-4.9,11.7L340.5,426z"/>
		
			<path fill="none" stroke="#FFFFFF" stroke-width="1.0767" stroke-linecap="round" stroke-linejoin="round" stroke-miterlimit="10" d="
			M395.5,327.8c-7.9,5.5-13.7,14.9-15.6,25.4c-1.4,7.7-0.8,16-3.5,23.2c-2.9,7.8-9.4,13.3-12.3,21.1c-2.8,7.5-2,16-1.1,24.1"/>
	</g>
	<g>
		<path fill="#1F5277" d="M102.4,422.6c-3.4-0.9-4.9-4.9-5-8.3c-0.1-3.5,0.8-7,0-10.4c-2.6-10.4-18.5-12.4-21.5-22.7
			c-2.8-10,8.9-19.8,6.2-29.8c-1.6-6-7.9-9.6-10.9-15.1c-3.5-6.7-1.7-14.7-0.4-22.2c1.2-7.4,1.2-16.3-4.7-21
			c9.2,2.4,16.9,10,19.2,19.2c1.3,5.3,1.3,11.5,5.4,15c2.9,2.5,7.2,3,10.3,5.2c4.2,2.9,5.7,8.4,6.4,13.4c0.7,5.1,0.9,10.4,3.4,14.8
			c5.3,9.1,18.1,10.3,25.9,17.5c7.9,7.2,8.9,20.8,2.2,29.1L102.4,422.6z"/>
		<path fill="none" stroke="#FFFFFF" stroke-linecap="round" stroke-linejoin="round" stroke-miterlimit="10" d="M78.1,315.1
			c-1.7,7,1.4,14.4,5.2,20.5c3.8,6.2,8.5,12,10.3,19.1c1.6,5.8,1.1,12.1,3.1,17.8c2.4,6.7,8,11.7,12.5,17.2
			c4.6,5.5,8.4,12.7,6.2,19.5"/>
	</g>
	<g>
		<path fill="#6295B2" d="M119.2,431c3.7-1.4,4.6-7.3,2.7-10.8s-5.5-5.6-9-7.4c-3.5-1.8-7.3-3.6-9.6-6.8c-4.3-5.9-2.9-15.1-8.4-19.9
			c-6.1-5.3-17.3-2.2-22-8.7c-2.3-3.1-2-7.6-4.4-10.6c-8.8-11-26.9-4.5-32.4-14.7c-1.1,5.6,2.8,11,7,14.9c4.2,3.9,9.1,7.7,10.8,13.1
			c2.4,7.8-2.4,17.3,2.2,24.1c3.6,5.4,11.7,6.6,14.8,12.3c2.1,3.9,1.1,8.7,1.2,13.2s2.8,8.7,7.2,8.6L119.2,431z"/>
		<path fill="none" stroke="#FFFFFF" stroke-linecap="round" stroke-linejoin="round" stroke-miterlimit="10" d="M45.2,362.4
			c8.8,2.6,16.5,9.1,20.5,17.4c3,6.1,4.1,13.2,8.3,18.6c4.5,5.8,11.9,8.8,16.4,14.6c4.3,5.6,5.3,12.9,6.2,19.9"/>
	</g>
	<g>
		<path fill="#6295B2" d="M344,417.3c-0.3-2.5,2.1-4.5,4.5-5.5c2.4-1,5.1-1.3,7.2-2.7c6.6-4.4,3.8-15.6,10.2-20.2
			c6.2-4.5,16.1,0.8,22.4-3.6c3.8-2.7,4.6-7.8,7.7-11.2c3.7-4.1,9.8-4.9,15.4-6c5.5-1.1,11.7-3.4,13.4-8.6
			c0.8,6.8-2.6,13.9-8.4,17.8c-3.3,2.3-7.7,3.9-9.1,7.5c-1,2.6-0.2,5.5-0.9,8.2c-1,3.6-4.4,6-7.7,7.7s-7,3.3-9.4,6.1
			c-5,5.9-2.5,14.8-5.4,21.9c-3,7.2-12.1,11.3-19.7,9L344,417.3z"/>
		
			<path fill="none" stroke="#FFFFFF" stroke-width="0.7304" stroke-linecap="round" stroke-linejoin="round" stroke-miterlimit="10" d="
			M412.6,373.1c-5.4,0.7-9.7,4.7-13,8.8c-3.3,4.1-6.2,8.8-10.6,11.8c-3.7,2.6-8.2,3.9-11.6,6.7c-4.1,3.4-6.1,8.4-8.7,12.8
			c-2.6,4.5-6.7,8.9-12,9.2"/>
	</g>
	<g>
		<path fill="#3C4A75" d="M360.5,216.6c0,52.5,0,216.2,0,216.2H111.4c0,0,0-163.7,0-216.2c0-38.9,29.5-48,29.5-48
			c6.6-88.5,72.5-69.1,94.5-117.8c0.2-0.4,0.4-0.9,0.6-1.3c0.2,0.4,0.4,0.9,0.6,1.3c22,48.7,87.9,29.3,94.5,117.8
			C331,168.6,360.5,177.7,360.5,216.6z"/>
		<path fill="#FFB641" d="M254.7,167.8c4.6,9.6,14.4,16.2,25.7,16.2c15.8,0,28.5-12.8,28.5-28.5c0-9.8-5-18.5-12.5-23.6
			c1.8,3.7,2.8,7.9,2.8,12.4c0,15.8-12.8,28.5-28.5,28.5C264.8,172.7,259.3,170.9,254.7,167.8z"/>
		<g>
			<polygon fill="#FFB641" points="168.8,204.1 165.6,205 168.8,205.9 169.7,209.1 170.6,205.9 173.7,205 170.6,204.1 169.7,201 			
				"/>
			<polygon fill="#FFB641" points="319.4,329.3 316.2,330.2 319.4,331.1 320.3,334.3 321.2,331.1 324.4,330.2 321.2,329.3 
				320.3,326.1 			"/>
			<polygon fill="#FFB641" points="256.8,237.7 255.5,238.1 256.8,238.4 257.2,239.7 257.5,238.4 258.8,238.1 257.5,237.7 
				257.2,236.4 			"/>
			<polygon fill="#FFB641" points="235.6,357.4 234.3,357.8 235.6,358.1 235.9,359.4 236.3,358.1 237.6,357.8 236.3,357.4 
				235.9,356.2 			"/>
			<polygon fill="#FFB641" points="129,351.9 127.7,352.3 129,352.7 129.4,353.9 129.7,352.7 131,352.3 129.7,351.9 129.4,350.7 			
				"/>
			<polygon fill="#FFB641" points="331.7,213 330.4,213.4 331.7,213.7 332,215 332.4,213.7 333.6,213.4 332.4,213 332,211.8 			"/>
			<polygon fill="#FFB641" points="130.6,232.2 129.4,232.6 130.6,233 131,234.2 131.3,233 132.6,232.6 131.3,232.2 131,231 			"/>
			<polygon fill="#FFB641" points="222.7,185.2 221.4,185.6 222.7,185.9 223.1,187.2 223.4,185.9 224.7,185.6 223.4,185.2 
				223.1,184 			"/>
			<polygon fill="#FFB641" points="324,270.7 322.8,271.1 324,271.4 324.4,272.7 324.8,271.4 326,271.1 324.8,270.7 324.4,269.4 			
				"/>
			<polygon fill="#FFB641" points="169.3,126.6 168,126.9 169.3,127.3 169.7,128.6 170,127.3 171.3,126.9 170,126.6 169.7,125.3 			
				"/>
			<polygon fill="#FFB641" points="224.3,85.9 223.1,86.3 224.3,86.7 224.7,87.9 225,86.7 226.3,86.3 225,85.9 224.7,84.7 			"/>
			<polygon fill="#FFB641" points="315.2,394.8 313.9,395.1 315.2,395.5 315.5,396.7 315.9,395.5 317.2,395.1 315.9,394.8 
				315.5,393.5 			"/>
			<polygon fill="#FFB641" points="248,135.3 244.8,136.2 248,137.1 248.9,140.3 249.8,137.1 253,136.2 249.8,135.3 248.9,132.2 			
				"/>
			<polygon fill="#FFB641" points="257.9,296 254.7,296.9 257.9,297.8 258.8,301 259.7,297.8 262.9,296.9 259.7,296 258.8,292.9 			
				"/>
		</g>
		<path opacity="0.36" fill="#3C4A75" d="M360.5,216.6c0,52.5,0,216.2,0,216.2h-9.6c0,0,0-163.7,0-216.2c0-38.9-28.4-48-28.4-48
			c-6.2-86.2-66.3-70.1-89-114c0.7-1.2,1.3-2.5,1.9-3.8c0.2-0.4,0.4-0.9,0.6-1.3c0.2,0.5,0.4,0.9,0.6,1.3
			c22,48.7,87.9,29.3,94.5,117.8C331,168.6,360.5,177.7,360.5,216.6z"/>
	</g>
	<g>
		<path fill="#6295B2" d="M199.8,288.2c-9.4,5.5,1.2,61.4,3.6,65.5c1.6,2.8,5,3.2,6.9,2.5c6.1-2.4,12-17.2,12.7-19.9
			c0.9-3.3-2-11.5-7-8.3c-1.3,0.9-2.2,1.1-2.2,1.1s2-23.9,0.6-32.1C213,288.9,206.1,284.5,199.8,288.2z"/>
		<path opacity="0.36" fill="#6295B2" d="M200.2,341.1c1.3,6.7,2.5,11.5,3.2,12.7c1.6,2.8,5,3.2,6.8,2.5c6.1-2.4,12-17.2,12.7-19.9
			c0.4-1.4,0.1-3.6-0.8-5.5c-0.1,0.1-0.2,0.1-0.3,0.2c-2.9,1.5-5.5,3.4-8.5,4.7c-1.5,0.7-3.1,1.2-4.8,1.4c-1.4,0.2-3-0.3-4.3,0
			C202.4,337.6,201,339.3,200.2,341.1z"/>
		<path fill="#6295B2" d="M124.2,432.8c23,0,112.4,0,121.5,0c3.2-4.1,2.9-20.5,2.5-25.8c-0.3-4.7-3.1-10.7-6.8-13.2
			c-2.6-1.8-25.8-15.1-32.2-19.1c-7.5-4.7-1.6-51.4-4.5-64.5c-2.3-10.3-3.4-15.3-13.3-18.9c-14.2-5.1-33.1,0.2-46.8,5.3
			c-11.9,4.4,3,53.8,3.2,58c0.5,10.2-3.7,13.6-6.9,19.7c-0.2,0.3-0.3,0.5-0.4,0.8c-3.8,7.7-3.8,26.8-2,32.8
			c1.6,5.4-1.8,9.7-6.5,11.8C124.3,423.1,118.9,432,124.2,432.8z"/>
		<path opacity="0.36" fill="#6295B2" d="M147.2,361.5c0.3,0.2,0.5,0.4,0.8,0.5c3.9,2.5,8.8,3.3,13.4,2.3c8.9-2.1,15.6-11,24.7-11.3
			c6.9-0.2,12.8,4.4,18.7,7.9c0.2,0.1,0.5,0.3,0.7,0.4c-1-16.2,1.2-41.9-0.8-51c-2.3-10.3-3.4-15.3-13.3-18.9
			c-14.2-5.1-33.1,0.2-46.8,5.3c-11.9,4.4,3,53.8,3.2,58C147.8,357.3,147.6,359.6,147.2,361.5z"/>
		<path fill="#6295B2" d="M137,290.8c-5.2,4.1,0.9,57.5,2.8,61.2c1.5,2.9,16.4-21.5,16.4-21.5s-0.8-23.5-2.2-31.7
			C152.7,290.7,142.5,286.6,137,290.8z"/>
		<path fill="#FFFFFF" d="M204.7,248.1c0.5-6.9-3.1-17.7-18.5-21c-14-3-28.1,4.9-28.9,33.2c-0.2,8.1,3.5,21,3.5,21
			s-17.8,5.2-23.7,9.6c13.3-4.6,17.3,8.5,26.8,26.3c9.5,17.8,19.7,18.6,22.7,17.4c3-1.1,30.2-39,23.5-45.7
			c-3.5-3.6-14.6-3.9-16.2-6.8C189.8,274.7,202.9,273.9,204.7,248.1z"/>
		<path opacity="0.63" fill="#E4EFF4" d="M163.4,293.6c3.1,3.5,6.3,6.3,6.7,11.2c0.2,3.1-9.7-3.1-10.2-3.5
			c-3.6-2.8,6.2,10.8,16.4,14c6.5,2.1,15.6,1.4,20.1-7.4c4.5-8.8-3.6,2.1-9.4,2.3c-5.8,0.3-1.8,0.1,4-4.5c5.8-4.7,7.6-10.1,8.3-13.5
			c0.7-3.4-2.7,6.1-8.5,8.1c-5.8,2.1-3.8-0.8,1.2-8c2.2-3.1,3.1-6.3,3.4-9c-0.7-0.4-1.2-0.8-1.5-1.2c-1.1-1.9-1-3.4-0.2-5
			c-4,0.3-14.8,0.7-17.9-2c-3.9-3.4-10.3-13.1-10.3-13.1s0.8,10.6,7.2,18c-0.3-0.1-4.6-1.9-7.2-4.9c0.2,0.4,3.5,6.8,5.3,8
			c-0.4-0.1-7.3-2.5-8.8-4c0.2,0.3,4.1,5.7,10.6,8.5c0,0-1.8,1.8-14.6-1.8C145.3,282.2,158.6,288.3,163.4,293.6z"/>
		<path fill="#F7A38F" d="M182.7,281.1c-7.8-1.3-14.9-14-14.1-22.9c0.8-7.8,7-16.7,15.9-15.5c8.9,1.3,15.9,2.8,18.4,4.4
			C206.4,249.3,198.1,283.6,182.7,281.1z"/>
		<path fill="#6295B2" d="M172.1,248.9c0,0,22.1-6.3,31.5,3.1c0,0,1.8-8.7-7.3-12.4C187.8,236,175.1,242.4,172.1,248.9z"/>
		<path fill="#6295B2" d="M139.8,352.1c1.5,2.9,9.1,7,12,5.3c1.5-0.8,13.4-10.9,14.5-13.3c5.6-1.6,3.3-21.7-1.6-18.4
			c-4.9,3.3-8.5,4.9-8.5,4.9S137.9,348.4,139.8,352.1z"/>
		<path opacity="0.36" fill="#6295B2" d="M212.4,390c5.4,2.3,11,5,12.5,10.8c-4.8-5.8-12.5-8.7-20-11.6c-13.2-5-27.1-10.1-44.1-7.5
			c7.1-3.2,13.8-2.6,20-1.8c3.4,0.4,6.8,0.9,10.4,0.7c2.7-0.1,7.5-2,9-0.5c1.8,1.8,2.5,4.3,4.7,5.9
			C207.2,387.6,209.8,388.8,212.4,390z"/>
		<path opacity="0.36" fill="#6295B2" d="M124.2,432.8h121.5c3.2-4.1,2.9-20.5,2.5-25.8c-0.2-3.1-1.5-6.8-3.4-9.6
			c2.9,11.9-3.2,25.5-17.3,13.7c3.1,5.7-2.5,9.6-8.9,10.4c-34.2,4.6-78.9,3.8-77.7-33c0.1-3.3,0.1-9.7,0.3-14.9
			c-0.1,0.2-0.2,0.4-0.4,0.7c-0.2,0.3-0.3,0.5-0.4,0.8c-3.8,7.7-3.8,26.8-2,32.8c1.6,5.4-1.8,9.7-6.5,11.8
			C124.3,423.1,118.9,432,124.2,432.8z"/>
		<path fill="#4689AA" d="M164.8,325.7c-1.4,1.7-1.1,13.1-0.3,16.6c0.4,2,3.6,2.5,4.5-2.1C170.3,333.6,166.3,323.8,164.8,325.7z"/>
		<g>
			<g>
				<path fill="#E4EFF4" d="M232.6,318.3l-2.5-3.8c0,0-12.8,1.3-19.6,9.1c0,0-7.6-13.5-20.8-16.6l-4.7,5.5l23.4,20L232.6,318.3z"/>
				<polygon opacity="0.36" fill="#E4EFF4" points="189.7,307.1 187.9,311.5 185.8,311.7 				"/>
				<path fill="#1F5277" d="M208.2,328.3c0,0-9-14.3-23-18.9l-11.6,18.7l19.2,19.9l5.4,1.1c0,0,12.6-8.4,20.8-7.8l15.6-24
					c0,0-15.5,2.1-23,11.7L208.2,328.3z"/>
			</g>
			<path fill="#F7A38F" d="M229.8,324.8c0,0-6.4,0.8-7.7,1.1c-1.2,0.2-1.4,2.6-0.5,2.6l5-0.2c0,0-3.9,0.4-5.5,0.4
				c-1.6,0.1-2.4,2.7-0.7,3c1.7,0.3,2.7,0.2,2.7,0.2s-1,0.1-2.2,0c-1.2-0.1-2.3,2.5-0.6,2.7c0.4,0,0.9,0.1,0.9,0.1s-1,2.1,0.4,2.2
				c1.4,0.1,2.3,0.2,3-0.2c0.7-0.3,1.4-1.3,1.3-2c0,0,2.6-1.5,1.9-2.5c0,0,2.8-1.9,2-3.4c0,0,2.5-2.2,2-3.8
				c-0.5-1.5-1.1-1.7-1.1-1.7L229.8,324.8z"/>
			<path fill="#F68B64" d="M185.4,325c-1-0.7-1.8-1.2-1.8-1.2C183.5,323.9,184.3,324.4,185.4,325z"/>
			<g>
				<path fill="#F7A38F" d="M164.5,342.3c0,0,7.7-7.6,9-8.8c0.2-0.2,0.6,0,0.9-0.1c0.7-0.3,1.2-0.2,2.6,0.5c1.3,0.6,4.9,2.2,6.9,3.1
					c1.3,0.5,2-1.3,1.1-1.9c-1.2-0.9-5.6-3.3-6.4-3.7c1,0.5,6.4,3.1,9.3,4.5c1.6,0.8,3.3-0.8,1.4-2.4c-1.1-0.9-4.2-3-6.2-4.3
					c2.5,1.4,6.9,3.5,9.1,4.6c0.7,0.4,3.2-1.5,1.2-3c-2.2-1.7-8.4-5.2-10-6c1.3,0.7,6.4,3.4,9.2,4.6c1.9,0.9,3-1.5,1.3-2.8
					c-2.3-1.7-7.7-5-10.6-7.4c-1.6-1.3-1.6-3.8-1.6-3.8c0,0-4.7,0.5-6.3,2l-10.4,8.3C164.8,325.6,161,329.8,164.5,342.3z
					 M181.2,327.8c0,0,0.7,0.5,1.8,1.2C181.8,328.4,181.1,327.9,181.2,327.8z"/>
				<path opacity="0.36" fill="#F7A38F" d="M164.5,342.3c0,0,7.7-7.6,9-8.8c0,0-2.7-1.8-3-4.5c0,0-0.9,2.4,0.7,4.5l-6.9,5.9
					c0,0-2.2-9.4,0.4-13.7l0,0C164.4,326.1,161.2,330.6,164.5,342.3z"/>
			</g>
		</g>
		<path opacity="0.36" fill="#6295B2" d="M156.3,330.5c0,0-11.3-2.8-15.2,13.2c0,0,2.4-7.2,5.6-8.1c0,0-2,3-1.4,7.4
			C145.3,343.1,146.5,333.4,156.3,330.5z"/>
	</g>
	<g>
		<path fill="#1F5277" d="M287.2,370.6c0,0-5.6-30.4-4.5-36.8c1.1-6.5,10-10.4,14.3-7c4.1,3.2-4,71-4,71L275,393L287.2,370.6z"/>
		<path fill="#6295B2" d="M354.2,432.8c-18.1,0-88.7,0-95.9,0c-2.5-3.2-2.3-16.2-2-20.3c0.3-3.7,2.4-8.5,5.4-10.4
			c2-1.4,20.5-11.7,25.4-15.1c10.2-7-0.2-31.8,3.6-44.9c2.3-8,2.7-12.1,10.5-14.9c11.2-4.1,26.1,3.2,37,7.2
			c9.4,3.5-2.3,33.5-2.5,36.8c-0.4,8.1,2.9,10.7,5.5,15.5c0.1,0.2,0.2,0.4,0.3,0.7c3,6.1,3,21.1,1.6,25.9c-1.3,4.3,1.5,7.7,5.1,9.3
			C354.1,425.2,358.3,432.2,354.2,432.8z"/>
		<path fill="#1F5277" d="M354.2,432.8c-18.1,0-88.7,0-95.9,0c-2.5-3.2-2.3-16.2-2-20.3c0.3-3.7,2.4-8.5,5.4-10.4
			c2-1.4,20.5-11.7,25.4-15.1c10.2-7-0.2-31.8,3.6-44.9c2.3-8,2.7-12.1,10.5-14.9c11.2-4.1,26.1,3.2,37,7.2
			c9.4,3.5-2.3,33.5-2.5,36.8c-0.4,8.1,2.9,10.7,5.5,15.5c0.1,0.2,0.2,0.4,0.3,0.7c3,6.1,3,21.1,1.6,25.9c-1.3,4.3,1.5,7.7,5.1,9.3
			C354.1,425.2,358.3,432.2,354.2,432.8z"/>
		<path opacity="0.36" fill="#1F5277" d="M354.2,432.8h-95.9c-2.5-3.2-2.3-16.2-2-20.4c0.1-1.8,0.7-3.8,1.6-5.6
			c-0.5,8.6,4.9,17.1,14.8,8.8c-2.5,4.5,2,7.6,7.1,8.2c27,3.6,63.7-11.6,56.7-27.2c-2.3-5-13.9-0.9-20.9,4.8
			c-6.6,5.4-16,14.3-22.6,7.5c-2-2.1,7.1-9.3,4.3-8.7c-10.3,2.2-15.2,5.5-24,11.4c2.1-4.2,5.9-7.3,9.8-9.9c3.9-2.6,8.5-7.2,8.9-17.2
			c1.8,8.4,13.3,8.9,21.7-1.7c9.1-11.3,15.1-25.6,13.7-40c-2.5,7.4-10.9,18.7-19.2,19.9c-4.4,0.7-13.9-10.9-16.2-14.7
			c0.6,8,0.4,16.8-0.2,24.8c0.2-2.9-0.2-6.3-0.8-9.7c-0.9-7.6,0.1-16.4-0.8-18.5c-1.2-2.8-8.3-13.5-2.7-17.4
			c9.8-6.8,39.9,2.9,50.7,6.9c9.4,3.5-2.3,33.5-2.5,36.8c-0.4,8.1,2.9,10.7,5.5,15.5c0.1,0.2,0.2,0.4,0.3,0.7c3,6.1,3,21.1,1.6,25.9
			c-1.3,4.3,1.4,7.7,5.1,9.3C354.1,425.2,358.3,432.2,354.2,432.8z"/>
		<path opacity="0.36" fill="#1F5277" d="M288.2,386c-0.5,3.1-1.5,6-3.5,8.3c-1.4,1.7-3.3,2.9-4.5,4.8c-0.7,1.1-1.2,2.5-2,3.6
			c-1.2,1.6-3.2,2.6-5.1,3.3c-2.2,0.8-4.5,1.4-6.9,1.8c-1.6,0.2-3.5,0.3-4.4-1c-0.9-1.3-0.3-3.8,0.4-5.1c0,0,0-0.1,0.1-0.1
			c4-2.4,20.2-11.5,24.7-14.6C287.5,386.7,287.9,386.4,288.2,386z"/>
		<g>
			<path fill="#F7A38F" d="M306.7,393.8c0,0-2.3,3.3-3.4,4c-1.5,1-5.2,1.7-6.3,3.1c-0.9,1.1-2.3,4.5-4,7c-0.4,0.6,2.1,0.8,2.1,0.8
				s-0.1,0.2-0.5,1c-0.1,0.2,2.8,1.1,3.8-0.8c0,0,1.6,1.2,2.8,0.1c0.6-0.6,0.9-0.8,0.9-0.8s1.2,0.9,2.1,0c0.4-0.4,2.1-2,2.8-2.3
				c0.7-0.3,2.5-0.7,3.5-1.7c1.1-1,1.2-2.1,1.7-2.5c0.4-0.4,4-3.8,4-3.8L306.7,393.8z"/>
			<path opacity="0.36" fill="#F7A38F" d="M294.5,408.7l4.9-6.7c0,0-0.8,2-1.4,2.9c-0.6,0.9-2.9,3.9-2.9,3.9L294.5,408.7z"/>
			<path opacity="0.36" fill="#F7A38F" d="M298.4,408.9l3.4-5.9l-4.5,6.9C297.3,410,297.8,409.9,298.4,408.9z"/>
			<polygon opacity="0.36" fill="#F7A38F" points="302,408.2 305.2,403.9 301.1,409 			"/>
		</g>
		<g>
			<path fill="#F7A38F" d="M270.1,394.6c1.1-1.1,2.7-3.1,2.7-3.1l7,4.1c0,0-1.8,2.6-2.1,3.2c-0.4,0.7-0.9,3-2.3,4.3
				c-0.9,0.8-4.5,2.6-5,2.6c-0.5,0-0.6-1.5,0.8-2.2c0.8-0.4,0.9-0.9,0.9-0.9s-1.5,0.6-2.2,1.1c-0.7,0.5-3.4,3.6-4.6,3.9
				c-1.2,0.3-1.1-0.5-1.1-0.5s-0.6,0.9-1.8,0.8c-1.2-0.1-0.2-1.4-0.2-1.4s-0.9,0.3-1.1-0.3c-0.2-0.6,1.3-2.7,1.3-2.7s-1-0.2-0.6-0.8
				c0.4-0.6,2.1-3.6,3-4.4C265.7,397.5,269.3,395.4,270.1,394.6z"/>
			<path opacity="0.36" fill="#F7A38F" d="M264.3,407l3.9-5.2c0,0-0.4-0.1-0.6,0.3C267.4,402.4,264.3,407,264.3,407z"/>
			<path opacity="0.36" fill="#F7A38F" d="M262.4,406.5l4.2-5.7c0,0-0.9,0.7-1,0.8C265.5,401.7,262.4,406.5,262.4,406.5z"/>
			<path opacity="0.36" fill="#F7A38F" d="M262.5,403.5l2.9-3.8c0,0-1.5,1.4-1.6,1.6S262.5,403.5,262.5,403.5z"/>
		</g>
		<path fill="#1F5277" d="M326,369.9c0,0,3.5-30.4,4.6-36.8c1.1-6.5,9.2-6.7,13.5-3.3c4.1,3.2-1.2,43.7-2.7,46.6
			c-2.9,5.4-26.7,23.9-26.7,23.9s-4.8-7.5-10.1-4L326,369.9z"/>
		<path fill="#FFFFFF" d="M292.8,290.5c1.1-13.5,9-16.4,15.9-16.7c11.3-0.5,20.7,7.4,19.9,23.5c-0.3,6.4-3.3,21.8-3.3,21.8
			s14.1,7.1,18.7,10.6c-10.5-3.7-13.7,3.7-21.1,17.8c-7.5,14.1-14.4,13.6-16.9,13.7c-6.1,0.1-24.9-27.7-19.6-33
			c2.8-2.8,11.6-6,12.8-8.3C300,318.3,290.9,313.2,292.8,290.5z"/>
		<path opacity="0.63" fill="#E4EFF4" d="M314,337.7c-0.5,2.4,7.9-2.5,8.4-2.8c3.1-2.2-5.9,8.5-14.2,11.1
			c-5.3,1.6-12.4,1.1-15.2-5.8c-2.8-7,2.6,1.6,7.2,1.9c4.5,0.2,1.4,0.1-2.7-3.6c-4.1-3.7-5-7.9-5.3-10.7c-0.2-2.7,1.6,4.8,6,6.4
			c4.4,1.6,3.1-0.6-0.2-6.3c-1.3-2.1-1.7-4.4-1.8-6.3c1.6-0.5,2.8-1,3.2-1.8c0.6-1.1-4.3-4.3-6-15.1c5.4,2.8,16.8,11.3,19,9.5
			c3.3-2.6,9.1-10,9.4-10.3c-0.1,0.5-1.8,8.5-7.4,14.2c0.2-0.1,3.8-1.5,6.1-3.8c-0.4,0.6-3.4,5.4-4.9,6.2c0.4-0.1,6-2,7.3-3.1
			c-0.2,0.3-3.8,4.5-9.2,6.7c0,0,1.3,1.4,11.7-1.4c10.4-2.8-0.6,2-4.9,6.2C317.5,331.6,314.7,333.9,314,337.7z"/>
		<path fill="#F7A38F" d="M303.2,317.7c7.5,1.2,15.1-5.7,16.9-13.5c1.6-6.8,2.1-15.8-6.4-17.4c-8.5-1.6-15.4-2.3-18.1-1.8
			C291.8,285.8,288.4,315.2,303.2,317.7z"/>
		<path fill="#1F5277" d="M321.1,295c0,0-16.2-11.4-27.8-5.7c0,0,0.9-8.4,10.4-8C313.3,281.7,321.1,289.5,321.1,295z"/>
		<path fill="#1F5277" d="M285.6,370.5c-0.3,1.5-14.6,22.9-14.6,22.9l8,5.4c0,0,9.9-11.9,11.6-17.2c0.8-2.4-5.7-25.3-5.7-25.3
			S286.3,367,285.6,370.5z"/>
		<path opacity="0.36" fill="#1F5277" d="M288.1,386.4c0,0,1.9-5.5,1.5-9.5c-0.4-4-3.5-5.9-3.5-5.9s3.8,1.6,4,2.9
			c0,0-0.2-2.2-1.4-3.2c0,0,2.5,2,2.9,3.3c0.5,1.3,0,10,0,10s-0.7-1.7-1-0.9C290.4,383.9,288.1,386.4,288.1,386.4z"/>
	</g>
	<rect x="75.4" y="432.8" fill="#1F5277" width="300.4" height="6.9"/>
</g>
</svg>
