<?xml version="1.0" encoding="utf-8"?>
<!-- Generator: Adobe Illustrator 19.0.0, SVG Export Plug-In . SVG Version: 6.00 Build 0)  -->
<svg version="1.1" xmlns="http://www.w3.org/2000/svg" xmlns:xlink="http://www.w3.org/1999/xlink" x="0px" y="0px"
	 viewBox="0 0 500 500" enable-background="new 0 0 500 500" xml:space="preserve">
<g id="BACKGROUND">
</g>
<g id="OBJECTS">
	<path opacity="0.25" fill="#8D5FBD" d="M187,99.5c25.9-4.5,52.3-8.2,77.1-17.1c26.3-9.4,47.6-30.5,75.5-35.3
		c26.9-4.6,55.7,3.6,76.6,21c28.6,23.8,42.7,62.3,41.5,99.4s-16.6,72.9-38.4,103c-28.5,39.3-65.5,72.3-109.4,92.7
		c-67.1,31.1-179.6,48.1-240.7-4.9c-32.9-28.6-45.4-76.1-38.6-119.2c12.8-80.7,78.5-125.8,154-139.2C185.4,99.8,186.2,99.6,187,99.5
		z"/>
	<g>
		<path fill="#285672" d="M330.9,178.8v245.7H182.3V178.8c0-41,33.3-74.3,74.3-74.3C297.6,104.5,330.9,137.8,330.9,178.8z"/>
		<path fill="#285672" d="M458.8,216.5v208.7h-115V216.5c0-31.8,25.7-57.5,57.5-57.5S458.8,184.7,458.8,216.5z"/>
		<path fill="#285672" d="M169,216.5v208.7H54V216.5c0-31.8,25.8-57.5,57.5-57.5S169,184.7,169,216.5z"/>
		<g>
			<path fill="#F0AD1D" d="M239.7,176.9c-9.9-9.9-9.9-25.9,0-35.8c7.2-7.2,17.7-9.2,26.7-5.8c-5.4-0.2-10.8,1.7-14.9,5.8
				c-7.8,7.8-7.8,20.5,0,28.3s20.5,7.8,28.3,0c0.6-0.6,1.2-1.2,1.7-1.9c-1.2,3.4-3.2,6.6-5.9,9.4
				C265.6,186.7,249.6,186.7,239.7,176.9z"/>
			<path fill="#E59D0E" d="M274.2,178.1c-9.9,8.7-25,8.3-34.5-1.2c-9.9-9.9-9.9-25.9,0-35.8c1.2-1.2,2.6-2.3,4-3.3
				c-0.4,0.4-0.9,0.8-1.3,1.2c-9.9,9.9-9.9,25.9,0,35.8C251.1,183.4,264.4,184.5,274.2,178.1z"/>
		</g>
		<g>
			<defs>
				<path id="SVGID_1_" d="M256.6,104.5L256.6,104.5c-41,0-74.3,33.3-74.3,74.3v245.7h148.6V178.9
					C330.9,137.8,297.6,104.5,256.6,104.5z"/>
			</defs>
			<clipPath id="SVGID_2_">
				<use xlink:href="#SVGID_1_"  overflow="visible"/>
			</clipPath>
			<path clip-path="url(#SVGID_2_)" fill="#3D738E" d="M153.4,194.9h92.8c0,0-1.4-18.1-24.2-12.7c0,0-3.3-8.9-16-8.2
				c-12.7,0.7-13.5,10.4-13.5,10.4s-1.4-3.7-6.4-3.2c-4.4,0.4-5.7,4.5-5.7,4.5S162,184.5,153.4,194.9z"/>
			<path clip-path="url(#SVGID_2_)" fill="#3D738E" d="M265.8,219.2h92.8c0,0-1.4-18.1-24.2-12.7c0,0-3.3-8.9-16-8.2
				c-12.7,0.7-13.5,10.4-13.5,10.4s-1.4-3.7-6.4-3.2c-4.4,0.4-5.7,4.5-5.7,4.5S274.3,208.8,265.8,219.2z"/>
		</g>
		<g>
			<path fill="#1F4C63" d="M157.5,323.3v53.3h-13.6v-83h3.2c1.5,0,2.8-1.2,2.8-2.8v-7.5c0-0.9-0.4-1.7-1.1-2.2l0.1-0.1
				c4.8-4.8,6.5-12,4.4-18.4c-2.3-7-8.1-8.9-13.2-13.2c-4-3.4-7.4-7.5-10.1-11.9c0,0-1.5-2.4-1.5-2.4c-4.4,8.1-10.7,14.1-18.3,19.1
				c-9.1,6-9.6,19.3-2.1,26.9c0,0,0,0,0.1,0.1c-0.6,0.5-1,1.3-1,2.1v7.5c0,1.5,1.2,2.8,2.8,2.8h3.3v103.3c0,0,0,0,0,0v28.2H169
				v-38.9v-9.6v-70.5C162.2,308.9,157.5,315.5,157.5,323.3z"/>
			<path fill="#1F4C63" d="M328.4,276.9c-6.3-19.5-22.8-24.8-37-37.1c-11.1-9.6-20.8-20.9-28.4-33.4l-4.1-6.8
				c-12.2,22.7-29.9,39.6-51.3,53.6c-17.5,11.4-23.7,32.6-19.1,51.6h-6.2v72v9.6v38.3h148.6v-38.3v-9.6v-72h-1.6
				C331.6,295.6,331.4,285.9,328.4,276.9z"/>
			<path fill="#1F4C63" d="M407.1,281.2L407.1,281.2c4.8-4.8,6.6-12,4.5-18.5c-2.3-7-8.1-8.9-13.2-13.2c-4-3.4-7.4-7.5-10.1-11.9
				c0,0-1.5-2.4-1.5-2.4c-4.4,8.1-10.7,14.1-18.3,19.1c-9.1,6-9.6,19.3-2.1,26.9c0,0,0,0,0.1,0.1c-0.6,0.5-1,1.3-1,2.1v7.5
				c0,1.5,1.2,2.8,2.8,2.8h3.3v83h-13.6v-53.3c0-8.7-5.9-16-14-18v71.4v9.6v38.9h58.3V397c0,0,0,0,0,0V293.6h3.2
				c1.5,0,2.8-1.2,2.8-2.8v-7.5C408.2,282.5,407.8,281.7,407.1,281.2z"/>
		</g>
		<g>
			<defs>
				<path id="SVGID_3_" d="M169,216.5v208.7H54V216.5c0-31.8,25.8-57.5,57.5-57.5S169,184.7,169,216.5z"/>
			</defs>
			<clipPath id="SVGID_4_">
				<use xlink:href="#SVGID_3_"  overflow="visible"/>
			</clipPath>
			<path clip-path="url(#SVGID_4_)" fill="#3D738E" d="M38,248.3h65.2c0,0-1-12.7-17-8.9c0,0-2.3-6.3-11.3-5.8
				c-8.9,0.5-9.5,7.3-9.5,7.3s-1-2.6-4.5-2.2c-3.1,0.3-4,3.1-4,3.1S44.1,241,38,248.3z"/>
			<path clip-path="url(#SVGID_4_)" fill="#3D738E" d="M100.1,286.1h65.2c0,0-1-12.7-17-8.9c0,0-2.3-6.3-11.3-5.8s-9.5,7.3-9.5,7.3
				s-1-2.6-4.5-2.2c-3.1,0.3-4,3.1-4,3.1S106.1,278.8,100.1,286.1z"/>
		</g>
		<g>
			<defs>
				<path id="SVGID_5_" d="M343.9,216.5v208.7h115V216.5c0-31.8-25.8-57.5-57.5-57.5S343.9,184.7,343.9,216.5z"/>
			</defs>
			<clipPath id="SVGID_6_">
				<use xlink:href="#SVGID_5_"  overflow="visible"/>
			</clipPath>
			<path clip-path="url(#SVGID_6_)" fill="#3D738E" d="M474.8,248.3h-65.2c0,0,1-12.7,17-8.9c0,0,2.3-6.3,11.3-5.8
				c8.9,0.5,9.5,7.3,9.5,7.3s1-2.6,4.5-2.2c3.1,0.3,4,3.1,4,3.1S468.8,241,474.8,248.3z"/>
			<path clip-path="url(#SVGID_6_)" fill="#3D738E" d="M406.7,272.8h-65.2c0,0,1-12.7,17-8.9c0,0,2.3-6.3,11.3-5.8
				c8.9,0.5,9.5,7.3,9.5,7.3s1-2.6,4.5-2.2c3.1,0.3,4,3.1,4,3.1S400.6,265.5,406.7,272.8z"/>
		</g>
	</g>
	<path opacity="0.5" fill="#A6E2E2" d="M402.8,467.8H221.6c-3.9,0-7.1-3.2-7.1-7.1l0,0c0-3.9,3.2-7.1,7.1-7.1h181.2
		c3.9,0,7.1,3.2,7.1,7.1l0,0C409.9,464.7,406.7,467.8,402.8,467.8z"/>
	<g>
		<path opacity="0.5" fill="#A6E2E2" d="M178.5,467.4H52.6c-1.6,0-3-1.3-3-3l0,0c0-1.6,1.3-3,3-3h125.9c1.6,0,3,1.3,3,3l0,0
			C181.4,466.1,180.1,467.4,178.5,467.4z"/>
		<g>
			<g>
				<path fill="#F9A11B" d="M103.4,464.3c0,0-11.7-20.9-39.5-10.4C63.9,453.9,79.5,474.2,103.4,464.3z"/>
				<path fill="#EA8023" d="M100.2,463.4c0,0-14-6.4-33-8.7C67.2,454.8,78.6,459.7,100.2,463.4z"/>
			</g>
			<g>
				<path fill="#F9A11B" d="M103.4,464.3c0,0,5.2-33.1-34.4-45.5C69,418.7,68.6,454.4,103.4,464.3z"/>
				<path fill="#EA8023" d="M100.6,460.5c0,0-9.8-19.1-28.7-38C71.9,422.5,80.2,437.8,100.6,460.5z"/>
			</g>
			<g>
				<path fill="#F9A11B" d="M103.4,464.3c0,0,17.3-19.6-3.5-44.4C99.9,419.9,84.6,443.2,103.4,464.3z"/>
				<path fill="#EA8023" d="M103.1,460.6c0,0,1.6-16.7-2.9-37.1C100.2,423.5,99.2,437.1,103.1,460.6z"/>
			</g>
		</g>
		<g>
			<rect x="104.5" y="394.8" fill="#448B87" width="44.5" height="63"/>
			<rect x="115.7" y="394.8" fill="#82E097" width="22.1" height="63"/>
			<g>
				<path fill="#409694" d="M141.6,375.6c-0.2-0.1-0.3-0.3-0.5-0.4c-3.3-2.7-6.3-5.6-9.2-8.7c-1.2-1.3-2.3-2.5-3.5-3.8
					c-0.4-0.4-1.2-1.8-1.8-2c-4.6,5.1-9.1,10-14.4,14.4c-2.6,2.2-5.2,4.5-6.9,7.3c-2.5,4.1-1.9,7.8-0.9,12.2H149
					c1-4.5,1.6-8.1-1-12.3C146.4,379.8,144,377.6,141.6,375.6z"/>
				<path fill="#69CE9F" d="M134.1,373.7c-1.1-1.9-2.3-3.7-3.4-5.7c-0.8-1.5-1.7-3.1-2.5-4.7c-0.2-0.3-0.8-1.6-1.4-2.6
					c-1.3,2.3-2.6,4.7-3.8,7c-2.2,4.1-5.2,7.9-6.9,12.4c-1,2.5-1.6,5.1-1.5,7.8c0,2.3,0.8,4.6,1.2,6.9h11h11c0.5-2.5,1.3-5,1.3-7.5
					c0-3-1-6-2.3-8.8C136,376.8,135,375.2,134.1,373.7z"/>
			</g>
			<polygon fill="#409694" points="151.3,464.5 102.1,464.5 104.5,457.8 149,457.8 			"/>
			<polygon fill="#69CE9F" points="138.9,464.5 114.5,464.5 115.7,457.8 137.7,457.8 			"/>
			<path fill="#FDFFCA" d="M131.5,450l-3.1,3.5c-0.8,0.9-2.3,0.9-3.2,0L122,450c-2.6-2.9-4.1-6.7-4.1-10.7v-26.2
				c0-3.9,1.5-7.7,4.1-10.7l3.1-3.5c0.8-0.9,2.3-0.9,3.2,0l3.1,3.5c2.6,2.9,4.1,6.7,4.1,10.7v26.2
				C135.5,443.3,134.1,447.1,131.5,450z"/>
			<path fill="#FDFFCA" d="M112.6,448.7l-1.1,2.9c-0.5,1.3-2.3,1.3-2.7,0l-1.1-2.9c-0.8-2.2-1.2-4.4-1.2-6.8v-31.5
				c0-2.3,0.4-4.6,1.2-6.8l1.1-2.9c0.5-1.3,2.3-1.3,2.7,0l1.1,2.9c0.8,2.2,1.2,4.4,1.2,6.8V442C113.8,444.3,113.4,446.6,112.6,448.7
				z"/>
			<path fill="#FDFFCA" d="M145.8,448.7l-1.1,2.9c-0.5,1.3-2.3,1.3-2.7,0l-1.1-2.9c-0.8-2.2-1.2-4.4-1.2-6.8v-31.5
				c0-2.3,0.4-4.6,1.2-6.8l1.1-2.9c0.5-1.3,2.3-1.3,2.7,0l1.1,2.9c0.8,2.2,1.2,4.4,1.2,6.8V442C147,444.3,146.6,446.6,145.8,448.7z"
				/>
		</g>
	</g>
	<path fill="#2F7F62" d="M296.6,322.6c8.9,5.4-0.3,61.4-2.4,65.6c-1.5,2.8-4.7,3.3-6.4,2.6c-5.8-2.3-11.5-17.1-12.2-19.7
		c-0.9-3.3,1.8-11.6,6.4-8.4c1.3,0.9,2.1,1.1,2.1,1.1s-2.3-23.9-1.1-32.1C284.3,323.4,290.7,319,296.6,322.6z"/>
	<path opacity="0.36" fill="#2F7F62" d="M297,375.5c-1.1,6.7-2.2,11.6-2.8,12.7c-1.5,2.8-4.7,3.3-6.4,2.6
		c-5.8-2.3-11.5-17.1-12.2-19.7c-0.4-1.4-0.1-3.6,0.6-5.5c0.1,0.1,0.2,0.1,0.3,0.2c2.7,1.5,5.3,3.3,8.1,4.6c1.4,0.7,3,1.1,4.5,1.3
		c1.3,0.1,2.8-0.4,4-0.1C294.9,372,296.2,373.7,297,375.5z"/>
	<path fill="#2F7F62" d="M369.8,466c-21.6,0.3-105.6,1.7-114.2,1.8c-3.1-4.1-3-20.4-2.7-25.7c0.2-4.7,2.8-10.8,6.2-13.3
		c2.4-1.8,24-15.5,30-19.6c6.9-4.8,0.8-51.4,3.4-64.5c2-10.4,2.9-15.4,12.3-19.1c13.3-5.4,31.1-0.3,44.1,4.6c11.3,4.2-2,53.9-2.2,58
		c-0.3,10.2,3.6,13.5,6.8,19.6c0.1,0.3,0.3,0.5,0.4,0.8c3.7,7.6,3.9,26.7,2.3,32.8c-1.4,5.5,1.9,9.7,6.3,11.7
		C369.6,456.3,374.7,465.2,369.8,466z"/>
	<path opacity="0.36" fill="#2F7F62" d="M347.2,395.1c-0.2,0.2-0.5,0.4-0.7,0.5c-3.6,2.6-8.3,3.5-12.5,2.5
		c-8.4-2-14.8-10.8-23.4-10.9c-6.5-0.1-11.9,4.6-17.5,8.1c-0.2,0.1-0.5,0.3-0.7,0.4c0.7-16.2-1.7-41.8,0.1-51
		c2-10.4,2.9-15.4,12.3-19.1c13.3-5.4,31.1-0.3,44.1,4.6c11.3,4.2-2,53.9-2.2,58C346.6,390.9,346.8,393.1,347.2,395.1z"/>
	<path fill="#2F7F62" d="M355.7,324.3c5,4-0.1,57.5-1.8,61.2c-1.4,3-15.7-21.3-15.7-21.3s0.4-23.5,1.6-31.7
		C341,324.3,350.6,320.1,355.7,324.3z"/>
	<path fill="#FFFFFF" d="M291.5,282.5c-0.6-6.9,2.7-17.8,17.1-21.3c13.2-3.2,26.5,4.5,27.7,32.8c0.3,8.1-3,21-3,21
		s16.9,4.9,22.5,9.3c-12.6-4.4-16.1,8.8-24.8,26.7c-8.6,17.9-18.2,18.9-21.1,17.8c-2.9-1.1-28.9-38.5-22.8-45.4
		c3.3-3.6,13.6-4.1,15.1-7C305.9,308.9,293.6,308.3,291.5,282.5z"/>
	<path opacity="0.63" fill="#E4EFF4" d="M331,327.4c-2.9,3.5-5.8,6.4-6.1,11.3c-0.2,3.1,9.1-3.3,9.5-3.7c3.3-2.9-5.7,10.9-15.2,14.3
		c-6.1,2.2-14.6,1.7-19-7.1c-4.4-8.7,3.4,2,8.8,2.2c5.4,0.2,1.7,0.1-3.8-4.5c-5.5-4.6-7.3-9.9-8-13.4c-0.7-3.4,2.7,6,8.1,8
		c5.5,2,3.6-0.9-1.3-8c-2.1-3-3-6.3-3.4-9c0.7-0.4,1.1-0.8,1.4-1.3c1-2,0.9-3.4,0.1-5c3.8,0.2,13.9,0.5,16.8-2.3
		c3.6-3.5,9.5-13.2,9.5-13.2s-0.6,10.6-6.5,18.1c0.3-0.1,4.3-1.9,6.7-5c-0.2,0.4-3.2,6.9-4.9,8c0.4-0.1,6.8-2.6,8.2-4.1
		c-0.2,0.3-3.8,5.8-9.9,8.7c0,0,1.7,1.8,13.7-2C347.9,315.7,335.4,322.1,331,327.4z"/>
	<path fill="#E09386" d="M312.6,315.2c7.3-1.4,13.8-14.2,12.9-23.1c-0.8-7.8-6.8-16.6-15.2-15.2c-8.4,1.4-14.9,3.1-17.2,4.7
		C289.9,283.8,298.2,317.9,312.6,315.2z"/>
	<path fill="#2F7F62" d="M322.1,282.9c0,0-20.8-6-29.6,3.5c0,0-1.8-8.7,6.7-12.6C307.2,270.2,319.2,276.4,322.1,282.9z"/>
	<path fill="#2F7F62" d="M353.9,385.5c-1.4,3-8.5,7.1-11.2,5.5c-1.4-0.8-12.7-10.7-13.8-13.1c-5.3-1.6-3.4-21.7,1.2-18.5
		c4.7,3.2,8.1,4.8,8.1,4.8S355.7,381.8,353.9,385.5z"/>
	<path opacity="0.36" fill="#2F7F62" d="M286.2,424.5c-5,2.4-10.3,5.2-11.6,11c4.5-5.8,11.6-8.9,18.6-11.9
		c12.4-5.2,25.4-10.5,41.3-8.1c-6.7-3-13-2.4-18.8-1.5c-3.2,0.5-6.4,1-9.8,0.9c-2.6-0.1-7-1.9-8.4-0.4c-1.7,1.8-2.3,4.4-4.4,6
		C291.1,422.1,288.6,423.3,286.2,424.5z"/>
	<path opacity="0.36" fill="#2F7F62" d="M369.8,466l-114.2,1.8c-3.1-4.1-3-20.4-2.7-25.7c0.2-3.1,1.3-6.8,3.1-9.7
		c-2.6,12,3.3,25.5,16.5,13.4c-2.8,5.7,2.5,9.5,8.6,10.3c32.2,4,74.2,2.7,72.5-34.2c-0.1-3.3-0.3-9.7-0.5-14.9
		c0.1,0.2,0.2,0.4,0.3,0.7c0.1,0.3,0.3,0.5,0.4,0.8c3.7,7.6,3.9,26.7,2.3,32.8c-1.4,5.5,1.9,9.7,6.3,11.7
		C369.6,456.3,374.7,465.1,369.8,466z"/>
	<path fill="#276B51" d="M330.1,359.5c1.3,1.7,1.2,13.1,0.5,16.6c-0.4,2-3.3,2.6-4.3-2C325.1,367.5,328.6,357.7,330.1,359.5z"/>
	<g>
		<g>
			<path fill="#E4EFF4" d="M266.3,353.2l2.3-3.8c0,0,12,1.1,18.6,8.8c0,0,7-13.6,19.4-16.9l4.5,5.4l-21.7,20.3L266.3,353.2z"/>
			<polygon opacity="0.36" fill="#E4EFF4" points="306.5,341.3 308.2,345.7 310.2,345.9 			"/>
			<path fill="#4A9589" d="M289.3,362.8c0,0,8.3-14.4,21.4-19.3l11.1,18.6L304,382.2l-5.1,1.2c0,0-12-8.2-19.7-7.5l-15-23.8
				c0,0,14.6,1.8,21.8,11.3L289.3,362.8z"/>
		</g>
		<path fill="#E09386" d="M269,359.6c0,0,6.1,0.7,7.3,1c1.1,0.2,1.4,2.5,0.5,2.6l-4.7-0.1c0,0,3.6,0.3,5.2,0.4c1.6,0,2.3,2.7,0.7,3
			c-1.6,0.3-2.5,0.3-2.5,0.3s1,0,2.1,0c1.1-0.1,2.2,2.5,0.6,2.7c-0.4,0-0.8,0.1-0.8,0.1s1,2.1-0.3,2.2c-1.3,0.1-2.2,0.2-2.9-0.1
			c-0.7-0.3-1.3-1.3-1.2-2c0,0-2.4-1.5-1.9-2.5c0,0-2.6-1.8-2-3.3c0,0-2.4-2.2-1.9-3.7c0.5-1.6,1-1.7,1-1.7L269,359.6z"/>
		<path fill="#F68B64" d="M310.7,359.2c1-0.7,1.7-1.2,1.7-1.2C312.5,358.1,311.8,358.5,310.7,359.2z"/>
		<g>
			<path fill="#E09386" d="M330.7,376.1c0,0-7.4-7.5-8.6-8.7c-0.2-0.2-0.6,0-0.8-0.1c-0.7-0.3-1.1-0.2-2.4,0.5
				c-1.2,0.6-4.5,2.3-6.5,3.2c-1.3,0.6-1.9-1.3-1.1-1.9c1.1-0.9,5.2-3.4,6-3.8c-0.9,0.5-6,3.2-8.7,4.7c-1.5,0.8-3.1-0.8-1.3-2.3
				c1-0.9,3.9-3,5.7-4.4c-2.3,1.4-6.5,3.6-8.5,4.8c-0.7,0.4-3-1.4-1.2-3c2.1-1.7,7.9-5.3,9.3-6.2c-1.3,0.7-5.9,3.5-8.5,4.8
				c-1.7,0.9-2.8-1.5-1.2-2.8c2.1-1.7,7.2-5.1,9.9-7.5c1.5-1.4,1.4-3.8,1.4-3.8c0,0,4.4,0.4,6,1.9l9.9,8.1
				C330.1,359.4,333.7,363.6,330.7,376.1z M314.7,361.9c0,0-0.7,0.5-1.7,1.2C314.1,362.5,314.8,362,314.7,361.9z"/>
			<path opacity="0.36" fill="#E09386" d="M330.7,376.1c0,0-7.4-7.5-8.6-8.7c0,0,2.5-1.8,2.7-4.6c0,0,0.9,2.4-0.6,4.5l6.5,5.8
				c0,0,1.9-9.4-0.6-13.7l0,0C330.5,359.9,333.6,364.4,330.7,376.1z"/>
		</g>
	</g>
	<path opacity="0.36" fill="#2F7F62" d="M338.2,364.2c0,0,10.6-3,14.5,13c0,0-2.4-7.1-5.4-8c0,0,1.9,3,1.4,7.4
		C348.6,376.7,347.4,366.9,338.2,364.2z"/>
</g>
</svg>
