<?xml version="1.0" encoding="utf-8"?>
<!-- Generator: Adobe Illustrator 19.0.0, SVG Export Plug-In . SVG Version: 6.00 Build 0)  -->
<svg version="1.1" id="Layer_1" xmlns="http://www.w3.org/2000/svg" xmlns:xlink="http://www.w3.org/1999/xlink" x="0px" y="0px"
	 width="370px" height="300px" viewBox="0 0 370 300" enable-background="new 0 0 370 300" xml:space="preserve">
<path id="XMLID_276_" fill="#FF7373" d="M345.3,300H24.8C11.1,300,0,288.9,0,275.3V24.8C0,11.1,11.1,0,24.8,0h320.5
	C358.9,0,370,11.1,370,24.8v250.5C370,288.9,358.9,300,345.3,300z"/>
<g id="XMLID_275_">
	<circle id="XMLID_449_" fill="#FFFFFF" cx="137.1" cy="97" r="52.8"/>
	<circle id="XMLID_448_" fill="#FFFFFF" cx="268.1" cy="108.5" r="48.1"/>
	<g id="XMLID_426_">
		<polygon id="XMLID_447_" fill="#FFD2A6" points="210,171.3 85.1,243.4 21.2,206.5 146.1,134.4 		"/>
		<polygon id="XMLID_446_" fill="#F7A961" points="204,171.4 85.2,240 27.1,206.4 145.9,137.8 		"/>
		<polygon id="XMLID_445_" fill="#FFFFFF" points="197.5,170.3 84.1,235.8 33.3,206.5 146.8,141 		"/>
		<path id="XMLID_444_" fill="#D32424" d="M58,192.2c-5.7,3.3,4.9,17.6,4.2,24.8c-0.1,1.4-0.9,2.5-2,3.3c1.4-0.6,3.3-1.1,5.8-1.2
			c12.5-0.4,37.1,5.7,42.8,2.4c6.9-4,88.7-51.2,88.7-51.2L146.8,141C146.8,141,64.9,188.3,58,192.2z"/>
		<polygon id="XMLID_443_" fill="#F23B3B" points="191.5,170 107.7,218.4 63.5,192.9 147.3,144.5 		"/>
		<polygon id="XMLID_442_" fill="#FFB25E" points="186.4,170 132.9,200.9 93.2,178 146.6,147.1 		"/>
		<g id="XMLID_433_">
			<g id="XMLID_438_">
				<polygon id="XMLID_441_" fill="#FFB25E" points="86.4,193.8 77.5,198.9 67.2,193 76.1,187.8 				"/>
				<polygon id="XMLID_440_" fill="#FFB25E" points="101.1,202.3 92.2,207.4 81.9,201.5 90.8,196.3 				"/>
				<polygon id="XMLID_439_" fill="#FFB25E" points="115.8,210.8 106.9,215.9 96.6,210 105.5,204.8 				"/>
			</g>
			<g id="XMLID_434_">
				<polygon id="XMLID_437_" fill="#FFB25E" points="99.4,186.3 90.5,191.4 80.1,185.5 89.1,180.3 				"/>
				<polygon id="XMLID_436_" fill="#FFB25E" points="114.1,194.8 105.2,199.9 94.9,194 103.8,188.8 				"/>
				<polygon id="XMLID_435_" fill="#FFB25E" points="128.8,203.3 119.9,208.4 109.6,202.5 118.5,197.3 				"/>
			</g>
		</g>
		<path id="XMLID_432_" fill="#F23B3B" d="M79.6,191.7c1.9,1.1,2.1,2.7,0.5,3.7c-1.6,0.9-4.5,0.8-6.3-0.3c-1.9-1.1-2.1-2.7-0.5-3.7
			C74.9,190.5,77.8,190.6,79.6,191.7z"/>
		<path id="XMLID_431_" fill="#F23B3B" d="M92.7,184.2c1.9,1.1,2.1,2.7,0.5,3.7c-1.6,0.9-4.5,0.8-6.3-0.3c-1.9-1.1-2.1-2.7-0.5-3.7
			C88,183,90.8,183.1,92.7,184.2z"/>
		<path id="XMLID_430_" fill="#F23B3B" d="M94.4,200.2c1.9,1.1,2.1,2.7,0.5,3.7c-1.6,0.9-4.5,0.8-6.3-0.3c-1.9-1.1-2.1-2.7-0.5-3.7
			C89.7,199,92.5,199.1,94.4,200.2z"/>
		<path id="XMLID_429_" fill="#F23B3B" d="M107.4,192.7c1.9,1.1,2.1,2.7,0.5,3.7c-1.6,0.9-4.5,0.8-6.3-0.3c-1.9-1.1-2.1-2.7-0.5-3.7
			C102.7,191.5,105.5,191.6,107.4,192.7z"/>
		<path id="XMLID_428_" fill="#F23B3B" d="M109.1,208.7c1.9,1.1,2.1,2.7,0.5,3.7c-1.6,0.9-4.5,0.8-6.3-0.3c-1.9-1.1-2.1-2.7-0.5-3.7
			C104.4,207.5,107.2,207.6,109.1,208.7z"/>
		<path id="XMLID_427_" fill="#F23B3B" d="M122.1,201.2c1.9,1.1,2.1,2.7,0.5,3.7c-1.6,0.9-4.5,0.8-6.3-0.3c-1.9-1.1-2.1-2.7-0.5-3.7
			C117.4,200,120.3,200.1,122.1,201.2z"/>
	</g>
	<g id="XMLID_389_">
		<polygon id="XMLID_425_" fill="#FFFFFF" points="349,182 213.9,260 144.8,220.1 279.9,142.1 		"/>
		<polygon id="XMLID_424_" fill="#7FA0DD" points="342.5,182.1 214.1,256.3 151.2,220 279.7,145.9 		"/>
		<polygon id="XMLID_423_" fill="#FFB25E" points="335.4,180.9 212.8,251.7 158,220.1 280.6,149.3 		"/>
		<g id="XMLID_390_">
			<g id="XMLID_401_">
				<path id="XMLID_422_" fill="#F23B3B" d="M328,180.3l-64,36.9c-5.2,2.4-18.4,8.1-33.5,11.6c-22.9,5.2-38.6,2.8-38.6,2.8
					s-4.3-8.6,4.9-22.3c5.9-8.8,15.9-16.4,20.1-19.4l64-36.9L328,180.3z"/>
				<path id="XMLID_402_" fill="#FFC68D" d="M191.4,231.9l0.3,0c0.2,0,16.1,2.4,39-2.8c15.3-3.5,28.7-9.3,33.7-11.7l64.5-37.2
					l-48-27.7l-64.4,37.2c-4.2,2.9-14.3,10.6-20.3,19.5c-9.2,13.7-4.9,22.4-4.9,22.5L191.4,231.9z M326.6,180.6l-63,36.4
					c-4.9,2.3-18.1,8.1-33.3,11.5c-20.8,4.8-35.7,3.1-37.9,2.8c-0.5-1.3-3.4-9.5,4.9-21.9c5.9-8.8,15.9-16.4,20-19.3l62.9-36.3
					L326.6,180.6z"/>
			</g>
			<g id="XMLID_396_">
				<path id="XMLID_400_" fill="#7FA0DD" d="M320.5,175.9l-64,36.9c-4.4,2.1-14.4,6.6-25.6,9.6c-17.5,4.7-28.8,3.5-28.8,3.5
					s-2.2-6.1,6.1-16.6c5.1-6.5,13-12.3,16.6-14.8l64-36.9L320.5,175.9z"/>
				<path id="XMLID_397_" fill="#FFC68D" d="M201.1,226.6l0.7,0.1c0.5,0.1,11.9,1.2,29.6-3.6c11.1-3,21-7.4,25.9-9.7l0.1-0.1
					l64-36.9l-33.3-19.2l-64,37c-4.1,2.8-11.7,8.5-16.8,15c-8.4,10.6-6.3,16.8-6.2,17.1L201.1,226.6z M255.8,212.4
					c-3.9,1.9-14.1,6.5-25.2,9.5c-14.4,3.9-24.5,3.7-27.3,3.5c-0.3-1.5-0.7-7.2,6.1-15.7c5.1-6.4,13.1-12.3,16.4-14.5l62.9-36.3
					l30,17.3L255.8,212.4z"/>
			</g>
			<path id="XMLID_395_" fill="#FFFFFF" d="M315.6,174.2l-62,35.8c-3.6,1.8-11.9,5.5-20.9,8.2c-14.2,4.2-23,3.5-23,3.5
				s-1.3-4.8,6-13.3c4.5-5.2,11.1-10,14.2-12.1l62-35.8L315.6,174.2z"/>
			<ellipse id="XMLID_394_" fill="#FFFFFF" cx="178.3" cy="220" rx="10.2" ry="5.4"/>
			<ellipse id="XMLID_393_" fill="#FFC68D" cx="178.3" cy="220" rx="7" ry="3.7"/>
			<ellipse id="XMLID_392_" fill="#FFFFFF" cx="212.2" cy="240" rx="10.2" ry="5.4"/>
			<ellipse id="XMLID_391_" fill="#FFC68D" cx="212.3" cy="240" rx="7" ry="3.7"/>
		</g>
	</g>
	<g id="XMLID_364_">
		<path id="XMLID_388_" fill="#5B3335" d="M165.2,147.3c0.1-0.4,5.3,1.3,8.8,4c5.4,4.1,5.4,8.2,5.4,8.2l-2.4,5.5c0,0-7.1-4-10.7-5.2
			c-3.6-1.1-5.8-5.8-5.8-5.8L165.2,147.3z"/>
		<path id="XMLID_384_" fill="#5B3335" d="M127.4,89.3c0,0-3.3-5-8.8,12.6c-2.8,9-2.3,30.5-3.8,40.2c-1.5,9.7,7.8,5.6,11.1-3.8
			c3.2-9.3,5.9-27.1,5.9-27.1L127.4,89.3z"/>
		<path id="XMLID_383_" fill="#6E4243" d="M154.4,89.1c0,0,8,6.5,8,12.8c0,4.2-2.9,15.6-1.6,23c2,11.7,8,17.4,4.6,27.9
			c7.6,2.4,11.5,5.7,12.7,10.2c-3.2,7-6.2,9.6-10.9,15.7c-9.6,12.4-29.7,16.5-37.7,17c-9.3,0.6-15.6-7.5-22.4-10.6
			c-6.8-3.1-10.8-5.3-12.1-9.4c-2.1-6.7,4.3-18,14.5-28.1c5.6-5.5,14.7-14.6,15-20.2c0.4-5.9-1.1-12.9-2.6-18.8
			c-1.9-7.4,0.9-13.4,6.3-19.1C132.3,85.1,154.4,89.1,154.4,89.1z"/>
		<path id="XMLID_382_" fill="#5B3335" d="M139.1,155.3c0,0-10.8,5.3-14.9,9c-4.1,3.6-6.1,6.4-6.1,6.4s5.1-4,11.4-6.8
			s6.9-2.5,8.4-4.5C139.5,157.5,139.1,155.3,139.1,155.3z"/>
		<path id="XMLID_380_" fill="#5B3335" d="M130.6,138.4c0,0-1.6,4.7-4.2,8.2c-3.1,4.3-7.5,8-10,11.1c-4.6,5.6-5.1,11.3-4.6,15.3
			c0.5,4,2.3,5.7,2.3,5.7s-0.6-12.1,3.7-17.7c4.3-5.6,6.8-6.7,10.5-12.8C131.9,142.1,130.6,138.4,130.6,138.4z"/>
		<path id="XMLID_379_" fill="#FFC2B0" d="M146.2,148.2c0,0-5.1,5.3-8.1,8.2c-3,2.8-4.1,4.4-6.3,8c-2.2,3.7-3.6,5.7,0,6.2
			c2.9,0.4,4.8-1.3,7.7-3.7c2.9-2.4,6.8-2.6,9-7.1c2.2-4.5,3.6-8.5,3.6-8.5L146.2,148.2z"/>
		<path id="XMLID_378_" fill="#FFC2B0" d="M143.7,62.1c-3.4-3.2-12-4.9-16.1,3.8c-4.3,9.1,3.1,21.7,7.9,20.2
			c2.7-0.9,8.4-4.3,10.4-9.1C148.1,71.5,146.3,64.6,143.7,62.1z"/>
		<path id="XMLID_377_" fill="#FFFFFF" d="M126,68.5c0,0,13.6,7,19.1,0c5.5-7,3.3-9.3-4.3-9.6c-7.6-0.3-13.9,3.9-13.9,3.9L126,68.5z
			"/>
		<path id="XMLID_376_" fill="#5B3335" d="M154.4,103.8c0,0-0.7,10.8-0.8,16.9c-0.1,6.2,0,10.5,0,10.5L139.8,154
			c0,0,3.4-0.6,7.1,0.9c3.8,1.4,3.2,5,3.2,5s10.8-12.7,17.2-22.4c3.7-5.5,1.8-13.6-0.1-27.4c-2.5-18-7.7-16.4-7.7-16.4L154.4,103.8z
			"/>
		<path id="XMLID_375_" fill="#F23B3B" d="M129.6,81.7c0,0-3.8,0.6-3.2,4.9c-3.9,0.7-4.5,2.4-5.2,3.9c-1.4,3.2,1.3,12.7,9.4,17.9
			c7.6,4.9,20.9,3.4,27.6,0.5c6.7-3,9.1-5.6,9.1-5.6s-3.1-9.9-5.8-12.8c-2.6-2.9-4.8-2.5-4.8-2.5s-2.3-5.9-5.7-6.3
			c-3.4-0.5-5.3,6.8-11,6C134.2,86.9,129.6,81.7,129.6,81.7z"/>
		<path id="XMLID_372_" fill="#F23B3B" d="M149.3,58.4c-2.3-5-8.9-7.2-16.6-3.2c-1.5,0.8-4.7,3-5.9,7.5c-0.4,1.5-0.7,4.3-0.8,5.7
			c-0.6,5.4,0.7,11.9,2.3,14.6c2.5,4.4,5.2,9.3,9.5,8.6c4.3-0.8,11.1-2.7,13.3-10C154.1,71.3,151.5,63.3,149.3,58.4z M138.4,83.8
			c-5.3,1.1-8.6-5.7-9.2-10c-0.2-1.3-1.2-4.1-0.2-6.9c0.6-1.7,2.4-2.5,5.5-2.4c2.7,0.1,5.9,1.5,7.2,5
			C144.7,77.5,142.8,82.9,138.4,83.8z"/>
		<path id="XMLID_371_" fill="#D32424" d="M125.8,92.2c0,0,3.7,2.8,7.1,6.5c3.4,3.7,6.6,7.7,10.4,7.6c3.8-0.1,6.7-1,6.7-1
			s-6.5-0.4-9-2c-2.6-1.6-6.1-5.6-9-8.5C129.1,92,125.8,92.2,125.8,92.2z"/>
		<path id="XMLID_370_" fill="#D32424" d="M137.4,97.1c0,0,5.2,4.6,11.6,2.9c6.5-1.7,10.4-6.3,10.4-6.3s-0.2-1.8-1.6-1.9
			s-1.9,2.5-5.2,4.3c-3.3,1.9-5,2.3-8.5,2.2C141.6,98.3,137.4,97.1,137.4,97.1z"/>
		<path id="XMLID_369_" fill="#D32424" d="M128.2,88.1c0,0,7.9,6.2,15.2,4.9c7.3-1.3,8.8-3.7,9.6-5.4c0.8-1.7-0.7-2.5-1.3-1.9
			s-2.2,3.8-5.9,4.8c-3.8,0.9-7.9,0.5-10.3-0.6C133,88.8,128.2,88.1,128.2,88.1z"/>
		<path id="XMLID_368_" fill="#FFC2B0" d="M116.4,142.8c0,0-0.7,5.4-1.8,10.9c-1,5.4-0.2,7.8,0,10.5c0.2,2.6,4.4,2,6.2-1.8
			c1.8-3.8,4.2-13.7,3.2-17.5C123,141,116.4,142.8,116.4,142.8z"/>
		<path id="XMLID_367_" fill="#5B3335" d="M124.5,121.7c0,0,1.6,3.6,1.3,11.1c-0.3,7.4-0.8,16.3-0.8,16.3s-2.6-3.1-5.4-3.1
			c-2.8,0-5,1.9-5,1.9s1-14,1.3-19.7C116.2,122.5,124.5,121.7,124.5,121.7z"/>
		<path id="XMLID_366_" fill="#5B3335" d="M128.2,113.8c0,0,5.9,3.8,8.8,6.4c3,2.6,8.8,6.4,8.8,6.4s-1.9-5.3-6.2-8.5
			C135.5,115,128.2,113.8,128.2,113.8z"/>
		<path id="XMLID_365_" fill="#5B3335" d="M166.2,143.6c0.1,1-4.4,14.9-7.8,21.4c-4.7,9-8.8,13.2-12.5,16.4c-3.6,3.2-6.2,5-6.2,5
			s8.8-1.6,16.4-11.3c7.6-9.6,10.2-17.3,11.1-22.1C168,148.2,166.2,143.6,166.2,143.6z"/>
	</g>
	<g id="XMLID_343_">
		<path id="XMLID_363_" fill="#50A063" d="M290.3,161.9c2-0.7,10.4-0.8,16.6,4.7c6.2,5.4,9.1,6.8,9.1,6.8s-8.4,8.2-14.6,11.4
			c-6.2,3.2-8.6,5.5-12.8,8.2c-4.3,2.8-9.6-6.2-11.2-9.6C275.7,180,290.3,161.9,290.3,161.9z"/>
		<path id="XMLID_362_" fill="#428C52" d="M260.6,118.9c0,0-2.5-0.6-6.1,2.4c-3.6,3-4.9,15.7-7.6,21.3c-2.7,5.6-3.5,9.8-4.4,15.2
			c-1,5.4,3.3,9.8,3.5,10.2c0.2,0.4,10.6-2.7,11.3-6C258.1,158.7,260.6,118.9,260.6,118.9z"/>
		<path id="XMLID_361_" fill="#50A063" d="M264,118c0,0-2.8-0.3-7,6.5c-2.3,3.9-4.2,13.5-4.3,22.2c-0.1,6.9,1.2,7.8-1.9,14.2
			c-1.5,3.1-9.6,8.4-15.7,19.2c-3.9,7-2.7,13.4,2.1,16.5c2.4,1.5,10,1.3,14.9,3.6c5,2.3,7.8,7.9,12.3,7.7
			c12.9-0.5,28.5-20.5,35-24.5c-0.1-12-13.2-8.4-13.2-8.4s3.7-4.8,4.3-15c0.5-8.3-1.1-22.1-2.6-30.8c-0.8-4.7-5.2-5.3-7.1-5.8
			C274,121.4,264,118,264,118z"/>
		<path id="XMLID_360_" fill="#428C52" d="M257.7,198.5c4.2,3.7,10.8,2.9,10.8,2.9s-7.4-3.7-10.9-6.1c-4.5-3.1-10.2-1.8-10.2-1.8
			S253.5,194.8,257.7,198.5z"/>
		<path id="XMLID_359_" fill="#428C52" d="M248.4,175.3c-0.2,0.7-1.6,10.1,0,12.6c1.6,2.5,5.6-1.3,11.4-6.3c5.8-5,7.8-6.3,7.8-6.3
			s-9.6,5.8-10.5,2.2c-1.6-5.8-5.5-9.5-5.5-9.5L248.4,175.3z"/>
		<path id="XMLID_358_" fill="#33211F" d="M278.3,118c0,0,0.5,1.3,1.5,3.3s1,2,1,2s-6,12-13,10.1c-7-2-7.8-7.8-6.7-11.4
			C262.1,118.3,278.3,118,278.3,118z"/>
		<path id="XMLID_357_" fill="#FFC2B0" d="M272.7,103.7c-2.9-2.7-10.4-4.2-13.9,3.2c-3.7,7.9,2.7,18.8,6.8,17.4
			c2.3-0.8,7.3-3.7,9-7.9C276.5,111.8,275,105.8,272.7,103.7z"/>
		<path id="XMLID_356_" fill="#FFFFFF" d="M257.7,109.8c0,0,10.5,6.2,16.4,1.3c5.9-4.9,2.9-9.4-3.7-9.6c-6.5-0.3-12,3.4-12,3.4
			L257.7,109.8z"/>
		<path id="XMLID_353_" fill="#33211F" d="M280.2,101.4c-2.9-5.2-10.4-7.1-17-3.7c-1.3,0.7-4,2.6-5.1,6.5c-0.4,1.3-0.6,3.7-0.7,5
			c-0.5,4.6,0.6,10.3,2,12.6c2.2,3.8,4.5,8.1,8.2,7.4c3.7-0.7,9.1-0.9,10.9-7.2C281.1,113,282.5,105.4,280.2,101.4z M266.6,123.3
			c-4.4,1.6-6.3-2.9-7.3-6.4c-0.4-1.4-0.5-5.6-0.4-8.1c0.1-1.8,1.7-3.8,5.8-3c3.5,0.6,7.9,1.9,8.1,5.3
			C273.1,118.4,271.6,121.5,266.6,123.3z"/>
		<path id="XMLID_352_" fill="#428C52" d="M284.5,124.5c0,0-2.9,10.6-3.7,17.2c-0.8,6.6,0,13.1-2,15.8c-1.9,2.7-6.2,5.9-8.1,7.6
			c-1.9,1.7-4.9,5.4-4.9,5.4s2,0.7,2.9,4.5c0.9,3.8,0.9,3.8,0.9,3.8s7.5,3.3,15.2-0.6c7.7-3.8,10-15.5,10.4-19.1
			c0.4-3.6-1-17.1-2.5-24.1C291.2,127.9,288.3,124.5,284.5,124.5z"/>
		<path id="XMLID_351_" fill="#428C52" d="M252.7,146.6c0,0,3.1,7.9,3.4,12.1c0.5,7.1-3,10.4-3,10.4l-3.9,1.8c0,0-6.9-1.8-6.9-6.8
			c0-5-0.5-12.7,3.6-15.6C250,145.6,252.7,146.6,252.7,146.6z"/>
		<path id="XMLID_350_" fill="#FFC2B0" d="M267.3,170.4c0,0-4.7,3.7-7.5,5.6c-2.7,1.9-3.8,3-6,5.7c-2.2,2.7-3.6,4.1-0.7,5
			c2.3,0.7,4-0.5,6.6-2.1c2.6-1.6,5.7-1.3,8-4.6c2.3-3.3,2.3-3.3,2.3-3.3L267.3,170.4z"/>
		<path id="XMLID_349_" fill="#33211F" d="M267.3,169.1l-3.3,3.5c0,0,1.3,1.2,2.5,3c1.2,1.9,1.4,3.6,1.4,3.6l3,0
			c0,0,2.5-2.1,0.6-6.4C269.6,168.6,267.3,169.1,267.3,169.1z"/>
		<path id="XMLID_348_" fill="#FFC2B0" d="M246.7,166.2c0,0-0.6,4.4-1.4,8.8c-0.8,4.4-0.2,6.4,0,8.5c0.2,2.1,3.6,1.6,5.1-1.5
			c1.5-3.1,3.4-11.1,2.6-14.2C252.1,164.7,246.7,166.2,246.7,166.2z"/>
		<path id="XMLID_347_" fill="#33211F" d="M253.1,170.4c0-0.3,2-4.5,2-4.5s-0.6-2.9-4.6-2.7c-4,0.1-5,1.4-6.1,2.7
			c-1.1,1.3-0.4,2.2-0.4,2.2l2,2.9c0,0,1.3-1.8,3.6-1.8C251.9,169,253.1,170.4,253.1,170.4z"/>
		<path id="XMLID_346_" fill="#428C52" d="M275.4,149.3c0,0-3.9,6.3-7.3,9.4c-3.4,3.1-6.7,5.6-6.7,5.6s5.8,0.3,10.3-4.5
			C276.3,155,275.4,149.3,275.4,149.3z"/>
		<path id="XMLID_345_" fill="#428C52" d="M279.9,193.2c0,0,6.8-4.7,14.1-8.5c7.3-3.7,10.9-7.2,10.9-7.2s-7.6,1.9-12.3,4.3
			C288,184.1,281.3,191.3,279.9,193.2z"/>
		<path id="XMLID_344_" fill="#428C52" d="M257.9,136.3c0,0-2.2,8.7,0.9,13.7c3.2,5,5.1,6.8,5.1,6.8s-1.5-3.9-3.3-8.3
			C258.8,144,257.9,136.3,257.9,136.3z"/>
	</g>
	<g id="XMLID_324_">
		<path id="XMLID_325_" fill="#FFFFFF" d="M66.9,146c-0.9,0-1.8,0-2.7-0.1c-0.5,0-0.8-0.5-0.8-0.9c0-0.5,0.4-0.8,0.9-0.8
			c1.6,0.2,3.3,0.2,4.9,0c0.5,0,0.9,0.3,0.9,0.8c0,0.5-0.3,0.9-0.8,0.9C68.6,145.9,67.7,146,66.9,146z M74.2,145
			c-0.4,0-0.7-0.2-0.8-0.6c-0.1-0.4,0.1-0.9,0.6-1c1.6-0.4,3.1-1,4.5-1.7c0.4-0.2,0.9,0,1.1,0.4c0.2,0.4,0,0.9-0.4,1.1
			c-1.5,0.8-3.2,1.4-4.8,1.9C74.4,145,74.3,145,74.2,145z M59.3,144.9c-0.1,0-0.2,0-0.2,0c-1.7-0.5-3.3-1.1-4.8-1.9
			c-0.4-0.2-0.6-0.7-0.4-1.1c0.2-0.4,0.7-0.6,1.1-0.4c1.5,0.7,3,1.3,4.5,1.8c0.4,0.1,0.7,0.6,0.6,1C60,144.7,59.7,144.9,59.3,144.9z
			 M83.2,140.5c-0.3,0-0.5-0.1-0.7-0.3c-0.3-0.4-0.2-0.9,0.2-1.2c1.3-1,2.5-2.1,3.6-3.3c0.3-0.3,0.8-0.4,1.2-0.1
			c0.3,0.3,0.4,0.8,0.1,1.2c-1.2,1.3-2.5,2.4-3.8,3.5C83.6,140.5,83.4,140.5,83.2,140.5z M50.4,140.4c-0.2,0-0.4-0.1-0.5-0.2
			c-1.4-1-2.7-2.2-3.8-3.5c-0.3-0.3-0.3-0.9,0.1-1.2c0.3-0.3,0.9-0.3,1.2,0.1c1.1,1.2,2.3,2.3,3.6,3.3c0.4,0.3,0.4,0.8,0.2,1.2
			C50.9,140.3,50.6,140.4,50.4,140.4z M90,133.1c-0.2,0-0.3,0-0.4-0.1c-0.4-0.2-0.5-0.8-0.3-1.2c0.9-1.4,1.6-2.8,2.2-4.4
			c0.2-0.4,0.7-0.6,1.1-0.5c0.4,0.2,0.6,0.7,0.5,1.1c-0.6,1.6-1.4,3.2-2.3,4.6C90.5,133,90.3,133.1,90,133.1z M43.7,132.9
			c-0.3,0-0.6-0.1-0.7-0.4c-0.9-1.5-1.7-3-2.3-4.7c-0.2-0.4,0.1-0.9,0.5-1.1c0.4-0.2,0.9,0.1,1.1,0.5c0.6,1.5,1.3,3,2.1,4.4
			c0.2,0.4,0.1,0.9-0.3,1.2C44,132.9,43.8,132.9,43.7,132.9z M93.6,123.8c-0.1,0-0.1,0-0.2,0c-0.5-0.1-0.8-0.5-0.7-1
			c0.3-1.6,0.4-3.2,0.4-4.9c0-0.5,0.4-0.8,0.8-0.8c0.5,0,0.8,0.4,0.8,0.8c0,1.7-0.2,3.5-0.5,5.2C94.4,123.5,94,123.8,93.6,123.8z
			 M40.1,123.6c-0.4,0-0.2-0.3-0.3-0.7c-0.3-1.6,0.1-3.3,0.1-4.9v-0.2c0-0.5-0.5-0.8,0-0.8c0.5,0,0,0.4,0,0.8v0.2
			c0,1.6,0.4,3.1,0.7,4.6C40.8,123.1,40.6,123.5,40.1,123.6C40.1,123.6,40.2,123.6,40.1,123.6z M93.7,114.2c-0.4,0-0.8-0.3-0.8-0.7
			c-0.3-1.6-0.7-3.2-1.3-4.7c-0.2-0.4,0.1-0.9,0.5-1.1c0.4-0.2,0.9,0.1,1.1,0.5c0.6,1.6,1,3.3,1.3,5c0.1,0.5-0.2,0.9-0.7,1
			C93.8,114.2,93.7,114.2,93.7,114.2z M40.2,113.6c-0.1,0-0.1,0-0.2,0c-0.5-0.1-0.8-0.5-0.7-1c0.3-1.7,0.8-3.4,1.5-5
			c0.2-0.4,0.7-0.6,1.1-0.5c0.4,0.2,0.6,0.7,0.5,1.1c-0.6,1.5-1.1,3.1-1.4,4.7C41,113.3,40.6,113.6,40.2,113.6z M90.2,104.8
			c-0.3,0-0.6-0.1-0.7-0.4c-0.8-1.4-1.8-2.7-2.9-3.9c-0.3-0.3-0.3-0.9,0.1-1.2c0.3-0.3,0.9-0.3,1.2,0.1c1.1,1.3,2.2,2.7,3.1,4.2
			c0.2,0.4,0.1,0.9-0.3,1.2C90.5,104.8,90.4,104.8,90.2,104.8z M43.9,104.3c-0.2,0-0.3,0-0.4-0.1c-0.4-0.2-0.5-0.8-0.3-1.2
			c0.9-1.5,2-2.8,3.2-4.1c0.3-0.3,0.8-0.4,1.2,0c0.3,0.3,0.4,0.8,0,1.2c-1.1,1.2-2.1,2.5-3,3.9C44.5,104.1,44.2,104.3,43.9,104.3z
			 M83.6,97.3c-0.2,0-0.4-0.1-0.5-0.2c-1.3-1-2.7-1.9-4.1-2.6c-0.4-0.2-0.6-0.7-0.4-1.1c0.2-0.4,0.7-0.6,1.1-0.4
			c1.5,0.8,3,1.7,4.4,2.8c0.4,0.3,0.4,0.8,0.1,1.2C84.1,97.2,83.8,97.3,83.6,97.3z M50.8,96.9c-0.3,0-0.5-0.1-0.7-0.3
			c-0.3-0.4-0.2-0.9,0.2-1.2c1.4-1,2.9-1.9,4.4-2.7c0.4-0.2,0.9,0,1.1,0.4c0.2,0.4,0,0.9-0.4,1.1c-1.5,0.7-2.9,1.6-4.2,2.5
			C51.1,96.9,50.9,96.9,50.8,96.9z M74.7,92.8c-0.1,0-0.2,0-0.2,0c-1.6-0.5-3.2-0.8-4.8-1c-0.5,0-0.8-0.5-0.7-0.9
			c0-0.5,0.4-0.8,0.9-0.7c1.7,0.2,3.4,0.5,5.1,1c0.4,0.1,0.7,0.6,0.6,1C75.4,92.5,75,92.8,74.7,92.8z M59.8,92.6
			c-0.4,0-0.7-0.2-0.8-0.6c-0.1-0.4,0.1-0.9,0.6-1c1.7-0.5,3.4-0.7,5.1-0.9c0.5,0,0.9,0.3,0.9,0.8c0,0.5-0.3,0.9-0.8,0.9
			c-1.6,0.1-3.2,0.4-4.8,0.8C59.9,92.6,59.8,92.6,59.8,92.6z"/>
	</g>
	<g id="XMLID_306_">
		<path id="XMLID_308_" fill="#FFFFFF" d="M215.5,68.9c-1.4,0.1-2.7-0.2-4-0.6c-0.4-0.1-0.7-0.6-0.6-1c0.1-0.4,0.6-0.7,1-0.6
			c1.1,0.3,2.3,0.5,3.5,0.5c0.4,0,0.8,0,1.1,0c0.4,0,0.9,0.3,0.9,0.8c0,0.5-0.3,0.9-0.8,0.9C216.4,68.9,215.9,68.9,215.5,68.9z
			 M221.5,67.5c-0.3,0-0.6-0.2-0.8-0.5c-0.2-0.4,0-0.9,0.4-1.1c1.4-0.7,2.7-1.7,3.8-2.8c0.3-0.3,0.8-0.4,1.2-0.1
			c0.3,0.3,0.4,0.8,0.1,1.2c-1.2,1.3-2.6,2.4-4.2,3.2C221.8,67.5,221.7,67.5,221.5,67.5z M207.3,66.1c-0.2,0-0.4-0.1-0.5-0.2
			c-1.4-1.1-2.6-2.4-3.6-3.9c-0.2-0.4-0.1-0.9,0.3-1.2c0.4-0.2,0.9-0.1,1.2,0.3c0.8,1.4,1.9,2.5,3.1,3.5c0.4,0.3,0.4,0.8,0.2,1.2
			C207.8,66,207.5,66.1,207.3,66.1z M228.2,60.2c-0.1,0-0.2,0-0.3-0.1c-0.4-0.2-0.6-0.7-0.5-1.1c0.6-1.5,0.9-3,0.9-4.6
			c0-1.5-0.3-3-0.8-4.4c-0.2-0.4,0.1-0.9,0.5-1.1c0.4-0.2,0.9,0.1,1.1,0.5c0.6,1.6,0.9,3.3,0.9,5c0,1.8-0.3,3.6-1,5.2
			C228.8,60,228.5,60.2,228.2,60.2z M202.1,57.7c-0.4,0-0.8-0.3-0.8-0.7c-0.1-0.8-0.2-1.7-0.2-2.6c0-0.9,0.1-1.9,0.3-2.8
			c0.1-0.5,0.5-0.8,1-0.7c0.5,0.1,0.8,0.5,0.7,1c-0.2,0.8-0.2,1.6-0.2,2.4c0,0.8,0.1,1.5,0.2,2.3c0.1,0.5-0.2,0.9-0.7,1
			C202.2,57.7,202.2,57.7,202.1,57.7z M204,48.1c-0.2,0-0.3,0-0.4-0.1c-0.4-0.2-0.5-0.8-0.3-1.2c1-1.5,2.2-2.8,3.6-3.9
			c0.4-0.3,0.9-0.2,1.2,0.2c0.3,0.4,0.2,0.9-0.2,1.2c-1.3,0.9-2.3,2.1-3.2,3.4C204.6,47.9,204.3,48.1,204,48.1z M225.7,46.3
			c-0.2,0-0.5-0.1-0.6-0.3c-1.1-1.2-2.3-2.2-3.7-2.9c-0.4-0.2-0.6-0.7-0.4-1.1c0.2-0.4,0.7-0.6,1.1-0.4c1.6,0.8,3,1.9,4.2,3.3
			c0.3,0.3,0.3,0.9-0.1,1.2C226.1,46.2,225.9,46.3,225.7,46.3z M211.9,42.2c-0.4,0-0.7-0.2-0.8-0.6c-0.1-0.4,0.1-0.9,0.6-1
			c1.7-0.5,3.5-0.6,5.3-0.4c0.5,0,0.8,0.5,0.7,0.9c0,0.5-0.5,0.8-0.9,0.7c-1.5-0.2-3.2,0-4.7,0.4C212.1,42.2,212,42.2,211.9,42.2z"
			/>
	</g>
	<g id="XMLID_282_">
		<path id="XMLID_284_" fill="#FFFFFF" d="M317.5,104.6c-0.9,0-1.9-0.1-2.8-0.2c-0.5-0.1-0.8-0.5-0.7-0.9c0.1-0.5,0.5-0.8,0.9-0.7
			c1.6,0.2,3.2,0.2,4.8,0c0.4-0.1,0.9,0.3,0.9,0.7c0.1,0.5-0.3,0.9-0.7,0.9C319.2,104.6,318.4,104.6,317.5,104.6z M324.8,103.3
			c-0.3,0-0.7-0.2-0.8-0.5c-0.2-0.4,0.1-0.9,0.5-1.1c1.5-0.6,2.9-1.3,4.3-2.2c0.4-0.3,0.9-0.2,1.2,0.2c0.3,0.4,0.2,0.9-0.2,1.2
			c-1.4,1-3,1.8-4.6,2.4C325,103.3,324.9,103.3,324.8,103.3z M310,103.2c-0.1,0-0.2,0-0.3-0.1c-1.6-0.6-3.2-1.5-4.6-2.5
			c-0.4-0.3-0.5-0.8-0.2-1.2c0.3-0.4,0.8-0.5,1.2-0.2c1.3,0.9,2.7,1.7,4.2,2.3c0.4,0.2,0.6,0.7,0.5,1.1
			C310.6,103,310.3,103.2,310,103.2z M333,97.7c-0.2,0-0.4-0.1-0.6-0.2c-0.3-0.3-0.4-0.8-0.1-1.2c1.1-1.2,2-2.5,2.8-4
			c0.2-0.4,0.7-0.6,1.1-0.3c0.4,0.2,0.6,0.7,0.4,1.1c-0.8,1.5-1.8,3-3,4.3C333.5,97.6,333.2,97.7,333,97.7z M301.8,97.4
			c-0.2,0-0.5-0.1-0.6-0.3c-1.1-1.3-2.1-2.8-2.9-4.3c-0.2-0.4,0-0.9,0.4-1.1c0.4-0.2,0.9,0,1.1,0.4c0.7,1.4,1.6,2.8,2.7,4
			c0.3,0.4,0.3,0.9-0.1,1.2C302.2,97.4,302,97.4,301.8,97.4z M337.7,88.9c-0.1,0-0.1,0-0.2,0c-0.5-0.1-0.7-0.6-0.6-1
			c0.4-1.6,0.6-3.2,0.6-4.8c0-0.5,0.4-0.8,0.8-0.8c0.5,0,0.8,0.4,0.8,0.8c0,1.8-0.2,3.5-0.6,5.2C338.4,88.6,338,88.9,337.7,88.9z
			 M297.3,88.6c-0.4,0-0.7-0.3-0.8-0.7c-0.4-1.6-0.5-3.2-0.5-4.8l0-0.3c0-0.5,0.4-0.8,0.8-0.8c0,0,0,0,0,0c0.5,0,0.8,0.3,0.8,0.8
			l0,0.3c0,1.5,0.2,3,0.5,4.5c0.1,0.5-0.2,0.9-0.6,1C297.5,88.6,297.4,88.6,297.3,88.6z M337.8,79.6c-0.4,0-0.7-0.3-0.8-0.7
			c-0.3-1.6-0.9-3.1-1.6-4.6c-0.2-0.4,0-0.9,0.4-1.1c0.4-0.2,0.9,0,1.1,0.4c0.8,1.6,1.3,3.2,1.7,4.9c0.1,0.5-0.2,0.9-0.6,1
			C337.9,79.6,337.9,79.6,337.8,79.6z M297.5,78.6c-0.1,0-0.1,0-0.2,0c-0.4-0.1-0.7-0.6-0.6-1c0.4-1.7,1.1-3.3,1.9-4.9
			c0.2-0.4,0.7-0.6,1.1-0.3c0.4,0.2,0.6,0.7,0.3,1.1c-0.8,1.4-1.4,2.9-1.8,4.5C298.2,78.3,297.9,78.6,297.5,78.6z M333.4,70.6
			c-0.2,0-0.5-0.1-0.6-0.3c-1-1.2-2.2-2.3-3.5-3.3c-0.4-0.3-0.5-0.8-0.2-1.2c0.3-0.4,0.8-0.5,1.2-0.2c1.4,1,2.7,2.2,3.8,3.6
			c0.3,0.4,0.2,0.9-0.1,1.2C333.8,70.5,333.6,70.6,333.4,70.6z M302.3,69.8c-0.2,0-0.4-0.1-0.6-0.2c-0.3-0.3-0.4-0.8,0-1.2
			c1.2-1.3,2.5-2.4,4-3.4c0.4-0.3,0.9-0.1,1.2,0.2c0.3,0.4,0.1,0.9-0.2,1.2c-1.3,0.9-2.6,1.9-3.7,3.1
			C302.8,69.7,302.5,69.8,302.3,69.8z M325.4,64.7c-0.1,0-0.2,0-0.3-0.1c-1.5-0.6-3.1-1-4.7-1.3c-0.5-0.1-0.8-0.5-0.7-1
			c0.1-0.5,0.5-0.8,1-0.7c1.7,0.3,3.4,0.7,5,1.4c0.4,0.2,0.6,0.7,0.5,1.1C326,64.5,325.7,64.7,325.4,64.7z M310.6,64.3
			c-0.3,0-0.7-0.2-0.8-0.6c-0.2-0.4,0.1-0.9,0.5-1.1c1.6-0.6,3.4-1,5.1-1.1c0.5-0.1,0.9,0.3,0.9,0.8c0,0.5-0.3,0.9-0.8,0.9
			c-1.6,0.2-3.2,0.5-4.7,1C310.8,64.3,310.7,64.3,310.6,64.3z"/>
	</g>
	<circle id="XMLID_280_" fill="#FFFFFF" cx="39.2" cy="118.4" r="15.7"/>
	<circle id="XMLID_279_" fill="#FFFFFF" cx="208.3" cy="66.1" r="10.6"/>
	<circle id="XMLID_278_" fill="#FFFFFF" cx="324" cy="59.5" r="14.5"/>
</g>
</svg>
