<?xml version="1.0" encoding="utf-8"?>
<!-- Generator: Adobe Illustrator 19.0.0, SVG Export Plug-In . SVG Version: 6.00 Build 0)  -->
<svg version="1.1" id="Layer_1" xmlns="http://www.w3.org/2000/svg" xmlns:xlink="http://www.w3.org/1999/xlink" x="0px" y="0px"
	 viewBox="0 0 4224 5352" enable-background="new 0 0 4224 5352" xml:space="preserve">
<linearGradient id="SVGID_1_" gradientUnits="userSpaceOnUse" x1="-452.2652" y1="2757.4097" x2="4083.4819" y2="2757.4097" gradientTransform="matrix(-0.4862 -0.6908 -0.7716 0.543 5068.1646 2219.1074)">
	<stop  offset="0" style="stop-color:#B37CFF"/>
	<stop  offset="1" style="stop-color:#F895E7"/>
</linearGradient>
<path opacity="0.26" fill="url(#SVGID_1_)" d="M3695.6,2408.5c-151.8,392.5,598.5,817,79.9,1187.5
	c-607.2,433.8-1217.3-76.9-1500,441.1c-282.7,518-786.7,490-1341.2-350.3s-1055-2424-260.1-2524.2c794.9-100.2,679-337.2,923.1-540
	c244.2-202.8,913.5-449.7,883.8,538.1C2451.4,2148.7,4080,1414.6,3695.6,2408.5z"/>
<g>
	<g>
		<g>
			<path fill="#50BFA5" d="M1260.9,3621.8c0,0-146.1-475.5-157.9-580.4c-11.7-104.9,70-72.4,70-72.4s-68.7-199.9-19-247.3
				c49.7-47.4,94.5,41,94.5,41s15-242.6,68-242.7c98.7-0.2,96.8,264.6,96.8,264.6s22.8-106.1,92.7-64.9
				c77.8,45.9-29.1,264.3-29.1,264.3s84.8-26.2,117,25.1C1702.8,3182.1,1260.9,3621.8,1260.9,3621.8z"/>
		</g>
	</g>
	<g>
		<g>
			<path fill="#50BFA5" d="M1308.6,3558.9c0,0-421.3-67.6-512.9-139.3c-91.6-71.7-0.9-104-0.9-104s-211.6-104.1-209.2-175
				c2.4-70.8,107.6-34.8,107.6-34.8s-178.3-195.2-136.1-232.3c78.6-69,284.8,133.9,284.8,133.9s-61.2-96.5,3.3-111.8
				c97.2-23,169,214.9,169,214.9s-18.2-94,48.8-81.4C1183.2,3051.6,1308.6,3558.9,1308.6,3558.9z"/>
		</g>
		<path fill="#3C8F7C" d="M1062.9,3029.1c-67.2-11.7-48.8,81.4-48.8,81.4s-71.7-237.9-169-214.9c-64.5,15.3-3.3,111.8-3.3,111.8
			s-206.1-202.9-284.8-133.9l750.1,685.4C1293.9,3493.5,1175.6,3048.7,1062.9,3029.1z"/>
	</g>
	<g>
		<path fill="#355389" d="M1477,3614.6c0,0-221.9-216.6-333.6-239.1c-111.7-22.6-91.6,53.8-91.6,53.8s-221.7-186.1-273-141
			c-51.4,45.1,4.2,88.6,4.2,88.6s-184.6-31.4-211.1,26.8c-40.6,89.4,263,138,263,138s-127.2,8.5-97.7,64.5
			C781.7,3690.7,1477,3614.6,1477,3614.6z"/>
		<path fill="#466EB6" d="M571.9,3403.6c26.4-58.2,211.1-26.8,211.1-26.8s-55.6-43.5-4.2-88.6c51.4-45.1,266.1,115.7,266.1,115.7
			s-50.6-92.9,61.1-70.4c111.7,22.6,371,281.1,371,281.1L571.9,3403.6z"/>
	</g>
</g>
<g>
	<path fill="#00B3BF" d="M3471.9,3702.2H408c-14.1,0-25.5-17.1-25.5-38.2v0c0-21.1,11.4-38.2,25.5-38.2h3063.9
		c14.1,0,25.5,17.1,25.5,38.2l0,0C3497.5,3685.1,3486,3702.2,3471.9,3702.2z"/>
</g>
<g>
	<path fill="#676E9C" d="M3386.6,3625.7H1943.3l0,0c0-97,75.4-175.6,168.5-175.6h1106.4C3311.2,3450.1,3386.6,3528.7,3386.6,3625.7
		L3386.6,3625.7z"/>
</g>
<g>
	<path fill="#B75742" d="M2519.5,3627.4H1058.7c-55.8,0-101-53-101-118.4v-70.4c0-65.4,45.2-118.4,101-118.4h1460.8l0,0
		c-66.8,85.6-68,216.3-2.7,303.5L2519.5,3627.4z"/>
	<path fill="#FAE0B2" d="M2496.9,3355.5h-810.2c-55.8,0-101,53-101,118.4l0,0c0,65.4,45.2,118.4,101,118.4H2497
		C2459.1,3519.6,2459.2,3428,2496.9,3355.5z"/>
	<g>
		<path fill="#F47458" d="M2369.5,3107.1c2.1-4.5-1.1-9.7-6-9.7H1227.3c-60.6,0-91.1,49.9-91.1,111.5l0,0
			c0,61.6,30.5,111.5,91.1,111.5h1136.4c4.9,0,8.2-5.2,6-9.8l0,0C2339.1,3246.2,2339.2,3171.3,2369.5,3107.1z"/>
		<path fill="#F7CC7F" d="M2364.6,3118.1h-746.3c-71.1,0-101.2,41.8-101.2,93.4c0,51.6,30.1,93.4,101.2,93.4h748.8
			C2340.8,3245.6,2340,3177.9,2364.6,3118.1z"/>
	</g>
	<g>
		<path fill="#B75742" d="M2255.6,3162.4h-49.9c-10.7,0-19.4,4.1-19.4,9.1v0.8h69.3V3162.4z"/>
		<path fill="#F47458" d="M2298.1,3185.2c0-12.6-13-22.8-29.1-22.8h-64c12.2,0,22.1,7.7,22.1,17.3l-0.3,244.3l35.4-31.4l36.1,31.4
			L2298.1,3185.2z"/>
	</g>
	<g>
		<path fill="#FAE0B2" d="M2128.7,3089.3h-532.8c-47.2,0-85.6-43.3-85.6-96.8l0,0c0-53.5,38.3-96.8,85.6-96.8h532.8l0,0
			c-40.7,53.7-42.3,132.4-3.8,188.1L2128.7,3089.3z"/>
		<path fill="#466EB6" d="M1510.4,2992.5L1510.4,2992.5c0-53.5,39.2-96.8,87.6-96.8h540.9c2.5,0,4.6-2.3,4.5-5.1l0,0
			c0-2.8-2-5-4.5-5h-858.1c-53.4,0-96.6,47.8-96.6,106.8l0,0c0,59,43.3,106.8,96.6,106.8h858.1c2.5,0,4.5-2.2,4.5-5l0,0
			c0-2.8-2-5.1-4.5-5.1H1598C1549.6,3089.3,1510.4,3046,1510.4,2992.5z"/>
		<g>
			<path fill="#184655" d="M2035.7,2943.3h-59.1c-12.7,0-23,4-23,8.9v0.8h82.1V2943.3z"/>
			<path fill="#3C8F7C" d="M2086.1,2965.6c0-12.3-15.4-22.4-34.5-22.4h-75.9c14.4,0,26.2,7.6,26.2,17l-0.4,239.6l41.9-30.8
				l42.7,30.8L2086.1,2965.6z"/>
		</g>
	</g>
	<g>
		<path fill="#B75742" d="M2351.7,2678.1H1200.9c-35.7,0-64.7,32.7-64.7,73.1v61.5c0,40.4,29,73.1,64.7,73.1h1150.8l-0.6-0.7
			C2301.9,2827.1,2302.2,2735.6,2351.7,2678.1z"/>
		<path fill="#FAE0B2" d="M2331.4,2708.8h-615.2c-35.7,0-64.7,32.7-64.7,73.1l0,0c0,40.4,29,73.1,64.7,73.1h615.2
			C2308.7,2809.7,2308.8,2754,2331.4,2708.8z"/>
	</g>
</g>
<g>
	<path fill="#F7A491" d="M3456.7,3463.3c0,0,6.4,64.8,22.9,76.7c16.5,11.9,38.4,55.9,27.4,79.7c-11,23.8-57.1,15.5-57.1,15.5
		s-27.4-25-29.9-77.6c-2.5-52.6-18.9-79.4-18.9-79.4L3456.7,3463.3z"/>
	<path fill="#F7A491" d="M3196,3489.2c0,0-5.2,65.4-1,86.6c2.3,11.4,14.8,34.8,9.1,45.5c-5.8,10.7-12.4,13.4-12.4,13.4l-167.2,2.7
		c0,0,0.4-21,79.9-43.7c10.1-2.9,21.1-12.8,30.1-22.7c10.7-11.9,11.7-69.4,11.7-69.4L3196,3489.2z"/>
	<path fill="#3C8F7C" d="M3076.6,2620.3c0,0-19.1,106.1-6.5,175.7c12.5,69.6,64.9,717.9,64.9,717.9l79.7,0.9
		c0,0,14.6-265.4,12.1-302.9c-2.5-37.5-19.9-95.3-19.9-95.3l-1.6-226.9L3121,2604L3076.6,2620.3z"/>
	<path fill="#355389" d="M3268.9,2558.8c0,0,79.3,76.2,93.4,182.9c8.6,64.9-16.6,236.1,7.5,320.3c13,45.6,59.8,134,67.3,192.9
		c7.5,58.9,39,220.1,39,220.1l-390.9,64.3c-45.7-328.7-58.3-636.7-15.6-911.8l15.6-53.6L3268.9,2558.8z"/>
	<path fill="#F47458" d="M3426.9,3595.3c35.9,6.5,59.8-14.4,72.2-30c9.1,17.7,14.7,39.8,8,54.3c-11,23.8-57.1,15.5-57.1,15.5
		S3435.8,3622.2,3426.9,3595.3z"/>
	<path fill="#F47458" d="M3104.4,3593.6c2.9-0.8,5.8-2.2,8.8-4c39.5,10.1,68.7,3.2,85-3.3c4.2,11.9,10.1,25.9,8.8,34.9
		c-1.5,10.9-6.4,14.8-6.4,14.8l-176.1,1.3C3024.6,3637.3,3024.9,3616.3,3104.4,3593.6z"/>
	<g>
		<path fill="#F48C7F" d="M2852.1,2806c0,0,7.9-8.4,10.3-11.4c2.8-3.5,10.4-14.7,10.4-14.7s24.6-40.1,21.5-41.6
			c-3.2-1.5-11.3,3.1-13.7,5c-2.4,2-5.4,4-7.8,6c-2.4,2-5.9,1.8-8.5-0.9c-2.7-2.7,5.2-12.6,8.6-15.4c10.6-8.9,43.9-27.3,47.3-29.4
			c4.1-2.5,33.7-79.6,46-105.2c0,0,0,0,0,0c18.9-42.5,36.1-87.2,38.1-91.7l23.8-197l77.1-20c0,0-23.2,218.9-25.7,229.7
			c-1.2,5.1-52.7,100.5-52.7,100.5c-28.4,45.4-53.5,85.3-58.1,93.1c0,0-7.4,26.9-11,44.3c-3.7,17.4-14.2,32-16,36.8
			c-0.3,0.7-5.5,17.3-19.2,34.1c-11.8,14.4-7.3-4.6-7.3-4.6s16.9-30.6,14.3-31.5c-2.1-0.7-10.3,16.6-23.2,32.7
			c-3.3,4.1-6.6,8.2-9.6,11.9c-8,9.8-16.4,7.7-9.7-3.9c2.4-4.1,6.5-10.7,10.1-15.1c3.9-4.7,5.9-10.3,8.6-14.7
			c5.3-8.8,9.3-15.2,8.8-15.2c-0.6,0-0.8-2.5-4.5,1.8c-4.4,5.2-11.2,18.1-18.3,25.2c-4,4-11.8,12.9-11.8,12.9s-14.3,13-15.3,12.4
			c-5.2-3.3,2.4-15.5,8.5-20.3c2.3-5,10.8-14.1,10.8-14.1s13-22.3,9.8-24.2c-2.6-1.5-44.2,45.9-49.2,42.2
			C2840.2,2820.8,2852.1,2806,2852.1,2806z"/>
		<path fill="#1C3B73" d="M3043.3,2411.6c-10-3.7-29.6-34.4-37.7,14.3c-8.1,48.7-10.2,82.4-10.2,82.4
			c-26.1,62.4-75.6,187.2-75.6,187.2c18.8,15,68.3,18.1,68.3,18.1c52.6-87.4,90.9-185.3,90.9-185.3
			C3086.1,2459,3043.3,2411.6,3043.3,2411.6z"/>
		<path fill="#F47458" d="M2929.3,2736.3c0,0-22.7,12.8-34.7,2.3c0,0,4.5,8.5,14.5,8.6C2919,2747.3,2929.3,2736.3,2929.3,2736.3z"/>
	</g>
	<path fill="#1C3B73" d="M3093.6,2158.4c0,0-23,10.6-54.1,73.3c-29,58.4-33.7,194.2-33.7,194.2s46.1,14.6,72.6,9.6
		C3104.8,2430.5,3093.6,2158.4,3093.6,2158.4z"/>
	<path fill="#355389" d="M3180.6,2138.7c0,0,15.4,1.3,93.5,17.9c12.7,2.7,32.7,17.2,40.4,30.8c40,70.8,75.1,197.5,75.1,197.5
		s-65.3,21.3-88,21.3l-26.9-84.3c0,0-30.6,177.9-17.9,208c12.6,30.1,44.2,106.6,44.2,106.6s-0.5,16.3-119.9,28.8
		c-47.9,5-107.6-5.2-107.6-5.2s10.9-115.5,1.2-165.7c-15.7-81.8-46.3-179.7-47.9-192.2c-2.5-20.1,44-133.8,68-144.6
		c6.2-2.8,16.5-8.5,25.6-10.6C3148.3,2140.6,3180.6,2138.7,3180.6,2138.7z"/>
	<polygon fill="#F7CC7F" points="3066.1,2641.6 3214.2,2617.3 3179.6,2398.5 3023.8,2429 	"/>
	<path fill="#F7A491" d="M3041.7,2517.5c0.3-1.1,16.4,3.3,27.6-1.5c2.2-1-7.7-6.3-9.2-8.2c-0.2-0.2-19.5-7.8-19.5-15.4
		c0-7.7,15.7-5.7,15.7-5.7s45.5,11.2,52.5,16c7,4.8,10.4,8.7,10.9,9.2c2.7,0.3,5,0.5,6.7,0.4c39.4-2.5,100.5-23.2,193.2-56.6
		l-9.6-50c20.5-2.7,55.2-13,71.1-17.9c6.5,38.3,19.8,104.3,14.1,118.5c-4,9.9-53.3,25.6-108.7,40.6c-70.5,19.2-90.1,18.7-153.1,26.4
		c-19.1,2.2-43.8,12.9-53.7,14.9c-14.6,2.9-19.4,5.5-28.3-0.7c-7.5-5.3-9.8-21.3-10.7-31.3C3039.2,2537,3038.5,2529.7,3041.7,2517.5
		z"/>
	<path fill="#355389" d="M3339.7,2347.6c32,11.2,36.9,6.3,49.9,37.3c13,31,22.4,125.5,10.2,134.4c-12.2,8.9-137.5,51.5-253.4,54.5
		c-8.8-12.9,0-79.3,0-79.3c113.4-24.3,159-45.9,159-45.9c-7-43.5-20.7-105.3-20.7-105.3C3315.3,2350.4,3339.7,2347.6,3339.7,2347.6z
		"/>
	<path fill="#F7A491" d="M3170.2,2058.1c0,0,2.5,56.9,9.8,77.9c7.3,21-15.3,97-60.8,108.1c-41.1,10-11.4-61-5.7-91.3
		c0.6-3.3-7.3-108.7-7.3-108.7L3170.2,2058.1z"/>
	<path fill="#F47458" d="M3109.1,2077.2c-3.6-18-6.9-32.9-6.9-32.9l68,13.8c0,0,0.5,11.6,1.7,26.3
		C3146.5,2096.2,3124.7,2090.9,3109.1,2077.2z"/>
	<path fill="#F47458" d="M3142.9,1860.6c85.5-3.1,126.2,64.9,127.4,151c1.1,86.1-2.6,92.9,38.7,146.9s68.9,169.8,111.5,184.9
		c-78.9,61.3-237,32.6-341.5,45.1c-104.6,12.5-104.8-0.9-104.8-0.9c30.3-127.7,76.6-201.4,76.6-243.1c0-79.6-6.5-152,8.2-209.1
		C3075.9,1870,3115.3,1861.6,3142.9,1860.6z"/>
	<path fill="#F7A491" d="M3149.6,1903.3c0,0,26.7,7.4,42.1,33.6c15.4,26.2,23.1,101.3-33.6,133.4c-56.7,32.1-96.9-19.3-95.2-67.4
		C3064.7,1954.8,3078.2,1891.2,3149.6,1903.3z"/>
	<path fill="#355389" d="M3202.9,1983.8c-39.9-19.9-70-71.4-70-71.4c-38.2,25-66.4,56.7-66.4,56.7c5.7-46.7,31.4-71.7,72.1-69.8
		C3159.9,1901.8,3202.9,1914.9,3202.9,1983.8z"/>
</g>
<g>
	<path fill="#F7A491" d="M2701.3,2727l-41.1,379c0,0,20.1,80.2,17.7,102.9c-2.4,22.8-44.7,321.5-44.7,321.5l1.9,16.4l1,48.6
		l-158,1.2c0,0,33.3-15.4,79.9-45.8c3.4-2.3,14.7-9.7,16.6-24c12.4-92.1-15.5-398.9-15.5-398.9l-19.4-399.8L2701.3,2727z"/>
	<path fill="#032B9C" d="M2648.7,3499l-85.1-5.2c0,0-5-342.8-16.6-417.2c-11.6-74.4-18.4-323.1-6.6-418.9
		c10.1-82.5,48-214.4,48-214.4l131.3,27.5l26.6,6.9l-71.4,625c0,0,6.6,42.2,9.9,85.5C2688.1,3231.3,2648.7,3499,2648.7,3499z"/>
	<path fill="#F7A491" d="M2825.8,2796.8c8.9,2.3,22.5,327.6,29.8,342c46.5,91.4,57.6,369.3,57.6,369.3l19.2,38.9l-4.4,37.5
		c0,0-34.7,20.5-59.1,6.7l3.8-37.6l2.9-50.2l-117.4-346.2l-64.2-353.1L2825.8,2796.8z"/>
	<path fill="#0037D3" d="M2636.8,3607.9h-163.1c-6-0.6-7.5-5.6-5.4-8.8c4.3-6.5,36.1-21.9,57.5-32.2c37.5,4.1,103.5-11.9,109.4-20.9
		C2638.6,3564,2640.2,3607.1,2636.8,3607.9z"/>
	<path fill="#0037D3" d="M2932.3,3546.9c0,0-13.4,29-29,27.8c-15.7-1.2-30.5-21.3-30.5-21.3s-5.9,28.2-3.1,43.7
		c2.7,15.5,25.1,31.4,40.3,24.5C2925.3,3614.6,2946,3578.7,2932.3,3546.9z"/>
	<path fill="#0037D3" d="M2756.6,2401.6c0,0,3.6,30.3,7.5,36.4c10.3,16.3,38.7,67.6,54.6,107.5c14.3,36,18.9,65.6,24.4,98.9
		c17.1,103.9,11.6,420.7,11.6,420.7s30.7,68.4,43.2,159.3c12.5,90.9,21.6,241.3,21.6,241.3l-63.5,16.9l-129.2-403.6
		c0,0-61.4-353.4-81.4-400.1c-19.9-46.7-57.4-236.5-57.4-236.5L2756.6,2401.6z"/>
	<path fill="#F47458" d="M2854.3,2999.7C2854.3,2999.8,2854.3,2999.8,2854.3,2999.7L2854.3,2999.7z"/>
	<path fill="#F7A491" d="M2203.2,1808.6c1.4-14,38.5-25.2,49.4-28.6c10.9-3.4,3.8-0.6,15.9,3.4c1.5,0.5,38.1,58.7,38.1,58.7
		c11.5,18.9,117.4,187.6,153.1,213.2c36.4,26.2,181.6,71.8,181.6,71.8l6.6,96.6c0,0-200.4-71.6-243.3-110
		c-35.5-31.8-106.3-184.9-140.1-241.3l0,0C2255.6,1860.6,2201.7,1822.5,2203.2,1808.6z"/>
	<path fill="#B75742" d="M2542.8,2141.5c2.6-5.4-54.2-76.2-54.2-76.2c-56.7-49.1-156.8-202.8-156.8-202.8
		c-60.3,22.2-73.2,28.4-73.2,28.4c88.5,162.7,130.5,235.2,166.9,253.1c36.5,17.9,136.7,46.4,136.7,46.4
		C2542.8,2141.5,2542.8,2141.5,2542.8,2141.5z"/>
	<path fill="#B75742" d="M2714.3,2098.9c89.2,1.3,123.5-13,192.7,156.6c12,29.5,18.9,50.8,19.1,51.3c0,0-60.9,28.5-82.7,37.7
		c0,0-21.4-68.3-30.3-60.4c-8.9,8-13.2,149.3,8.7,196.6c71.8,153.2,60.8,627.3,63.6,642.8c0,0-332,25-407.3,8.5
		c0,0,98.4-794.1,94.6-803.2c-3.7-9.2-26.6-49.2-7.9-94.5c3.3-8.1,11.6-32.3,5.8-34c-45.7-13-114.6-48.8-114.6-48.8l32.6-86.2
		c0,0,100.9,24,135.2,28.5c29.9,3.9,60,4.8,90,5.2C2714,2098.9,2714.1,2098.9,2714.3,2098.9z"/>
	<path fill="#F7A491" d="M2955.1,2444.4c3,18.2-9.3,205.8-14.4,243.7c1.7,73.1-23.2,89.7-36.5,112.2c0,0-28.5,15.4-29.7,13.1
		c-1.4-2.7,1.4-6.5,5.8-9.7c1.7-1.2,4-1.8,5.8-3.1c1.8-1.2,3.5-3.6,5.1-4.7c3.8-2.7,6.6-3.6,6.6-3.6s1.8-4.8,4.7-9.8
		c2-3.6,5.2-7.7,5.6-8.7c2.6-6.3-0.4-4.2-0.4-4.2c-2.9,5-19,25.2-19,25.2s-30.6,24.7-31.1,22.2c-0.2-1.2,0.7-5.4,5.6-12
		c1.3-1.8,5-4,6.9-6.1c1.4-1.6,2.7-3.8,4.4-5.7c1.9-2,4.7-3.2,6.6-5.3c2.9-3.1,4.1-7.2,5.9-9.8c7.5-10.1,10.2-18,7.1-14.7
		c-4.6,4.9-11.6,24.6-33,40.4c-3.6,2.6-6,3.5-6.4,1.9c-0.3-1.2-0.1-5.8,2.5-9.9c1.9-2.8,5.7-4.4,8.2-7.9c1.4-2.1,2.3-4.9,3.8-7.1
		c5.9-8.9,8.5-4.2,14-38.7c-3,1.4-5.8,3.6-7.1,4.7c-2.3,2.1-13.5,22.1-17.6,17.8c-4-4.4,19.1-50.6,19.1-50.6l19.2-26.2
		c-4.3-178-9.6-220.7-10.7-222.1C2886.2,2465.6,2946.8,2394.2,2955.1,2444.4z"/>
	<path fill="#B75742" d="M2879,2322.4c-16.9,6.8-35.6,22.1-35.6,22.1c31.5,87.8,40.8,128.2,39.4,149.9
		c-1.4,21.7,2.6,180.5,2.6,180.5c31.2,19,63.7,19,63.7,19c26-161.5,23.4-238.9,15.6-276.9s-25.3-73.2-38.7-110.2
		C2912.7,2269.8,2879,2322.4,2879,2322.4z"/>
	<path fill="#F7A491" d="M2710.8,2025.2c0,0,2.5,58.8,9.7,80.5c7.2,21.7-15.1,100.2-60.1,111.7c-45,11.5-0.8-93.3-1.5-116.1
		c-0.7-22.8-15.2-90.3-15.2-90.3L2710.8,2025.2z"/>
	<path fill="#F47458" d="M2650.5,2044.9c-3.5-18.6-6.8-34-6.8-34l67.1,14.3c0,0,0.5,12,1.7,27.2
		C2687.4,2064.5,2665.9,2059.1,2650.5,2044.9z"/>
	<path fill="#032B9C" d="M2688.9,1837.4c82-1.1,149.8,41.7,144.6,117.7c-5.2,76-48.1,123.9-5.2,159.2c43,35.3,91.2,134.4,91.2,134.4
		c-58.7,141.2-253.8,122.5-317.9,93c-101.9-46.9-113-276.5-113-276.5c72.9,22.7,137.3,12.9,122.6-35.5
		c-14.8-48.4-12.2-111.3,13.9-147.7S2674.5,1837.6,2688.9,1837.4z"/>
	<path fill="#F7A491" d="M2687.6,1863c0,0,25,12.4,36.4,48.4c9.5,29.8,7.8,81.4-23.4,115c-44.8,48.1-82-17.1-82-66.8
		C2618.5,1901.9,2654.2,1850.9,2687.6,1863z"/>
	<path fill="#FFFFFF" d="M2625.5,1915.5c24.8-34.6,61.6-43,102.1,11.9c-2-32.6-27.2-69-51.5-71.8
		C2638.4,1855.6,2625.5,1915.5,2625.5,1915.5z"/>
	<path fill="#184655" d="M2017.5,1508.4l246,324.7l0.2,0.3c4.6,6.1,13,7.1,18.8,2.3c5.8-4.8,6.8-13.6,2.2-19.6
		c-0.1-0.1-0.2-0.3-0.4-0.4l-258.9-313.9l-0.1-0.1c-1.8-2.2-5.1-2.5-7.2-0.6C2016.1,1502.9,2015.8,1506.1,2017.5,1508.4z"/>
	<path fill="#F47458" d="M2229.5,1788.1l34.1,44.9l0.2,0.3c4.3,5.7,12,6.9,17.8,3.1c-0.8,1.3-1.8,2.4-3,3.4
		c-5.8,4.8-14.2,3.8-18.8-2.3l-0.2-0.3l-35.5-46.8C2225.8,1789.6,2227.6,1788.8,2229.5,1788.1z"/>
	<path fill="#F7A491" d="M2230.7,1768.1c0,0-36.4,33.6-27.2,47.7c10.1,15.5,23,23.9,23.7,19.2c0.7-4.7-7.8-27.3-7.8-27.3
		s11.5-15.2,13.8-23.4C2235.4,1776.1,2237.1,1767.6,2230.7,1768.1z"/>
	<path fill="#F7A491" d="M2247.7,1786c0,0,22.9,10.3,24.2,7.3c1.3-2.9-3.4-9.9-3.4-9.9s-30.8-24.4-31.9-15.6
		C2235.4,1776.6,2247.7,1786,2247.7,1786z"/>
	<path fill="#F7A491" d="M2207.2,1780c0,0,19.8-23.4,20.6-15.6c0.9,9.4-15.6,36.7-23.7,36.7C2196,1801.1,2196,1793,2207.2,1780z"/>
</g>
<g>
	<linearGradient id="SVGID_2_" gradientUnits="userSpaceOnUse" x1="986.2314" y1="2117.3203" x2="1697.8805" y2="2117.3203">
		<stop  offset="0" style="stop-color:#53EAC9"/>
		<stop  offset="0.9964" style="stop-color:#45AED8"/>
	</linearGradient>
	<path fill="url(#SVGID_2_)" d="M986.8,2139.8c0,0-13.5-97.6,91.8-105.1c105.3-7.5,619.3,11.3,619.3,11.3s-21.6,108.8,0,155.7
		c-99-0.9-671.5,0-671.5,0S983.4,2180.2,986.8,2139.8z"/>
	<linearGradient id="SVGID_3_" gradientUnits="userSpaceOnUse" x1="1321.2377" y1="1781.9065" x2="1361.6294" y2="2355.8933">
		<stop  offset="0" style="stop-color:#2B3582"/>
		<stop  offset="1" style="stop-color:#150E42"/>
	</linearGradient>
	<path fill="url(#SVGID_3_)" d="M1702.8,2189.8c-83.9,0-631.5,0-643.6,0c-13.1,0-63.2,3.6-62-55.2c0.6-28.3,14.9-45.5,29.7-56.5
		c13.7-10.2,30-15,46.8-15c85.9,0,526,0,586.2,0c66.7,0,47.1-60.1,47.1-60.1l-0.6,0.1l-626.9-0.9c0,0-93,57.7-102.9,116.7
		c-2.3,13.9-2,26.9,0,37.8c5.7,31.9,32.3,55.5,63.2,55.5h663c5.9,0,10.7-4.9,10.7-11.1C1713.5,2194.7,1708.7,2189.8,1702.8,2189.8z"
		/>
	<linearGradient id="SVGID_4_" gradientUnits="userSpaceOnUse" x1="1306.0046" y1="461.6292" x2="1448.5419" y2="2487.1541">
		<stop  offset="0" style="stop-color:#2B3582"/>
		<stop  offset="1" style="stop-color:#150E42"/>
	</linearGradient>
	<path fill="url(#SVGID_4_)" d="M1688,1195.4h-620.9v852h621.2c11.7,0,21.3-9.5,21.3-21.3V1217
		C1709.6,1205.1,1699.9,1195.4,1688,1195.4z"/>
	<linearGradient id="SVGID_5_" gradientUnits="userSpaceOnUse" x1="976.5112" y1="1656.3761" x2="1066.9037" y2="1656.3761">
		<stop  offset="0" style="stop-color:#2B3582"/>
		<stop  offset="1" style="stop-color:#150E42"/>
	</linearGradient>
	<path fill="url(#SVGID_5_)" d="M1066.9,1194.1c0,0-97.2,20.2-90,98.3c7.2,78.1-0.4,826.2-0.4,826.2s29.2-72.7,90.4-72.7
		C1066.9,1884.6,1066.9,1194.1,1066.9,1194.1z"/>
	<path fill="#FFFFFF" d="M1632,2078.6h-472.4c-0.4,0-0.7-0.3-0.7-0.7v-3c0-0.4,0.3-0.7,0.7-0.7H1632c0.4,0,0.7,0.3,0.7,0.7v3
		C1632.7,2078.3,1632.4,2078.6,1632,2078.6z"/>
	<path fill="#FFFFFF" d="M1643.4,2125.3c0,0.8-1,2.2-1.8,2.2h-548c-0.9,0-3-1.5-3-2.2v-2.1c0-0.8,2.1-0.1,3-0.1h548
		c0.9,0,1.8-0.7,1.8,0.1V2125.3z"/>
	<path fill="#FFFFFF" d="M1652.6,2172h-347.2c-0.8,0-1.4-0.6-1.4-1.4v-3.8c0-0.8,0.6-1.4,1.4-1.4h347.2c0.8,0,1.4,0.6,1.4,1.4v3.8
		C1654.1,2171.4,1653.4,2172,1652.6,2172z"/>
	<g>
		<g>
			<path fill="#DDDEE0" d="M1088.5,1954.9c-1.2,0-2.1-1-2.1-2.2V1639c0-1.2,1-2.2,2.1-2.2s2.1,1,2.1,2.2v313.7
				C1090.6,1953.9,1089.7,1954.9,1088.5,1954.9z"/>
		</g>
		<g>
			<path fill="#DDDEE0" d="M1088.5,1592.3c-1.2,0-2.1-1-2.1-2.2v-151.3c0-1.2,1-2.2,2.1-2.2s2.1,1,2.1,2.2v151.3
				C1090.6,1591.3,1089.7,1592.3,1088.5,1592.3z"/>
		</g>
		<g>
			<path fill="#DDDEE0" d="M1088.5,1307.6c-1.2,0-2.1-1-2.1-2.2v-84.5c0-1.2,1-2.2,2.1-2.2s2.1,1,2.1,2.2v84.5
				C1090.6,1306.6,1089.7,1307.6,1088.5,1307.6z"/>
		</g>
	</g>
	<g>
		<g>
			<path fill="#DDDEE0" d="M1638,1969.3h-464.8c-7.9,0-13.7-6.4-13.7-14.3v-666.1c0-7.9,5.9-14.3,13.7-14.3H1638
				c7.9,0,14.2,6.4,14.2,14.3V1955C1652.2,1962.9,1645.8,1969.3,1638,1969.3z M1173.2,1285.9c-1.6,0-2.8,1.3-2.8,2.9V1955
				c0,1.6,1.2,2.9,2.8,2.9H1638c1.6,0,3.3-1.3,3.3-2.9v-666.1c0-1.6-1.7-2.9-3.3-2.9H1173.2z"/>
		</g>
		<g>
			<path fill="#DDDEE0" d="M1601.7,1931.7h-393.4c-7.9,0-13.9-6.4-13.9-14.3v-589.8c0-7.9,6.1-14.3,13.9-14.3h393.4
				c7.9,0,14.5,6.4,14.5,14.3v589.8C1616.2,1925.3,1609.5,1931.7,1601.7,1931.7z M1208.3,1324.7c-1.6,0-3,1.3-3,2.9v589.8
				c0,1.6,1.4,2.9,3,2.9h393.4c1.6,0,2.5-1.3,2.5-2.9v-589.8c0-1.6-0.9-2.9-2.5-2.9H1208.3z"/>
		</g>
	</g>
	<g>
		<path fill="#DDDEE0" d="M1497.2,1721.1c-6.7,1.4-13.7,2.1-20.8,2.1c-58.5,0-106-49.5-106-110.5s47.5-110.5,106-110.5
			c7.1,0,14.1,0.7,20.8,2.1c0.9,0.2,1.9-0.3,2.2-1.2c0.4-0.9,0.1-2-0.7-2.5c-21.2-15.5-47.1-24.5-74.9-24.5
			c-72.4,0-131.1,61.2-131.1,136.6c0,75.5,58.7,136.6,131.1,136.6c27.9,0,53.7-9.1,74.9-24.5c0.8-0.6,1.1-1.6,0.7-2.5
			S1498.2,1720.9,1497.2,1721.1z"/>
		<path fill="#DDDEE0" d="M1519.2,1606.3c0.5-0.6,0.7-1.4,0.5-2.1c-0.2-0.8-0.9-1.3-1.6-1.4l-21.3-3.2c-0.7-0.1-1.2-0.5-1.5-1.1
			l-9.5-20.2c-0.3-0.7-1-1.2-1.8-1.2c-0.8,0-1.5,0.5-1.8,1.2l-9.5,20.2c-0.3,0.6-0.9,1-1.5,1.1l-21.3,3.2c-0.8,0.1-1.4,0.7-1.6,1.4
			c-0.2,0.8,0,1.6,0.5,2.1l15.4,15.7c0.5,0.5,0.7,1.2,0.6,1.8l-3.6,22.2c-0.1,0.8,0.2,1.6,0.8,2c0.6,0.5,1.4,0.5,2.1,0.2l20-11
			l20,11c0.7,0.4,1.5,0.3,2.1-0.2c0.6-0.5,0.9-1.3,0.8-2l-3.6-22.2c-0.1-0.7,0.1-1.4,0.6-1.8L1519.2,1606.3z"/>
	</g>
</g>
</svg>
