<?xml version="1.0" encoding="utf-8"?>
<!-- Generator: Adobe Illustrator 19.0.0, SVG Export Plug-In . SVG Version: 6.00 Build 0)  -->
<svg version="1.1" id="Layer_1" xmlns="http://www.w3.org/2000/svg" xmlns:xlink="http://www.w3.org/1999/xlink" x="0px" y="0px"
	 width="4224px" height="5352px" viewBox="1924 -2526 4224 5352" enable-background="new 1924 -2526 4224 5352"
	 xml:space="preserve">
<linearGradient id="SVGID_1_" gradientUnits="userSpaceOnUse" x1="7151.8672" y1="-2583.9453" x2="11687.3711" y2="-2583.9453" gradientTransform="matrix(-0.4862 -0.6908 0.7716 -0.543 10555.582 5040.2061)">
	<stop  offset="9.865597e-008" style="stop-color:#B37CFF"/>
	<stop  offset="1" style="stop-color:#F895E7"/>
</linearGradient>
<path opacity="0.26" fill="url(#SVGID_1_)" enable-background="new    " d="M5619.6-117.5c-151.8,392.5,598.5,817,79.9,1187.5
	c-607.2,433.8-1217.3-76.9-1500,441.1s-786.7,490-1341.2-350.3s-1055-2424-260.1-2524.2s679-337.2,923.1-540
	c244.2-202.8,913.5-449.7,883.8,538.1C4375.4-377.3,6004-1111.4,5619.6-117.5z"/>
<g>
	<g>
		<g>
			<path fill="#50BFA5" d="M3184.9,1095.8c0,0-146.1-475.5-157.9-580.4c-11.7-104.9,70-72.4,70-72.4s-68.7-199.9-19-247.3
				c49.7-47.4,94.5,41,94.5,41s15-242.6,68-242.7c98.7-0.2,96.8,264.6,96.8,264.6s22.8-106.1,92.7-64.9
				c77.8,45.9-29.1,264.3-29.1,264.3s84.8-26.2,117,25.1C3626.8,656.1,3184.9,1095.8,3184.9,1095.8z"/>
		</g>
	</g>
	<g>
		<g>
			<path fill="#50BFA5" d="M3232.6,1032.9c0,0-421.3-67.6-512.9-139.3c-91.6-71.7-0.9-104-0.9-104s-211.6-104.1-209.2-175
				c2.4-70.8,107.6-34.8,107.6-34.8s-178.3-195.2-136.1-232.3c78.6-69,284.8,133.9,284.8,133.9s-61.2-96.5,3.3-111.8
				c97.2-23,169,214.9,169,214.9s-18.2-94,48.8-81.4C3107.2,525.6,3232.6,1032.9,3232.6,1032.9z"/>
		</g>
		<path fill="#3C8F7C" d="M2986.9,503.1c-67.2-11.7-48.8,81.4-48.8,81.4s-71.7-237.9-169-214.9c-64.5,15.3-3.3,111.8-3.3,111.8
			S2559.7,278.5,2481,347.5l750.1,685.4C3217.9,967.5,3099.6,522.7,2986.9,503.1z"/>
	</g>
	<g>
		<path fill="#355389" d="M3401,1088.6c0,0-221.9-216.6-333.6-239.1c-111.7-22.6-91.6,53.8-91.6,53.8s-221.7-186.1-273-141
			c-51.4,45.1,4.2,88.6,4.2,88.6s-184.6-31.4-211.1,26.8c-40.6,89.4,263,138,263,138s-127.2,8.5-97.7,64.5
			C2705.7,1164.7,3401,1088.6,3401,1088.6z"/>
		<path fill="#466EB6" d="M2495.9,877.6c26.4-58.2,211.1-26.8,211.1-26.8s-55.6-43.5-4.2-88.6c51.4-45.1,266.1,115.7,266.1,115.7
			s-50.6-92.9,61.1-70.4c111.7,22.6,371,281.1,371,281.1L2495.9,877.6z"/>
	</g>
</g>
<g>
	<path fill="#00B3BF" d="M5395.9,1176.2H2332c-14.1,0-25.5-17.1-25.5-38.2l0,0c0-21.1,11.4-38.2,25.5-38.2h3063.9
		c14.1,0,25.5,17.1,25.5,38.2l0,0C5421.5,1159.1,5410,1176.2,5395.9,1176.2z"/>
</g>
<g>
	<path fill="#676E9C" d="M5310.6,1099.7H3867.3l0,0c0-97,75.4-175.6,168.5-175.6h1106.4C5235.2,924.1,5310.6,1002.7,5310.6,1099.7
		L5310.6,1099.7z"/>
</g>
<g>
	<path fill="#B75742" d="M4443.5,1101.4H2982.7c-55.8,0-101-53-101-118.4v-70.4c0-65.4,45.2-118.4,101-118.4h1460.8l0,0
		c-66.8,85.6-68,216.3-2.7,303.5L4443.5,1101.4z"/>
	<path fill="#FAE0B2" d="M4420.9,829.5h-810.2c-55.8,0-101,53-101,118.4l0,0c0,65.4,45.2,118.4,101,118.4H4421
		C4383.1,993.6,4383.2,902,4420.9,829.5z"/>
	<g>
		<path fill="#F47458" d="M4293.5,581.1c2.1-4.5-1.1-9.7-6-9.7H3151.3c-60.6,0-91.1,49.9-91.1,111.5l0,0
			c0,61.6,30.5,111.5,91.1,111.5h1136.4c4.9,0,8.2-5.2,6-9.8l0,0C4263.1,720.2,4263.2,645.3,4293.5,581.1z"/>
		<path fill="#F7CC7F" d="M4288.6,592.1h-746.3c-71.1,0-101.2,41.8-101.2,93.4c0,51.6,30.1,93.4,101.2,93.4h748.8
			C4264.8,719.6,4264,651.9,4288.6,592.1z"/>
	</g>
	<g>
		<path fill="#B75742" d="M4179.6,636.4h-49.9c-10.7,0-19.4,4.1-19.4,9.1v0.8h69.3L4179.6,636.4L4179.6,636.4z"/>
		<path fill="#F47458" d="M4222.1,659.2c0-12.6-13-22.8-29.1-22.8h-64c12.2,0,22.1,7.7,22.1,17.3l-0.3,244.3l35.4-31.4l36.1,31.4
			L4222.1,659.2z"/>
	</g>
	<g>
		<path fill="#FAE0B2" d="M4052.7,563.3h-532.8c-47.2,0-85.6-43.3-85.6-96.8l0,0c0-53.5,38.3-96.8,85.6-96.8h532.8l0,0
			c-40.7,53.7-42.3,132.4-3.8,188.1L4052.7,563.3z"/>
		<path fill="#466EB6" d="M3434.4,466.5L3434.4,466.5c0-53.5,39.2-96.8,87.6-96.8h540.9c2.5,0,4.6-2.3,4.5-5.1l0,0c0-2.8-2-5-4.5-5
			h-858.1c-53.4,0-96.6,47.8-96.6,106.8l0,0c0,59,43.3,106.8,96.6,106.8h858.1c2.5,0,4.5-2.2,4.5-5l0,0c0-2.8-2-5.1-4.5-5.1H3522
			C3473.6,563.3,3434.4,520,3434.4,466.5z"/>
		<g>
			<path fill="#184655" d="M3959.7,417.3h-59.1c-12.7,0-23,4-23,8.9v0.8h82.1V417.3z"/>
			<path fill="#3C8F7C" d="M4010.1,439.6c0-12.3-15.4-22.4-34.5-22.4h-75.9c14.4,0,26.2,7.6,26.2,17l-0.4,239.6l41.9-30.8l42.7,30.8
				V439.6z"/>
		</g>
	</g>
	<g>
		<path fill="#B75742" d="M4275.7,152.1H3124.9c-35.7,0-64.7,32.7-64.7,73.1v61.5c0,40.4,29,73.1,64.7,73.1h1150.8l-0.6-0.7
			C4225.9,301.1,4226.2,209.6,4275.7,152.1z"/>
		<path fill="#FAE0B2" d="M4255.4,182.8h-615.2c-35.7,0-64.7,32.7-64.7,73.1l0,0c0,40.4,29,73.1,64.7,73.1h615.2
			C4232.7,283.7,4232.8,228,4255.4,182.8z"/>
	</g>
</g>
<g>
	<path fill="#F7A491" d="M5380.7,937.3c0,0,6.4,64.8,22.9,76.7s38.4,55.9,27.4,79.7s-57.1,15.5-57.1,15.5s-27.4-25-29.9-77.6
		s-18.9-79.4-18.9-79.4L5380.7,937.3z"/>
	<path fill="#F7A491" d="M5120,963.2c0,0-5.2,65.4-1,86.6c2.3,11.4,14.8,34.8,9.1,45.5c-5.8,10.7-12.4,13.4-12.4,13.4l-167.2,2.7
		c0,0,0.4-21,79.9-43.7c10.1-2.9,21.1-12.8,30.1-22.7c10.7-11.9,11.7-69.4,11.7-69.4L5120,963.2z"/>
	<path fill="#3C8F7C" d="M5000.6,94.3c0,0-19.1,106.1-6.5,175.7c12.5,69.6,64.9,717.9,64.9,717.9l79.7,0.9
		c0,0,14.6-265.4,12.1-302.9s-19.9-95.3-19.9-95.3l-1.6-226.9L5045,78L5000.6,94.3z"/>
	<path fill="#355389" d="M5192.9,32.8c0,0,79.3,76.2,93.4,182.9c8.6,64.9-16.6,236.1,7.5,320.3c13,45.6,59.8,134,67.3,192.9
		s39,220.1,39,220.1l-390.9,64.3c-45.7-328.7-58.3-636.7-15.6-911.8l15.6-53.6L5192.9,32.8z"/>
	<path fill="#F47458" d="M5350.9,1069.3c35.9,6.5,59.8-14.4,72.2-30c9.1,17.7,14.7,39.8,8,54.3c-11,23.8-57.1,15.5-57.1,15.5
		S5359.8,1096.2,5350.9,1069.3z"/>
	<path fill="#F47458" d="M5028.4,1067.6c2.9-0.8,5.8-2.2,8.8-4c39.5,10.1,68.7,3.2,85-3.3c4.2,11.9,10.1,25.9,8.8,34.9
		c-1.5,10.9-6.4,14.8-6.4,14.8l-176.1,1.3C4948.6,1111.3,4948.9,1090.3,5028.4,1067.6z"/>
	<g>
		<path fill="#F48C7F" d="M4776.1,280c0,0,7.9-8.4,10.3-11.4c2.8-3.5,10.4-14.7,10.4-14.7s24.6-40.1,21.5-41.6
			c-3.2-1.5-11.3,3.1-13.7,5c-2.4,2-5.4,4-7.8,6c-2.4,2-5.9,1.8-8.5-0.9c-2.7-2.7,5.2-12.6,8.6-15.4c10.6-8.9,43.9-27.3,47.3-29.4
			c4.1-2.5,33.7-79.6,46-105.2l0,0c18.9-42.5,36.1-87.2,38.1-91.7l23.8-197l77.1-20c0,0-23.2,218.9-25.7,229.7
			c-1.2,5.1-52.7,100.5-52.7,100.5c-28.4,45.4-53.5,85.3-58.1,93.1c0,0-7.4,26.9-11,44.3c-3.7,17.4-14.2,32-16,36.8
			c-0.3,0.7-5.5,17.3-19.2,34.1c-11.8,14.4-7.3-4.6-7.3-4.6s16.9-30.6,14.3-31.5c-2.1-0.7-10.3,16.6-23.2,32.7
			c-3.3,4.1-6.6,8.2-9.6,11.9c-8,9.8-16.4,7.7-9.7-3.9c2.4-4.1,6.5-10.7,10.1-15.1c3.9-4.7,5.9-10.3,8.6-14.7
			c5.3-8.8,9.3-15.2,8.8-15.2c-0.6,0-0.8-2.5-4.5,1.8c-4.4,5.2-11.2,18.1-18.3,25.2c-4,4-11.8,12.9-11.8,12.9s-14.3,13-15.3,12.4
			c-5.2-3.3,2.4-15.5,8.5-20.3c2.3-5,10.8-14.1,10.8-14.1s13-22.3,9.8-24.2c-2.6-1.5-44.2,45.9-49.2,42.2
			C4764.2,294.8,4776.1,280,4776.1,280z"/>
		<path fill="#1C3B73" d="M4967.3-114.4c-10-3.7-29.6-34.4-37.7,14.3s-10.2,82.4-10.2,82.4c-26.1,62.4-75.6,187.2-75.6,187.2
			c18.8,15,68.3,18.1,68.3,18.1C4964.7,100.2,5003,2.3,5003,2.3C5010.1-67,4967.3-114.4,4967.3-114.4z"/>
		<path fill="#F47458" d="M4853.3,210.3c0,0-22.7,12.8-34.7,2.3c0,0,4.5,8.5,14.5,8.6C4843,221.3,4853.3,210.3,4853.3,210.3z"/>
	</g>
	<path fill="#1C3B73" d="M5017.6-367.6c0,0-23,10.6-54.1,73.3c-29,58.4-33.7,194.2-33.7,194.2s46.1,14.6,72.6,9.6
		C5028.8-95.5,5017.6-367.6,5017.6-367.6z"/>
	<path fill="#355389" d="M5104.6-387.3c0,0,15.4,1.3,93.5,17.9c12.7,2.7,32.7,17.2,40.4,30.8c40,70.8,75.1,197.5,75.1,197.5
		s-65.3,21.3-88,21.3l-26.9-84.3c0,0-30.6,177.9-17.9,208c12.6,30.1,44.2,106.6,44.2,106.6s-0.5,16.3-119.9,28.8
		c-47.9,5-107.6-5.2-107.6-5.2s10.9-115.5,1.2-165.7c-15.7-81.8-46.3-179.7-47.9-192.2c-2.5-20.1,44-133.8,68-144.6
		c6.2-2.8,16.5-8.5,25.6-10.6C5072.3-385.4,5104.6-387.3,5104.6-387.3z"/>
	<polygon fill="#F7CC7F" points="4990.1,115.6 5138.2,91.3 5103.6,-127.5 4947.8,-97 	"/>
	<path fill="#F7A491" d="M4965.7-8.5c0.3-1.1,16.4,3.3,27.6-1.5c2.2-1-7.7-6.3-9.2-8.2c-0.2-0.2-19.5-7.8-19.5-15.4
		c0-7.7,15.7-5.7,15.7-5.7s45.5,11.2,52.5,16s10.4,8.7,10.9,9.2c2.7,0.3,5,0.5,6.7,0.4c39.4-2.5,100.5-23.2,193.2-56.6l-9.6-50
		c20.5-2.7,55.2-13,71.1-17.9c6.5,38.3,19.8,104.3,14.1,118.5c-4,9.9-53.3,25.6-108.7,40.6c-70.5,19.2-90.1,18.7-153.1,26.4
		c-19.1,2.2-43.8,12.9-53.7,14.9c-14.6,2.9-19.4,5.5-28.3-0.7c-7.5-5.3-9.8-21.3-10.7-31.3C4963.2,11,4962.5,3.7,4965.7-8.5z"/>
	<path fill="#355389" d="M5263.7-178.4c32,11.2,36.9,6.3,49.9,37.3S5336-15.6,5323.8-6.7s-137.5,51.5-253.4,54.5
		c-8.8-12.9,0-79.3,0-79.3c113.4-24.3,159-45.9,159-45.9c-7-43.5-20.7-105.3-20.7-105.3C5239.3-175.6,5263.7-178.4,5263.7-178.4z"/>
	<path fill="#F7A491" d="M5094.2-467.9c0,0,2.5,56.9,9.8,77.9s-15.3,97-60.8,108.1c-41.1,10-11.4-61-5.7-91.3
		c0.6-3.3-7.3-108.7-7.3-108.7L5094.2-467.9z"/>
	<path fill="#F47458" d="M5033.1-448.8c-3.6-18-6.9-32.9-6.9-32.9l68,13.8c0,0,0.5,11.6,1.7,26.3
		C5070.5-429.8,5048.7-435.1,5033.1-448.8z"/>
	<path fill="#F47458" d="M5066.9-665.4c85.5-3.1,126.2,64.9,127.4,151c1.1,86.1-2.6,92.9,38.7,146.9c41.3,54,68.9,169.8,111.5,184.9
		c-78.9,61.3-237,32.6-341.5,45.1c-104.6,12.5-104.8-0.9-104.8-0.9c30.3-127.7,76.6-201.4,76.6-243.1c0-79.6-6.5-152,8.2-209.1
		C4999.9-656,5039.3-664.4,5066.9-665.4z"/>
	<path fill="#F7A491" d="M5073.6-622.7c0,0,26.7,7.4,42.1,33.6c15.4,26.2,23.1,101.3-33.6,133.4c-56.7,32.1-96.9-19.3-95.2-67.4
		C4988.7-571.2,5002.2-634.8,5073.6-622.7z"/>
	<path fill="#355389" d="M5126.9-542.2c-39.9-19.9-70-71.4-70-71.4c-38.2,25-66.4,56.7-66.4,56.7c5.7-46.7,31.4-71.7,72.1-69.8
		C5083.9-624.2,5126.9-611.1,5126.9-542.2z"/>
</g>
<g>
	<path fill="#F7A491" d="M4625.3,201l-41.1,379c0,0,20.1,80.2,17.7,102.9c-2.4,22.8-44.7,321.5-44.7,321.5l1.9,16.4l1,48.6l-158,1.2
		c0,0,33.3-15.4,79.9-45.8c3.4-2.3,14.7-9.7,16.6-24c12.4-92.1-15.5-398.9-15.5-398.9l-19.4-399.8L4625.3,201z"/>
	<path fill="#032B9C" d="M4572.7,973l-85.1-5.2c0,0-5-342.8-16.6-417.2c-11.6-74.4-18.4-323.1-6.6-418.9
		c10.1-82.5,48-214.4,48-214.4l131.3,27.5l26.6,6.9l-71.4,625c0,0,6.6,42.2,9.9,85.5C4612.1,705.3,4572.7,973,4572.7,973z"/>
	<path fill="#F7A491" d="M4749.8,270.8c8.9,2.3,22.5,327.6,29.8,342c46.5,91.4,57.6,369.3,57.6,369.3l19.2,38.9l-4.4,37.5
		c0,0-34.7,20.5-59.1,6.7l3.8-37.6l2.9-50.2l-117.4-346.2L4618,278.1L4749.8,270.8z"/>
	<path fill="#0037D3" d="M4560.8,1081.9h-163.1c-6-0.6-7.5-5.6-5.4-8.8c4.3-6.5,36.1-21.9,57.5-32.2c37.5,4.1,103.5-11.9,109.4-20.9
		C4562.6,1038,4564.2,1081.1,4560.8,1081.9z"/>
	<path fill="#0037D3" d="M4856.3,1020.9c0,0-13.4,29-29,27.8c-15.7-1.2-30.5-21.3-30.5-21.3s-5.9,28.2-3.1,43.7
		c2.7,15.5,25.1,31.4,40.3,24.5C4849.3,1088.6,4870,1052.7,4856.3,1020.9z"/>
	<path fill="#0037D3" d="M4680.6-124.4c0,0,3.6,30.3,7.5,36.4c10.3,16.3,38.7,67.6,54.6,107.5c14.3,36,18.9,65.6,24.4,98.9
		c17.1,103.9,11.6,420.7,11.6,420.7s30.7,68.4,43.2,159.3c12.5,90.9,21.6,241.3,21.6,241.3l-63.5,16.9L4650.8,553
		c0,0-61.4-353.4-81.4-400.1c-19.9-46.7-57.4-236.5-57.4-236.5L4680.6-124.4z"/>
	<path fill="#F47458" d="M4778.3,473.7C4778.3,473.8,4778.3,473.8,4778.3,473.7L4778.3,473.7z"/>
	<path fill="#F7A491" d="M4127.2-717.4c1.4-14,38.5-25.2,49.4-28.6c10.9-3.4,3.8-0.6,15.9,3.4c1.5,0.5,38.1,58.7,38.1,58.7
		c11.5,18.9,117.4,187.6,153.1,213.2c36.4,26.2,181.6,71.8,181.6,71.8l6.6,96.6c0,0-200.4-71.6-243.3-110
		c-35.5-31.8-106.3-184.9-140.1-241.3l0,0C4179.6-665.4,4125.7-703.5,4127.2-717.4z"/>
	<path fill="#B75742" d="M4466.8-384.5c2.6-5.4-54.2-76.2-54.2-76.2c-56.7-49.1-156.8-202.8-156.8-202.8
		c-60.3,22.2-73.2,28.4-73.2,28.4c88.5,162.7,130.5,235.2,166.9,253.1c36.5,17.9,136.7,46.4,136.7,46.4
		C4466.8-384.5,4466.8-384.5,4466.8-384.5z"/>
	<path fill="#B75742" d="M4638.3-427.1c89.2,1.3,123.5-13,192.7,156.6c12,29.5,18.9,50.8,19.1,51.3c0,0-60.9,28.5-82.7,37.7
		c0,0-21.4-68.3-30.3-60.4c-8.9,8-13.2,149.3,8.7,196.6c71.8,153.2,60.8,627.3,63.6,642.8c0,0-332,25-407.3,8.5
		c0,0,98.4-794.1,94.6-803.2c-3.7-9.2-26.6-49.2-7.9-94.5c3.3-8.1,11.6-32.3,5.8-34c-45.7-13-114.6-48.8-114.6-48.8l32.6-86.2
		c0,0,100.9,24,135.2,28.5c29.9,3.9,60,4.8,90,5.2C4638-427.1,4638.1-427.1,4638.3-427.1z"/>
	<path fill="#F7A491" d="M4879.1-81.6c3,18.2-9.3,205.8-14.4,243.7c1.7,73.1-23.2,89.7-36.5,112.2c0,0-28.5,15.4-29.7,13.1
		c-1.4-2.7,1.4-6.5,5.8-9.7c1.7-1.2,4-1.8,5.8-3.1c1.8-1.2,3.5-3.6,5.1-4.7c3.8-2.7,6.6-3.6,6.6-3.6s1.8-4.8,4.7-9.8
		c2-3.6,5.2-7.7,5.6-8.7c2.6-6.3-0.4-4.2-0.4-4.2c-2.9,5-19,25.2-19,25.2s-30.6,24.7-31.1,22.2c-0.2-1.2,0.7-5.4,5.6-12
		c1.3-1.8,5-4,6.9-6.1c1.4-1.6,2.7-3.8,4.4-5.7c1.9-2,4.7-3.2,6.6-5.3c2.9-3.1,4.1-7.2,5.9-9.8c7.5-10.1,10.2-18,7.1-14.7
		c-4.6,4.9-11.6,24.6-33,40.4c-3.6,2.6-6,3.5-6.4,1.9c-0.3-1.2-0.1-5.8,2.5-9.9c1.9-2.8,5.7-4.4,8.2-7.9c1.4-2.1,2.3-4.9,3.8-7.1
		c5.9-8.9,8.5-4.2,14-38.7c-3,1.4-5.8,3.6-7.1,4.7c-2.3,2.1-13.5,22.1-17.6,17.8c-4-4.4,19.1-50.6,19.1-50.6l19.2-26.2
		c-4.3-178-9.6-220.7-10.7-222.1C4810.2-60.4,4870.8-131.8,4879.1-81.6z"/>
	<path fill="#B75742" d="M4803-203.6c-16.9,6.8-35.6,22.1-35.6,22.1c31.5,87.8,40.8,128.2,39.4,149.9c-1.4,21.7,2.6,180.5,2.6,180.5
		c31.2,19,63.7,19,63.7,19c26-161.5,23.4-238.9,15.6-276.9s-25.3-73.2-38.7-110.2C4836.7-256.2,4803-203.6,4803-203.6z"/>
	<path fill="#F7A491" d="M4634.8-500.8c0,0,2.5,58.8,9.7,80.5s-15.1,100.2-60.1,111.7s-0.8-93.3-1.5-116.1s-15.2-90.3-15.2-90.3
		L4634.8-500.8z"/>
	<path fill="#F47458" d="M4574.5-481.1c-3.5-18.6-6.8-34-6.8-34l67.1,14.3c0,0,0.5,12,1.7,27.2
		C4611.4-461.5,4589.9-466.9,4574.5-481.1z"/>
	<path fill="#032B9C" d="M4612.9-688.6c82-1.1,149.8,41.7,144.6,117.7s-48.1,123.9-5.2,159.2c43,35.3,91.2,134.4,91.2,134.4
		c-58.7,141.2-253.8,122.5-317.9,93c-101.9-46.9-113-276.5-113-276.5c72.9,22.7,137.3,12.9,122.6-35.5
		c-14.8-48.4-12.2-111.3,13.9-147.7S4598.5-688.4,4612.9-688.6z"/>
	<path fill="#F7A491" d="M4611.6-663c0,0,25,12.4,36.4,48.4c9.5,29.8,7.8,81.4-23.4,115c-44.8,48.1-82-17.1-82-66.8
		C4542.5-624.1,4578.2-675.1,4611.6-663z"/>
	<path fill="#FFFFFF" d="M4549.5-610.5c24.8-34.6,61.6-43,102.1,11.9c-2-32.6-27.2-69-51.5-71.8
		C4562.4-670.4,4549.5-610.5,4549.5-610.5z"/>
	<path fill="#184655" d="M3941.5-1017.6l246,324.7l0.2,0.3c4.6,6.1,13,7.1,18.8,2.3c5.8-4.8,6.8-13.6,2.2-19.6
		c-0.1-0.1-0.2-0.3-0.4-0.4l-258.9-313.9l-0.1-0.1c-1.8-2.2-5.1-2.5-7.2-0.6C3940.1-1023.1,3939.8-1019.9,3941.5-1017.6z"/>
	<path fill="#F47458" d="M4153.5-737.9l34.1,44.9l0.2,0.3c4.3,5.7,12,6.9,17.8,3.1c-0.8,1.3-1.8,2.4-3,3.4
		c-5.8,4.8-14.2,3.8-18.8-2.3l-0.2-0.3l-35.5-46.8C4149.8-736.4,4151.6-737.2,4153.5-737.9z"/>
	<path fill="#F7A491" d="M4154.7-757.9c0,0-36.4,33.6-27.2,47.7c10.1,15.5,23,23.9,23.7,19.2c0.7-4.7-7.8-27.3-7.8-27.3
		s11.5-15.2,13.8-23.4C4159.4-749.9,4161.1-758.4,4154.7-757.9z"/>
	<path fill="#F7A491" d="M4171.7-740c0,0,22.9,10.3,24.2,7.3c1.3-2.9-3.4-9.9-3.4-9.9s-30.8-24.4-31.9-15.6
		C4159.4-749.4,4171.7-740,4171.7-740z"/>
	<path fill="#F7A491" d="M4131.2-746c0,0,19.8-23.4,20.6-15.6c0.9,9.4-15.6,36.7-23.7,36.7S4120-733,4131.2-746z"/>
</g>
<g>
	
		<linearGradient id="SVGID_2_" gradientUnits="userSpaceOnUse" x1="2910.2378" y1="708.6834" x2="3621.8999" y2="708.6834" gradientTransform="matrix(1 0 0 -1 0 300)">
		<stop  offset="0" style="stop-color:#53EAC9"/>
		<stop  offset="0.9964" style="stop-color:#45AED8"/>
	</linearGradient>
	<path fill="url(#SVGID_2_)" d="M2910.8-386.2c0,0-13.5-97.6,91.8-105.1c105.3-7.5,619.3,11.3,619.3,11.3s-21.6,108.8,0,155.7
		c-99-0.9-671.5,0-671.5,0S2907.4-345.8,2910.8-386.2z"/>
	
		<linearGradient id="SVGID_3_" gradientUnits="userSpaceOnUse" x1="3245.3035" y1="1044.0981" x2="3285.6953" y2="470.1113" gradientTransform="matrix(1 0 0 -1 0 300)">
		<stop  offset="0" style="stop-color:#2B3582"/>
		<stop  offset="1" style="stop-color:#150E42"/>
	</linearGradient>
	<path fill="url(#SVGID_3_)" d="M3626.8-336.2c-83.9,0-631.5,0-643.6,0c-13.1,0-63.2,3.6-62-55.2c0.6-28.3,14.9-45.5,29.7-56.5
		c13.7-10.2,30-15,46.8-15c85.9,0,526,0,586.2,0c66.7,0,47.1-60.1,47.1-60.1l-0.6,0.1l-626.9-0.9c0,0-93,57.7-102.9,116.7
		c-2.3,13.9-2,26.9,0,37.8c5.7,31.9,32.3,55.5,63.2,55.5h663c5.9,0,10.7-4.9,10.7-11.1C3637.5-331.3,3632.7-336.2,3626.8-336.2z"/>
	
		<linearGradient id="SVGID_4_" gradientUnits="userSpaceOnUse" x1="3230.0034" y1="2364.3706" x2="3372.5405" y2="338.8458" gradientTransform="matrix(1 0 0 -1 0 300)">
		<stop  offset="0" style="stop-color:#2B3582"/>
		<stop  offset="1" style="stop-color:#150E42"/>
	</linearGradient>
	<path fill="url(#SVGID_4_)" d="M3612-1330.6h-620.9v852h621.2c11.7,0,21.3-9.5,21.3-21.3V-1309
		C3633.6-1320.9,3623.9-1330.6,3612-1330.6z"/>
	
		<linearGradient id="SVGID_5_" gradientUnits="userSpaceOnUse" x1="2900.5" y1="1169.6499" x2="2990.8999" y2="1169.6499" gradientTransform="matrix(1 0 0 -1 0 300)">
		<stop  offset="0" style="stop-color:#2B3582"/>
		<stop  offset="1" style="stop-color:#150E42"/>
	</linearGradient>
	<path fill="url(#SVGID_5_)" d="M2990.9-1331.9c0,0-97.2,20.2-90,98.3c7.2,78.1-0.4,826.2-0.4,826.2s29.2-72.7,90.4-72.7
		C2990.9-641.4,2990.9-1331.9,2990.9-1331.9z"/>
	<path fill="#FFFFFF" d="M3556-447.4h-472.4c-0.4,0-0.7-0.3-0.7-0.7v-3c0-0.4,0.3-0.7,0.7-0.7H3556c0.4,0,0.7,0.3,0.7,0.7v3
		C3556.7-447.7,3556.4-447.4,3556-447.4z"/>
	<path fill="#FFFFFF" d="M3567.4-400.7c0,0.8-1,2.2-1.8,2.2h-548c-0.9,0-3-1.5-3-2.2v-2.1c0-0.8,2.1-0.1,3-0.1h548
		c0.9,0,1.8-0.7,1.8,0.1V-400.7z"/>
	<path fill="#FFFFFF" d="M3576.6-354h-347.2c-0.8,0-1.4-0.6-1.4-1.4v-3.8c0-0.8,0.6-1.4,1.4-1.4h347.2c0.8,0,1.4,0.6,1.4,1.4v3.8
		C3578.1-354.6,3577.4-354,3576.6-354z"/>
	<g>
		<g>
			<path fill="#DDDEE0" d="M3012.5-571.1c-1.2,0-2.1-1-2.1-2.2V-887c0-1.2,1-2.2,2.1-2.2s2.1,1,2.1,2.2v313.7
				C3014.6-572.1,3013.7-571.1,3012.5-571.1z"/>
		</g>
		<g>
			<path fill="#DDDEE0" d="M3012.5-933.7c-1.2,0-2.1-1-2.1-2.2v-151.3c0-1.2,1-2.2,2.1-2.2s2.1,1,2.1,2.2v151.3
				C3014.6-934.7,3013.7-933.7,3012.5-933.7z"/>
		</g>
		<g>
			<path fill="#DDDEE0" d="M3012.5-1218.4c-1.2,0-2.1-1-2.1-2.2v-84.5c0-1.2,1-2.2,2.1-2.2s2.1,1,2.1,2.2v84.5
				C3014.6-1219.4,3013.7-1218.4,3012.5-1218.4z"/>
		</g>
	</g>
	<g>
		<g>
			<path fill="#DDDEE0" d="M3562-556.7h-464.8c-7.9,0-13.7-6.4-13.7-14.3v-666.1c0-7.9,5.9-14.3,13.7-14.3H3562
				c7.9,0,14.2,6.4,14.2,14.3V-571C3576.2-563.1,3569.8-556.7,3562-556.7z M3097.2-1240.1c-1.6,0-2.8,1.3-2.8,2.9V-571
				c0,1.6,1.2,2.9,2.8,2.9H3562c1.6,0,3.3-1.3,3.3-2.9v-666.1c0-1.6-1.7-2.9-3.3-2.9L3097.2-1240.1L3097.2-1240.1z"/>
		</g>
		<g>
			<path fill="#DDDEE0" d="M3525.7-594.3h-393.4c-7.9,0-13.9-6.4-13.9-14.3v-589.8c0-7.9,6.1-14.3,13.9-14.3h393.4
				c7.9,0,14.5,6.4,14.5,14.3v589.8C3540.2-600.7,3533.5-594.3,3525.7-594.3z M3132.3-1201.3c-1.6,0-3,1.3-3,2.9v589.8
				c0,1.6,1.4,2.9,3,2.9h393.4c1.6,0,2.5-1.3,2.5-2.9v-589.8c0-1.6-0.9-2.9-2.5-2.9L3132.3-1201.3L3132.3-1201.3z"/>
		</g>
	</g>
	<g>
		<path fill="#DDDEE0" d="M3421.2-804.9c-6.7,1.4-13.7,2.1-20.8,2.1c-58.5,0-106-49.5-106-110.5s47.5-110.5,106-110.5
			c7.1,0,14.1,0.7,20.8,2.1c0.9,0.2,1.9-0.3,2.2-1.2c0.4-0.9,0.1-2-0.7-2.5c-21.2-15.5-47.1-24.5-74.9-24.5
			c-72.4,0-131.1,61.2-131.1,136.6c0,75.5,58.7,136.6,131.1,136.6c27.9,0,53.7-9.1,74.9-24.5c0.8-0.6,1.1-1.6,0.7-2.5
			S3422.2-805.1,3421.2-804.9z"/>
		<path fill="#DDDEE0" d="M3443.2-919.7c0.5-0.6,0.7-1.4,0.5-2.1c-0.2-0.8-0.9-1.3-1.6-1.4l-21.3-3.2c-0.7-0.1-1.2-0.5-1.5-1.1
			l-9.5-20.2c-0.3-0.7-1-1.2-1.8-1.2c-0.8,0-1.5,0.5-1.8,1.2l-9.5,20.2c-0.3,0.6-0.9,1-1.5,1.1l-21.3,3.2c-0.8,0.1-1.4,0.7-1.6,1.4
			c-0.2,0.8,0,1.6,0.5,2.1l15.4,15.7c0.5,0.5,0.7,1.2,0.6,1.8l-3.6,22.2c-0.1,0.8,0.2,1.6,0.8,2c0.6,0.5,1.4,0.5,2.1,0.2l20-11
			l20,11c0.7,0.4,1.5,0.3,2.1-0.2c0.6-0.5,0.9-1.3,0.8-2l-3.6-22.2c-0.1-0.7,0.1-1.4,0.6-1.8L3443.2-919.7z"/>
	</g>
</g>
</svg>
