<?xml version="1.0" encoding="utf-8"?>
<!-- Generator: Adobe Illustrator 19.0.0, SVG Export Plug-In . SVG Version: 6.00 Build 0)  -->
<svg version="1.1" id="Layer_1" xmlns="http://www.w3.org/2000/svg" xmlns:xlink="http://www.w3.org/1999/xlink" x="0px" y="0px"
	 width="770px" height="430px" viewBox="0 0 770 430" enable-background="new 0 0 770 430" xml:space="preserve">
<g opacity="0.26">
	<linearGradient id="SVGID_1_" gradientUnits="userSpaceOnUse" x1="-1.174221e-005" y1="211.617" x2="770" y2="211.617">
		<stop  offset="9.865597e-008" style="stop-color:#B37CFF"/>
		<stop  offset="1" style="stop-color:#F895E7"/>
	</linearGradient>
	<path fill="url(#SVGID_1_)" d="M155.3,423.2c0,0-51-35.3-118.7-152.6C-31,153.4-5.3,15.3,116.3,2c121.6-13.3,216,43.3,216,43.3
		s105.1-59.7,234.6-23.2c122.7,34.6,119.3,135.7,119.3,135.7s79,31.7,83.6,117.5c5.2,96.2-68,147.6-68,147.6L155.3,423.2z"/>
</g>
<g>
	<g>
		<g>
			<path fill="#50BFA5" d="M138.2,417.9c0,0-26.9-91.2-29.1-111.3c-2.2-20.1,12.9-13.9,12.9-13.9s-12.7-38.3-3.5-47.4
				c9.2-9.1,17.4,7.9,17.4,7.9s2.8-46.5,12.5-46.6c18.2,0,17.8,50.8,17.8,50.8s4.2-20.4,17.1-12.4c14.3,8.8-5.4,50.7-5.4,50.7
				s15.6-5,21.6,4.8C219.6,333.6,138.2,417.9,138.2,417.9z"/>
		</g>
	</g>
	<g>
		<g>
			<path fill="#50BFA5" d="M147,405.8c0,0-77.6-13-94.5-26.7c-16.9-13.7-0.2-19.9-0.2-19.9s-39-20-38.5-33.6
				c0.5-13.6,19.8-6.7,19.8-6.7S0.8,281.5,8.6,274.4C23,261.1,61,300,61,300s-11.3-18.5,0.6-21.4c17.9-4.4,31.1,41.2,31.1,41.2
				s-3.4-18,9-15.6C123.9,308.5,147,405.8,147,405.8z"/>
		</g>
		<path fill="#3C8F7C" d="M101.7,304.2c-12.4-2.2-9,15.6-9,15.6s-13.2-45.6-31.1-41.2C49.7,281.5,61,300,61,300s-38-38.9-52.4-25.7
			l138.1,131.5C144.2,393.3,122.5,308,101.7,304.2z"/>
	</g>
	<g>
		<path fill="#355389" d="M178,416.5c0,0-40.9-41.6-61.4-45.9C96,366.3,99.7,381,99.7,381s-40.8-35.7-50.3-27.1
			c-9.5,8.7,0.8,17,0.8,17s-34-6-38.9,5.1c-7.5,17.1,48.4,26.5,48.4,26.5s-23.4,1.6-18,12.4C49.9,431.1,178,416.5,178,416.5z"/>
		<path fill="#466EB6" d="M11.3,376c4.9-11.2,38.9-5.1,38.9-5.1s-10.2-8.4-0.8-17c9.5-8.6,49,22.2,49,22.2s-9.3-17.8,11.2-13.5
			c20.6,4.3,68.3,53.9,68.3,53.9L11.3,376z"/>
	</g>
</g>
<g>
	<path fill="#00B3BF" d="M764.3,430h-684c-3.1,0-5.7-2.3-5.7-5.1v0c0-2.8,2.5-5.1,5.7-5.1h684c3.1,0,5.7,2.3,5.7,5.1l0,0
		C770,427.7,767.5,430,764.3,430z"/>
</g>
<g>
	<path fill="#8293E0" d="M577.5,344.2H169.2c-7.1,0-12.8-5.3-12.8-11.9l-7.8-279.5c0-6.6,5.7-11.9,12.8-11.9h427.7
		c7.1,0,12.8,5.3,12.8,11.9l-11.7,279.5C590.3,338.9,584.6,344.2,577.5,344.2z"/>
</g>
<g>
	<path fill="#676E9C" d="M597,43.3c1.4,1.9,2.2,4.2,2.2,6.6l-11.7,279.5c0,6.6-5.7,11.9-12.8,11.9H166.4c-3,0-5.7-0.9-7.8-2.5
		c2.3,3.2,6.2,5.3,10.7,5.3h408.3c7.1,0,12.8-5.3,12.8-11.9L602,52.8C602,48.9,600,45.5,597,43.3z"/>
</g>
<g>
	<path fill="#82C7E6" d="M174.2,311.5L166.4,61c0-6.6,5.7-11.9,12.8-11.9h396.7c7.1,0,12.8,5.3,12.8,11.9L577,311.5
		c0,6.6-5.7,11.9-12.8,11.9H187C179.9,323.5,174.2,318.1,174.2,311.5z"/>
</g>
<g opacity="0.32">
	<g>
		<defs>
			<path id="SVGID_2_" d="M508.1,204.6c-48.1,84.6-132,47.3-246,29.9c-38.3-5.9-67.9,6.6-90.2,25.7l1.8,57.5
				c0,6.6,5.7,11.9,12.8,11.9h377.2c7.1,0,12.8-5.3,12.8-11.9l8-171.7C549.3,162.7,520.7,182.3,508.1,204.6z"/>
		</defs>
		<clipPath id="SVGID_3_">
			<use xlink:href="#SVGID_2_"  overflow="visible"/>
		</clipPath>
		<polygon clip-path="url(#SVGID_3_)" fill="#118DC9" points="569.9,329.6 584.5,328.7 584.5,329.6 		"/>
		<polygon clip-path="url(#SVGID_3_)" fill="#128EC9" points="548.4,329.6 584.5,327.3 584.5,328.7 569.9,329.6 		"/>
		<polygon clip-path="url(#SVGID_3_)" fill="#138EC9" points="526.9,329.6 584.5,325.9 584.5,327.3 548.4,329.6 		"/>
		<polygon clip-path="url(#SVGID_3_)" fill="#148FCA" points="505.4,329.6 584.5,324.5 584.5,325.9 526.9,329.6 		"/>
		<polygon clip-path="url(#SVGID_3_)" fill="#1590CA" points="483.8,329.6 584.5,323.1 584.5,324.5 505.4,329.6 		"/>
		<polygon clip-path="url(#SVGID_3_)" fill="#1690CB" points="462.3,329.6 584.5,321.7 584.5,323.1 483.8,329.6 		"/>
		<polygon clip-path="url(#SVGID_3_)" fill="#1791CB" points="440.8,329.6 584.5,320.3 584.5,321.7 462.3,329.6 		"/>
		<polygon clip-path="url(#SVGID_3_)" fill="#1891CC" points="419.3,329.6 584.5,318.9 584.5,320.3 440.8,329.6 		"/>
		<polygon clip-path="url(#SVGID_3_)" fill="#1992CC" points="397.8,329.6 584.5,317.5 584.5,318.9 419.3,329.6 		"/>
		<polygon clip-path="url(#SVGID_3_)" fill="#1A93CD" points="376.2,329.6 584.5,316.1 584.5,317.5 397.8,329.6 		"/>
		<polygon clip-path="url(#SVGID_3_)" fill="#1B93CD" points="354.7,329.6 584.5,314.7 584.5,316.1 376.2,329.6 		"/>
		<polygon clip-path="url(#SVGID_3_)" fill="#1C94CD" points="333.2,329.6 584.5,313.3 584.5,314.7 354.7,329.6 		"/>
		<polygon clip-path="url(#SVGID_3_)" fill="#1D95CE" points="311.7,329.6 584.5,311.9 584.5,313.3 333.2,329.6 		"/>
		<polygon clip-path="url(#SVGID_3_)" fill="#1E95CE" points="290.2,329.6 584.5,310.5 584.5,311.9 311.7,329.6 		"/>
		<polygon clip-path="url(#SVGID_3_)" fill="#1F96CF" points="268.7,329.6 584.5,309.1 584.5,310.5 290.2,329.6 		"/>
		<polygon clip-path="url(#SVGID_3_)" fill="#2097CF" points="247.1,329.6 584.5,307.7 584.5,309.1 268.7,329.6 		"/>
		<polygon clip-path="url(#SVGID_3_)" fill="#2197D0" points="225.6,329.6 584.5,306.3 584.5,307.7 247.1,329.6 		"/>
		<polygon clip-path="url(#SVGID_3_)" fill="#2298D0" points="204.1,329.6 584.5,304.9 584.5,306.3 225.6,329.6 		"/>
		<polygon clip-path="url(#SVGID_3_)" fill="#2399D1" points="182.6,329.6 584.5,303.5 584.5,304.9 204.1,329.6 		"/>
		<polygon clip-path="url(#SVGID_3_)" fill="#2499D1" points="173.2,329.6 173.1,328.8 584.5,302.1 584.5,303.5 182.6,329.6 		"/>
		<polygon clip-path="url(#SVGID_3_)" fill="#259AD1" points="173.1,328.8 173,327.4 584.5,300.7 584.5,302.1 		"/>
		<polygon clip-path="url(#SVGID_3_)" fill="#269AD2" points="173,327.4 172.9,326 584.5,299.3 584.5,300.7 		"/>
		<polygon clip-path="url(#SVGID_3_)" fill="#279BD2" points="172.9,326 172.8,324.7 584.5,297.9 584.5,299.3 		"/>
		<polygon clip-path="url(#SVGID_3_)" fill="#289CD3" points="172.8,324.7 172.7,323.3 584.5,296.5 584.5,297.9 		"/>
		<polygon clip-path="url(#SVGID_3_)" fill="#299CD3" points="172.7,323.3 172.7,321.9 584.5,295.1 584.5,296.5 		"/>
		<polygon clip-path="url(#SVGID_3_)" fill="#2A9DD4" points="172.7,321.9 172.6,320.5 584.5,293.7 584.5,295.1 		"/>
		<polygon clip-path="url(#SVGID_3_)" fill="#2B9ED4" points="172.6,320.5 172.5,319.1 584.5,292.3 584.5,293.7 		"/>
		<polygon clip-path="url(#SVGID_3_)" fill="#2C9ED4" points="172.5,319.1 172.4,317.7 584.5,290.9 584.5,292.3 		"/>
		<polygon clip-path="url(#SVGID_3_)" fill="#2D9FD5" points="172.4,317.7 172.3,316.3 584.5,289.5 584.5,290.9 		"/>
		<polygon clip-path="url(#SVGID_3_)" fill="#2EA0D5" points="172.3,316.3 172.2,314.9 584.5,288.1 584.5,289.5 		"/>
		<polygon clip-path="url(#SVGID_3_)" fill="#2FA0D6" points="172.2,314.9 172.1,313.5 584.5,286.7 584.5,288.1 		"/>
		<polygon clip-path="url(#SVGID_3_)" fill="#30A1D6" points="172.1,313.5 172,312.1 584.5,285.3 584.5,286.7 		"/>
		<polygon clip-path="url(#SVGID_3_)" fill="#31A2D7" points="172,312.1 171.9,310.7 584.5,283.9 584.5,285.3 		"/>
		<polygon clip-path="url(#SVGID_3_)" fill="#32A2D7" points="171.9,310.7 171.8,309.3 584.5,282.5 584.5,283.9 		"/>
		<polygon clip-path="url(#SVGID_3_)" fill="#33A3D8" points="171.8,309.3 171.8,309.1 171.8,307.9 584.5,281.1 584.5,282.5 		"/>
		<polygon clip-path="url(#SVGID_3_)" fill="#34A3D8" points="171.8,306.5 584.5,279.7 584.5,281.1 171.8,307.9 		"/>
		<polygon clip-path="url(#SVGID_3_)" fill="#35A4D8" points="171.8,305.1 584.5,278.3 584.5,279.7 171.8,306.5 		"/>
		<polygon clip-path="url(#SVGID_3_)" fill="#36A5D9" points="171.8,303.7 584.5,276.9 584.5,278.3 171.8,305.1 		"/>
		<polygon clip-path="url(#SVGID_3_)" fill="#37A5D9" points="171.8,302.3 584.5,275.5 584.5,276.9 171.8,303.7 		"/>
		<polygon clip-path="url(#SVGID_3_)" fill="#38A6DA" points="171.8,300.9 584.5,274.1 584.5,275.5 171.8,302.3 		"/>
		<polygon clip-path="url(#SVGID_3_)" fill="#39A7DA" points="171.8,299.5 584.5,272.7 584.5,274.1 171.8,300.9 		"/>
		<polygon clip-path="url(#SVGID_3_)" fill="#3AA7DB" points="171.8,298.2 584.5,271.3 584.5,272.7 171.8,299.5 		"/>
		<polygon clip-path="url(#SVGID_3_)" fill="#3BA8DB" points="171.8,296.8 584.5,269.9 584.5,271.3 171.8,298.2 		"/>
		<polygon clip-path="url(#SVGID_3_)" fill="#3CA9DC" points="171.8,295.4 584.5,268.5 584.5,269.9 171.8,296.8 		"/>
		<polygon clip-path="url(#SVGID_3_)" fill="#3DA9DC" points="171.8,294 584.5,267.1 584.5,268.5 171.8,295.4 		"/>
		<polygon clip-path="url(#SVGID_3_)" fill="#3EAADC" points="171.8,292.6 584.5,265.7 584.5,267.1 171.8,294 		"/>
		<polygon clip-path="url(#SVGID_3_)" fill="#3FABDD" points="171.8,291.2 584.5,264.3 584.5,265.7 171.8,292.6 		"/>
		<polygon clip-path="url(#SVGID_3_)" fill="#40ABDD" points="171.8,289.8 584.5,262.9 584.5,264.3 171.8,291.2 		"/>
		<polygon clip-path="url(#SVGID_3_)" fill="#41ACDE" points="171.8,288.4 584.5,261.5 584.5,262.9 171.8,289.8 		"/>
		<polygon clip-path="url(#SVGID_3_)" fill="#42ACDE" points="171.8,287 584.5,260.2 584.5,261.5 171.8,288.4 		"/>
		<polygon clip-path="url(#SVGID_3_)" fill="#43ADDF" points="171.8,285.6 584.5,258.8 584.5,260.2 171.8,287 		"/>
		<polygon clip-path="url(#SVGID_3_)" fill="#44AEDF" points="171.8,284.2 584.5,257.4 584.5,258.8 171.8,285.6 		"/>
		<polygon clip-path="url(#SVGID_3_)" fill="#45AEE0" points="171.8,282.8 584.5,256 584.5,257.4 171.8,284.2 		"/>
		<polygon clip-path="url(#SVGID_3_)" fill="#47AFE0" points="171.8,281.4 584.5,254.6 584.5,256 171.8,282.8 		"/>
		<polygon clip-path="url(#SVGID_3_)" fill="#48B0E0" points="171.8,280 584.5,253.2 584.5,254.6 171.8,281.4 		"/>
		<polygon clip-path="url(#SVGID_3_)" fill="#49B0E1" points="171.8,278.6 584.5,251.8 584.5,253.2 171.8,280 		"/>
		<polygon clip-path="url(#SVGID_3_)" fill="#4AB1E1" points="171.8,277.2 584.5,250.4 584.5,251.8 171.8,278.6 		"/>
		<polygon clip-path="url(#SVGID_3_)" fill="#4BB2E2" points="171.8,275.8 584.5,249 584.5,250.4 171.8,277.2 		"/>
		<polygon clip-path="url(#SVGID_3_)" fill="#4CB2E2" points="171.8,274.4 584.5,247.6 584.5,249 171.8,275.8 		"/>
		<polygon clip-path="url(#SVGID_3_)" fill="#4DB3E3" points="171.8,273 584.5,246.2 584.5,247.6 171.8,274.4 		"/>
		<polygon clip-path="url(#SVGID_3_)" fill="#4EB4E3" points="171.8,271.6 584.5,244.8 584.5,246.2 171.8,273 		"/>
		<polygon clip-path="url(#SVGID_3_)" fill="#4FB4E4" points="171.8,270.2 584.5,243.4 584.5,244.8 171.8,271.6 		"/>
		<polygon clip-path="url(#SVGID_3_)" fill="#50B5E4" points="171.8,268.8 584.5,242 584.5,243.4 171.8,270.2 		"/>
		<polygon clip-path="url(#SVGID_3_)" fill="#51B5E4" points="171.8,267.4 584.5,240.6 584.5,242 171.8,268.8 		"/>
		<polygon clip-path="url(#SVGID_3_)" fill="#52B6E5" points="171.8,266 584.5,239.2 584.5,240.6 171.8,267.4 		"/>
		<polygon clip-path="url(#SVGID_3_)" fill="#53B7E5" points="171.8,264.6 584.5,237.8 584.5,239.2 171.8,266 		"/>
		<polygon clip-path="url(#SVGID_3_)" fill="#54B7E6" points="171.8,263.2 584.5,236.4 584.5,237.8 171.8,264.6 		"/>
		<polygon clip-path="url(#SVGID_3_)" fill="#55B8E6" points="171.8,261.8 584.5,235 584.5,236.4 171.8,263.2 		"/>
		<polygon clip-path="url(#SVGID_3_)" fill="#56B9E7" points="171.8,260.4 584.5,233.6 584.5,235 171.8,261.8 		"/>
		<polygon clip-path="url(#SVGID_3_)" fill="#57B9E7" points="171.8,259 584.5,232.2 584.5,233.6 171.8,260.4 		"/>
		<polygon clip-path="url(#SVGID_3_)" fill="#58BAE8" points="171.8,257.6 584.5,230.8 584.5,232.2 171.8,259 		"/>
		<polygon clip-path="url(#SVGID_3_)" fill="#59BBE8" points="171.8,256.2 584.5,229.4 584.5,230.8 171.8,257.6 		"/>
		<polygon clip-path="url(#SVGID_3_)" fill="#5ABBE8" points="171.8,254.8 584.5,228 584.5,229.4 171.8,256.2 		"/>
		<polygon clip-path="url(#SVGID_3_)" fill="#5BBCE9" points="171.8,253.4 584.5,226.6 584.5,228 171.8,254.8 		"/>
		<polygon clip-path="url(#SVGID_3_)" fill="#5CBDE9" points="171.8,252 584.5,225.2 584.5,226.6 171.8,253.4 		"/>
		<polygon clip-path="url(#SVGID_3_)" fill="#5DBDEA" points="171.8,250.6 584.5,223.8 584.5,225.2 171.8,252 		"/>
		<polygon clip-path="url(#SVGID_3_)" fill="#5EBEEA" points="171.8,249.2 584.5,222.4 584.5,223.8 171.8,250.6 		"/>
		<polygon clip-path="url(#SVGID_3_)" fill="#5FBEEB" points="171.8,247.8 584.5,221 584.5,222.4 171.8,249.2 		"/>
		<polygon clip-path="url(#SVGID_3_)" fill="#60BFEB" points="171.8,246.4 584.5,219.6 584.5,221 171.8,247.8 		"/>
		<polygon clip-path="url(#SVGID_3_)" fill="#61C0EC" points="171.8,245 584.5,218.2 584.5,219.6 171.8,246.4 		"/>
		<polygon clip-path="url(#SVGID_3_)" fill="#62C0EC" points="171.8,243.6 584.5,216.8 584.5,218.2 171.8,245 		"/>
		<polygon clip-path="url(#SVGID_3_)" fill="#63C1EC" points="171.8,242.2 584.5,215.4 584.5,216.8 171.8,243.6 		"/>
		<polygon clip-path="url(#SVGID_3_)" fill="#64C2ED" points="171.8,240.8 584.5,214 584.5,215.4 171.8,242.2 		"/>
		<polygon clip-path="url(#SVGID_3_)" fill="#65C2ED" points="171.8,239.4 584.5,212.6 584.5,214 171.8,240.8 		"/>
		<polygon clip-path="url(#SVGID_3_)" fill="#66C3EE" points="171.8,238 584.5,211.2 584.5,212.6 171.8,239.4 		"/>
		<polygon clip-path="url(#SVGID_3_)" fill="#67C4EE" points="171.8,236.6 584.5,209.8 584.5,211.2 171.8,238 		"/>
		<polygon clip-path="url(#SVGID_3_)" fill="#68C4EF" points="171.8,235.2 584.5,208.4 584.5,209.8 171.8,236.6 		"/>
		<polygon clip-path="url(#SVGID_3_)" fill="#69C5EF" points="171.8,233.8 584.5,207 584.5,208.4 171.8,235.2 		"/>
		<polygon clip-path="url(#SVGID_3_)" fill="#6AC6F0" points="171.8,232.4 584.5,205.6 584.5,207 171.8,233.8 		"/>
		<polygon clip-path="url(#SVGID_3_)" fill="#6BC6F0" points="171.8,231 584.5,204.2 584.5,205.6 171.8,232.4 		"/>
		<polygon clip-path="url(#SVGID_3_)" fill="#6CC7F0" points="171.8,229.6 584.5,202.8 584.5,204.2 171.8,231 		"/>
		<polygon clip-path="url(#SVGID_3_)" fill="#6DC7F1" points="171.8,228.2 584.5,201.4 584.5,202.8 171.8,229.6 		"/>
		<polygon clip-path="url(#SVGID_3_)" fill="#6EC8F1" points="171.8,226.8 584.5,200 584.5,201.4 171.8,228.2 		"/>
		<polygon clip-path="url(#SVGID_3_)" fill="#6FC9F2" points="171.8,225.4 584.5,198.6 584.5,200 171.8,226.8 		"/>
		<polygon clip-path="url(#SVGID_3_)" fill="#70C9F2" points="171.8,224 584.5,197.2 584.5,198.6 171.8,225.4 		"/>
		<polygon clip-path="url(#SVGID_3_)" fill="#71CAF3" points="171.8,222.6 584.5,195.8 584.5,197.2 171.8,224 		"/>
		<polygon clip-path="url(#SVGID_3_)" fill="#72CBF3" points="171.8,221.2 584.5,194.4 584.5,195.8 171.8,222.6 		"/>
		<polygon clip-path="url(#SVGID_3_)" fill="#73CBF3" points="171.8,219.8 584.5,193 584.5,194.4 171.8,221.2 		"/>
		<polygon clip-path="url(#SVGID_3_)" fill="#74CCF4" points="171.8,218.4 584.5,191.6 584.5,193 171.8,219.8 		"/>
		<polygon clip-path="url(#SVGID_3_)" fill="#75CDF4" points="171.8,217.1 584.5,190.2 584.5,191.6 171.8,218.4 		"/>
		<polygon clip-path="url(#SVGID_3_)" fill="#76CDF5" points="171.8,215.7 584.5,188.8 584.5,190.2 171.8,217.1 		"/>
		<polygon clip-path="url(#SVGID_3_)" fill="#77CEF5" points="171.8,214.3 584.5,187.4 584.5,188.8 171.8,215.7 		"/>
		<polygon clip-path="url(#SVGID_3_)" fill="#78CFF6" points="171.8,212.9 584.5,186 584.5,187.4 171.8,214.3 		"/>
		<polygon clip-path="url(#SVGID_3_)" fill="#79CFF6" points="171.8,211.5 584.5,184.6 584.5,186 171.8,212.9 		"/>
		<polygon clip-path="url(#SVGID_3_)" fill="#7AD0F7" points="171.8,210.1 584.5,183.2 584.5,184.6 171.8,211.5 		"/>
		<polygon clip-path="url(#SVGID_3_)" fill="#7BD0F7" points="171.8,208.7 584.5,181.8 584.5,183.2 171.8,210.1 		"/>
		<polygon clip-path="url(#SVGID_3_)" fill="#7CD1F7" points="171.8,207.3 584.5,180.5 584.5,181.8 171.8,208.7 		"/>
		<polygon clip-path="url(#SVGID_3_)" fill="#7DD2F8" points="171.8,205.9 584.5,179.1 584.5,180.5 171.8,207.3 		"/>
		<polygon clip-path="url(#SVGID_3_)" fill="#7ED2F8" points="171.8,204.5 584.5,177.7 584.5,179.1 171.8,205.9 		"/>
		<polygon clip-path="url(#SVGID_3_)" fill="#7FD3F9" points="171.8,203.1 584.5,176.3 584.5,177.7 171.8,204.5 		"/>
		<polygon clip-path="url(#SVGID_3_)" fill="#80D4F9" points="171.8,201.7 584.5,174.9 584.5,176.3 171.8,203.1 		"/>
		<polygon clip-path="url(#SVGID_3_)" fill="#81D4FA" points="171.8,200.3 584.5,173.5 584.5,174.9 171.8,201.7 		"/>
		<polygon clip-path="url(#SVGID_3_)" fill="#82D5FA" points="171.8,198.9 584.5,172.1 584.5,173.5 171.8,200.3 		"/>
		<polygon clip-path="url(#SVGID_3_)" fill="#83D6FB" points="171.8,197.5 584.5,170.7 584.5,172.1 171.8,198.9 		"/>
		<polygon clip-path="url(#SVGID_3_)" fill="#84D6FB" points="171.8,196.1 584.5,169.3 584.5,170.7 171.8,197.5 		"/>
		<polygon clip-path="url(#SVGID_3_)" fill="#85D7FB" points="171.8,194.7 584.5,167.9 584.5,169.3 171.8,196.1 		"/>
		<polygon clip-path="url(#SVGID_3_)" fill="#86D8FC" points="171.8,193.3 584.5,166.5 584.5,167.9 171.8,194.7 		"/>
		<polygon clip-path="url(#SVGID_3_)" fill="#87D8FC" points="171.8,191.9 584.5,165.1 584.5,166.5 171.8,193.3 		"/>
		<polygon clip-path="url(#SVGID_3_)" fill="#88D9FD" points="171.8,190.5 584.5,163.7 584.5,165.1 171.8,191.9 		"/>
		<polygon clip-path="url(#SVGID_3_)" fill="#89D9FD" points="171.8,189.1 584.5,162.3 584.5,163.7 171.8,190.5 		"/>
		<polygon clip-path="url(#SVGID_3_)" fill="#8ADAFE" points="171.8,187.7 584.5,160.9 584.5,162.3 171.8,189.1 		"/>
		<polygon clip-path="url(#SVGID_3_)" fill="#8BDBFE" points="171.8,186.3 584.5,159.5 584.5,160.9 171.8,187.7 		"/>
		<polygon clip-path="url(#SVGID_3_)" fill="#8CDBFF" points="171.8,184.9 584.5,158.1 584.5,159.5 171.8,186.3 		"/>
		<polygon clip-path="url(#SVGID_3_)" fill="#8DDCFF" points="171.8,183.5 584.5,156.7 584.5,158.1 171.8,184.9 		"/>
		<polygon clip-path="url(#SVGID_3_)" fill="#8DDCFF" points="584.5,156.7 171.8,183.5 171.8,145.9 584.5,145.9 		"/>
	</g>
</g>
<g>
	<g>
		<path fill="#AFD6FF" d="M561.5,314.5h-7.1c-0.2,0-0.4-0.2-0.4-0.4c0-0.2,0.2-0.4,0.4-0.4h6.4l0.1-2.2c0-0.2,0.2-0.4,0.4-0.4
			c0.2,0,0.4,0.2,0.4,0.4L561.5,314.5z M545,314.5h-9.3c-0.2,0-0.4-0.2-0.4-0.4c0-0.2,0.2-0.4,0.4-0.4h9.3c0.2,0,0.4,0.2,0.4,0.4
			C545.4,314.3,545.2,314.5,545,314.5z M526.4,314.5h-9.3c-0.2,0-0.4-0.2-0.4-0.4c0-0.2,0.2-0.4,0.4-0.4h9.3c0.2,0,0.4,0.2,0.4,0.4
			C526.8,314.3,526.6,314.5,526.4,314.5z M507.7,314.5h-9.3c-0.2,0-0.4-0.2-0.4-0.4c0-0.2,0.2-0.4,0.4-0.4h9.3
			c0.2,0,0.4,0.2,0.4,0.4C508.1,314.3,508,314.5,507.7,314.5z M489.1,314.5h-9.3c-0.2,0-0.4-0.2-0.4-0.4c0-0.2,0.2-0.4,0.4-0.4h9.3
			c0.2,0,0.4,0.2,0.4,0.4C489.5,314.3,489.3,314.5,489.1,314.5z M470.5,314.5h-9.3c-0.2,0-0.4-0.2-0.4-0.4c0-0.2,0.2-0.4,0.4-0.4
			h9.3c0.2,0,0.4,0.2,0.4,0.4C470.9,314.3,470.7,314.5,470.5,314.5z M451.9,314.5h-9.3c-0.2,0-0.4-0.2-0.4-0.4
			c0-0.2,0.2-0.4,0.4-0.4h9.3c0.2,0,0.4,0.2,0.4,0.4C452.2,314.3,452.1,314.5,451.9,314.5z M433.2,314.5h-9.3
			c-0.2,0-0.4-0.2-0.4-0.4c0-0.2,0.2-0.4,0.4-0.4h9.3c0.2,0,0.4,0.2,0.4,0.4C433.6,314.3,433.4,314.5,433.2,314.5z M414.6,314.5
			h-9.3c-0.2,0-0.4-0.2-0.4-0.4c0-0.2,0.2-0.4,0.4-0.4h9.3c0.2,0,0.4,0.2,0.4,0.4C415,314.3,414.8,314.5,414.6,314.5z M396,314.5
			h-9.3c-0.2,0-0.4-0.2-0.4-0.4c0-0.2,0.2-0.4,0.4-0.4h9.3c0.2,0,0.4,0.2,0.4,0.4C396.4,314.3,396.2,314.5,396,314.5z M377.3,314.5
			H368c-0.2,0-0.4-0.2-0.4-0.4c0-0.2,0.2-0.4,0.4-0.4h9.3c0.2,0,0.4,0.2,0.4,0.4C377.7,314.3,377.6,314.5,377.3,314.5z M358.7,314.5
			h-9.3c-0.2,0-0.4-0.2-0.4-0.4c0-0.2,0.2-0.4,0.4-0.4h9.3c0.2,0,0.4,0.2,0.4,0.4C359.1,314.3,358.9,314.5,358.7,314.5z
			 M340.1,314.5h-9.3c-0.2,0-0.4-0.2-0.4-0.4c0-0.2,0.2-0.4,0.4-0.4h9.3c0.2,0,0.4,0.2,0.4,0.4C340.5,314.3,340.3,314.5,340.1,314.5
			z M321.4,314.5h-9.3c-0.2,0-0.4-0.2-0.4-0.4c0-0.2,0.2-0.4,0.4-0.4h9.3c0.2,0,0.4,0.2,0.4,0.4
			C321.8,314.3,321.7,314.5,321.4,314.5z M302.8,314.5h-9.3c-0.2,0-0.4-0.2-0.4-0.4c0-0.2,0.2-0.4,0.4-0.4h9.3
			c0.2,0,0.4,0.2,0.4,0.4C303.2,314.3,303,314.5,302.8,314.5z M284.2,314.5h-9.3c-0.2,0-0.4-0.2-0.4-0.4c0-0.2,0.2-0.4,0.4-0.4h9.3
			c0.2,0,0.4,0.2,0.4,0.4C284.6,314.3,284.4,314.5,284.2,314.5z M265.6,314.5h-9.3c-0.2,0-0.4-0.2-0.4-0.4c0-0.2,0.2-0.4,0.4-0.4
			h9.3c0.2,0,0.4,0.2,0.4,0.4C265.9,314.3,265.8,314.5,265.6,314.5z M246.9,314.5h-9.3c-0.2,0-0.4-0.2-0.4-0.4
			c0-0.2,0.2-0.4,0.4-0.4h9.3c0.2,0,0.4,0.2,0.4,0.4C247.3,314.3,247.1,314.5,246.9,314.5z M228.3,314.5H219c-0.2,0-0.4-0.2-0.4-0.4
			c0-0.2,0.2-0.4,0.4-0.4h9.3c0.2,0,0.4,0.2,0.4,0.4C228.7,314.3,228.5,314.5,228.3,314.5z M209.7,314.5h-9.3
			c-0.2,0-0.4-0.2-0.4-0.4c0-0.2,0.2-0.4,0.4-0.4h9.3c0.2,0,0.4,0.2,0.4,0.4C210.1,314.3,209.9,314.5,209.7,314.5z M191,314.5h-2.4
			l-0.3-9.7c0-0.2,0.2-0.4,0.4-0.4c0.2,0,0.4,0.2,0.4,0.4l0.3,8.9h1.6c0.2,0,0.4,0.2,0.4,0.4C191.4,314.3,191.3,314.5,191,314.5z
			 M561.6,302.6C561.6,302.6,561.6,302.6,561.6,302.6c-0.2,0-0.4-0.2-0.4-0.4l0.4-9.3c0-0.2,0.2-0.4,0.4-0.4c0.2,0,0.4,0.2,0.4,0.4
			l-0.4,9.3C562,302.5,561.8,302.6,561.6,302.6z M188.5,295.9c-0.2,0-0.4-0.2-0.4-0.4l-0.3-9.3c0-0.2,0.2-0.4,0.4-0.4
			c0.2,0,0.4,0.2,0.4,0.4l0.3,9.3C188.8,295.7,188.7,295.8,188.5,295.9C188.5,295.9,188.5,295.9,188.5,295.9z M562.5,284
			C562.5,284,562.5,284,562.5,284c-0.2,0-0.4-0.2-0.4-0.4l0.4-9.3c0-0.2,0.2-0.4,0.4-0.4c0.2,0,0.4,0.2,0.4,0.4l-0.4,9.3
			C562.9,283.9,562.7,284,562.5,284z M187.9,277.2c-0.2,0-0.4-0.2-0.4-0.4l-0.3-9.3c0-0.2,0.2-0.4,0.4-0.4c0.2,0,0.4,0.2,0.4,0.4
			l0.3,9.3C188.3,277,188.1,277.2,187.9,277.2C187.9,277.2,187.9,277.2,187.9,277.2z M563.4,265.4
			C563.4,265.4,563.4,265.4,563.4,265.4c-0.2,0-0.4-0.2-0.4-0.4l0.4-9.3c0-0.2,0.2-0.4,0.4-0.4c0.2,0,0.4,0.2,0.4,0.4l-0.4,9.3
			C563.8,265.3,563.6,265.4,563.4,265.4z M187.3,258.6c-0.2,0-0.4-0.2-0.4-0.4l-0.3-9.3c0-0.2,0.2-0.4,0.4-0.4
			c0.2,0,0.4,0.2,0.4,0.4l0.3,9.3C187.7,258.4,187.5,258.6,187.3,258.6C187.3,258.6,187.3,258.6,187.3,258.6z M564.2,246.8
			C564.2,246.8,564.2,246.8,564.2,246.8c-0.2,0-0.4-0.2-0.4-0.4l0.4-9.3c0-0.2,0.2-0.4,0.4-0.4c0.2,0,0.4,0.2,0.4,0.4l-0.4,9.3
			C564.6,246.6,564.4,246.8,564.2,246.8z M186.7,240c-0.2,0-0.4-0.2-0.4-0.4l-0.3-9.3c0-0.2,0.2-0.4,0.4-0.4c0.2,0,0.4,0.2,0.4,0.4
			l0.3,9.3C187.1,239.8,186.9,240,186.7,240C186.7,240,186.7,240,186.7,240z M565.1,228.2C565.1,228.2,565.1,228.2,565.1,228.2
			c-0.2,0-0.4-0.2-0.4-0.4l0.4-9.3c0-0.2,0.2-0.4,0.4-0.4c0.2,0,0.4,0.2,0.4,0.4l-0.4,9.3C565.5,228,565.3,228.2,565.1,228.2z
			 M186.1,221.4c-0.2,0-0.4-0.2-0.4-0.4l-0.3-9.3c0-0.2,0.2-0.4,0.4-0.4c0.2,0,0.4,0.2,0.4,0.4l0.3,9.3
			C186.5,221.2,186.4,221.4,186.1,221.4C186.2,221.4,186.1,221.4,186.1,221.4z M566,209.6C566,209.6,566,209.6,566,209.6
			c-0.2,0-0.4-0.2-0.4-0.4l0.4-9.3c0-0.2,0.2-0.4,0.4-0.4c0.2,0,0.4,0.2,0.4,0.4l-0.4,9.3C566.3,209.4,566.2,209.6,566,209.6z
			 M185.6,202.8c-0.2,0-0.4-0.2-0.4-0.4l-0.3-9.3c0-0.2,0.2-0.4,0.4-0.4c0.2,0,0.4,0.2,0.4,0.4l0.3,9.3
			C186,202.6,185.8,202.7,185.6,202.8C185.6,202.8,185.6,202.8,185.6,202.8z M566.8,191C566.8,191,566.8,191,566.8,191
			c-0.2,0-0.4-0.2-0.4-0.4l0.4-9.3c0-0.2,0.2-0.4,0.4-0.4c0.2,0,0.4,0.2,0.4,0.4l-0.4,9.3C567.2,190.8,567,191,566.8,191z
			 M185,184.1c-0.2,0-0.4-0.2-0.4-0.4l-0.3-9.3c0-0.2,0.2-0.4,0.4-0.4c0.2,0,0.4,0.2,0.4,0.4l0.3,9.3
			C185.4,183.9,185.2,184.1,185,184.1C185,184.1,185,184.1,185,184.1z M567.7,172.4C567.7,172.4,567.7,172.4,567.7,172.4
			c-0.2,0-0.4-0.2-0.4-0.4l0.4-9.3c0-0.2,0.2-0.4,0.4-0.4c0.2,0,0.4,0.2,0.4,0.4l-0.4,9.3C568.1,172.2,567.9,172.4,567.7,172.4z
			 M184.4,165.5c-0.2,0-0.4-0.2-0.4-0.4l-0.3-9.3c0-0.2,0.2-0.4,0.4-0.4c0.2,0,0.4,0.2,0.4,0.4l0.3,9.3
			C184.8,165.3,184.6,165.5,184.4,165.5C184.4,165.5,184.4,165.5,184.4,165.5z M568.6,153.8C568.6,153.8,568.6,153.8,568.6,153.8
			c-0.2,0-0.4-0.2-0.4-0.4l0.4-9.3c0-0.2,0.2-0.4,0.4-0.4c0.2,0,0.4,0.2,0.4,0.4l-0.4,9.3C568.9,153.6,568.8,153.8,568.6,153.8z
			 M183.8,146.9c-0.2,0-0.4-0.2-0.4-0.4l-0.3-9.3c0-0.2,0.2-0.4,0.4-0.4c0.2,0,0.4,0.2,0.4,0.4l0.3,9.3
			C184.2,146.7,184.1,146.9,183.8,146.9C183.8,146.9,183.8,146.9,183.8,146.9z M569.4,135.2C569.4,135.2,569.4,135.2,569.4,135.2
			c-0.2,0-0.4-0.2-0.4-0.4l0.4-9.3c0-0.2,0.2-0.4,0.4-0.4c0.2,0,0.4,0.2,0.4,0.4l-0.4,9.3C569.8,135,569.6,135.2,569.4,135.2z
			 M183.3,128.3c-0.2,0-0.4-0.2-0.4-0.4l-0.3-9.3c0-0.2,0.2-0.4,0.4-0.4c0.2,0,0.4,0.2,0.4,0.4l0.3,9.3
			C183.7,128.1,183.5,128.3,183.3,128.3C183.3,128.3,183.3,128.3,183.3,128.3z M570.3,116.5C570.3,116.5,570.3,116.5,570.3,116.5
			c-0.2,0-0.4-0.2-0.4-0.4l0.4-9.3c0-0.2,0.2-0.4,0.4-0.4c0.2,0,0.4,0.2,0.4,0.4l-0.4,9.3C570.7,116.4,570.5,116.5,570.3,116.5z
			 M182.7,109.7c-0.2,0-0.4-0.2-0.4-0.4L182,100c0-0.2,0.2-0.4,0.4-0.4c0.2,0,0.4,0.2,0.4,0.4l0.3,9.3
			C183.1,109.5,182.9,109.6,182.7,109.7C182.7,109.7,182.7,109.7,182.7,109.7z M571.2,97.9C571.2,97.9,571.1,97.9,571.2,97.9
			c-0.2,0-0.4-0.2-0.4-0.4l0.4-9.3c0-0.2,0.2-0.4,0.4-0.4c0.2,0,0.4,0.2,0.4,0.4l-0.4,9.3C571.5,97.8,571.4,97.9,571.2,97.9z
			 M182.1,91c-0.2,0-0.4-0.2-0.4-0.4l-0.3-9.3c0-0.2,0.2-0.4,0.4-0.4c0.2,0,0.4,0.2,0.4,0.4l0.3,9.3C182.5,90.8,182.3,91,182.1,91
			C182.1,91,182.1,91,182.1,91z M572,79.3C572,79.3,572,79.3,572,79.3c-0.2,0-0.4-0.2-0.4-0.4l0.4-7.8h-0.6c-0.2,0-0.4-0.2-0.4-0.4
			c0-0.2,0.2-0.4,0.4-0.4h1.5l-0.4,8.7C572.4,79.2,572.2,79.3,572,79.3z M181.5,72.4c-0.2,0-0.4-0.2-0.4-0.4l-0.1-1.7h8.4
			c0.2,0,0.4,0.2,0.4,0.4c0,0.2-0.2,0.4-0.4,0.4h-7.6l0,0.9C181.9,72.2,181.8,72.4,181.5,72.4C181.5,72.4,181.5,72.4,181.5,72.4z
			 M562,71.1h-9.3c-0.2,0-0.4-0.2-0.4-0.4c0-0.2,0.2-0.4,0.4-0.4h9.3c0.2,0,0.4,0.2,0.4,0.4C562.4,70.9,562.3,71.1,562,71.1z
			 M543.4,71.1h-9.3c-0.2,0-0.4-0.2-0.4-0.4c0-0.2,0.2-0.4,0.4-0.4h9.3c0.2,0,0.4,0.2,0.4,0.4C543.8,70.9,543.6,71.1,543.4,71.1z
			 M524.8,71.1h-9.3c-0.2,0-0.4-0.2-0.4-0.4c0-0.2,0.2-0.4,0.4-0.4h9.3c0.2,0,0.4,0.2,0.4,0.4C525.2,70.9,525,71.1,524.8,71.1z
			 M506.2,71.1h-9.3c-0.2,0-0.4-0.2-0.4-0.4c0-0.2,0.2-0.4,0.4-0.4h9.3c0.2,0,0.4,0.2,0.4,0.4C506.5,70.9,506.4,71.1,506.2,71.1z
			 M487.5,71.1h-9.3c-0.2,0-0.4-0.2-0.4-0.4c0-0.2,0.2-0.4,0.4-0.4h9.3c0.2,0,0.4,0.2,0.4,0.4C487.9,70.9,487.7,71.1,487.5,71.1z
			 M468.9,71.1h-9.3c-0.2,0-0.4-0.2-0.4-0.4c0-0.2,0.2-0.4,0.4-0.4h9.3c0.2,0,0.4,0.2,0.4,0.4C469.3,70.9,469.1,71.1,468.9,71.1z
			 M450.3,71.1H441c-0.2,0-0.4-0.2-0.4-0.4c0-0.2,0.2-0.4,0.4-0.4h9.3c0.2,0,0.4,0.2,0.4,0.4C450.7,70.9,450.5,71.1,450.3,71.1z
			 M431.6,71.1h-9.3c-0.2,0-0.4-0.2-0.4-0.4c0-0.2,0.2-0.4,0.4-0.4h9.3c0.2,0,0.4,0.2,0.4,0.4C432,70.9,431.9,71.1,431.6,71.1z
			 M413,71.1h-9.3c-0.2,0-0.4-0.2-0.4-0.4c0-0.2,0.2-0.4,0.4-0.4h9.3c0.2,0,0.4,0.2,0.4,0.4C413.4,70.9,413.2,71.1,413,71.1z
			 M394.4,71.1h-9.3c-0.2,0-0.4-0.2-0.4-0.4c0-0.2,0.2-0.4,0.4-0.4h9.3c0.2,0,0.4,0.2,0.4,0.4C394.8,70.9,394.6,71.1,394.4,71.1z
			 M375.8,71.1h-9.3c-0.2,0-0.4-0.2-0.4-0.4c0-0.2,0.2-0.4,0.4-0.4h9.3c0.2,0,0.4,0.2,0.4,0.4C376.1,70.9,376,71.1,375.8,71.1z
			 M357.1,71.1h-9.3c-0.2,0-0.4-0.2-0.4-0.4c0-0.2,0.2-0.4,0.4-0.4h9.3c0.2,0,0.4,0.2,0.4,0.4C357.5,70.9,357.3,71.1,357.1,71.1z
			 M338.5,71.1h-9.3c-0.2,0-0.4-0.2-0.4-0.4c0-0.2,0.2-0.4,0.4-0.4h9.3c0.2,0,0.4,0.2,0.4,0.4C338.9,70.9,338.7,71.1,338.5,71.1z
			 M319.9,71.1h-9.3c-0.2,0-0.4-0.2-0.4-0.4c0-0.2,0.2-0.4,0.4-0.4h9.3c0.2,0,0.4,0.2,0.4,0.4C320.3,70.9,320.1,71.1,319.9,71.1z
			 M301.2,71.1h-9.3c-0.2,0-0.4-0.2-0.4-0.4c0-0.2,0.2-0.4,0.4-0.4h9.3c0.2,0,0.4,0.2,0.4,0.4C301.6,70.9,301.4,71.1,301.2,71.1z
			 M282.6,71.1h-9.3c-0.2,0-0.4-0.2-0.4-0.4c0-0.2,0.2-0.4,0.4-0.4h9.3c0.2,0,0.4,0.2,0.4,0.4C283,70.9,282.8,71.1,282.6,71.1z
			 M264,71.1h-9.3c-0.2,0-0.4-0.2-0.4-0.4c0-0.2,0.2-0.4,0.4-0.4h9.3c0.2,0,0.4,0.2,0.4,0.4C264.4,70.9,264.2,71.1,264,71.1z
			 M245.3,71.1H236c-0.2,0-0.4-0.2-0.4-0.4c0-0.2,0.2-0.4,0.4-0.4h9.3c0.2,0,0.4,0.2,0.4,0.4C245.7,70.9,245.6,71.1,245.3,71.1z
			 M226.7,71.1h-9.3c-0.2,0-0.4-0.2-0.4-0.4c0-0.2,0.2-0.4,0.4-0.4h9.3c0.2,0,0.4,0.2,0.4,0.4C227.1,70.9,226.9,71.1,226.7,71.1z
			 M208.1,71.1h-9.3c-0.2,0-0.4-0.2-0.4-0.4c0-0.2,0.2-0.4,0.4-0.4h9.3c0.2,0,0.4,0.2,0.4,0.4C208.5,70.9,208.3,71.1,208.1,71.1z"/>
	</g>
</g>
<g>
	<rect x="342.7" y="344.2" fill="#8088C2" width="88.5" height="9.3"/>
</g>
<g>
	<polygon fill="#8792CE" points="423.6,396.6 350.3,396.6 348,353.6 426,353.6 	"/>
</g>
<g opacity="0.28">
	<path fill="#370C62" d="M426,353.6h-78l2.3,43h9.6c0.9-6.7,2.8-13.8,6.5-19.5c6.5-10.3,38.8-14.4,59.2-16L426,353.6z"/>
</g>
<g>
	<path fill="#676E9C" d="M489.8,419.9H290.3l0,0c0-12.9,10.4-23.3,23.3-23.3h152.9C479.4,396.6,489.8,407,489.8,419.9L489.8,419.9z"
		/>
</g>
<g>
	<path fill="#B75742" d="M370,419.9h-269c-10.3,0-18.6-7.7-18.6-17.1v-10.2c0-9.5,8.3-17.1,18.6-17.1h269l0,0
		c-12.3,12.4-12.5,31.3-0.5,43.9L370,419.9z"/>
	<path fill="#FAE0B2" d="M365.8,380.5H216.6c-10.3,0-18.6,7.7-18.6,17.1l0,0c0,9.5,8.3,17.1,18.6,17.1h149.2
		C358.9,404.3,358.9,391,365.8,380.5z"/>
	<g>
		<path fill="#F47458" d="M342.3,344.5c0.4-0.7-0.2-1.4-1.1-1.4H132c-11.2,0-16.8,7.2-16.8,16.1l0,0c0,8.9,5.6,16.1,16.8,16.1h209.3
			c0.9,0,1.5-0.8,1.1-1.4l0,0C336.7,364.7,336.8,353.8,342.3,344.5z"/>
		<path fill="#F7CC7F" d="M341.4,346.1H204c-13.1,0-18.6,6.1-18.6,13.5c0,7.5,5.5,13.5,18.6,13.5h137.9
			C337.1,364.6,336.9,354.8,341.4,346.1z"/>
	</g>
	<g>
		<path fill="#B75742" d="M321.4,352.5h-9.2c-2,0-3.6,0.6-3.6,1.3v0.1h12.8V352.5z"/>
		<path fill="#F47458" d="M329.2,355.8c0-1.8-2.4-3.3-5.4-3.3h-11.8c2.2,0,4.1,1.1,4.1,2.5l-0.1,35.4l6.5-4.5l6.6,4.5L329.2,355.8z"
			/>
	</g>
	<g>
		<path fill="#FAE0B2" d="M298,341.9h-98.1c-8.7,0-15.8-6.3-15.8-14l0,0c0-7.7,7.1-14,15.8-14H298l0,0c-7.5,7.8-7.8,19.2-0.7,27.2
			L298,341.9z"/>
		<path fill="#466EB6" d="M184.1,327.9L184.1,327.9c0-7.7,7.2-14,16.1-14h99.6c0.5,0,0.8-0.3,0.8-0.7l0,0c0-0.4-0.4-0.7-0.8-0.7
			h-158c-9.8,0-17.8,6.9-17.8,15.5l0,0c0,8.5,8,15.5,17.8,15.5h158c0.5,0,0.8-0.3,0.8-0.7l0,0c0-0.4-0.4-0.7-0.8-0.7h-99.6
			C191.4,341.9,184.1,335.7,184.1,327.9z"/>
		<g>
			<path fill="#184655" d="M280.9,320.8H270c-2.3,0-4.2,0.6-4.2,1.3v0.1h15.1V320.8z"/>
			<path fill="#3C8F7C" d="M290.2,324c0-1.8-2.8-3.2-6.3-3.2h-14c2.7,0,4.8,1.1,4.8,2.5l-0.1,34.7l7.7-4.5l7.9,4.5L290.2,324z"/>
		</g>
	</g>
	<g>
		<path fill="#B75742" d="M339.1,282.4H127.1c-6.6,0-11.9,4.7-11.9,10.6v8.9c0,5.8,5.3,10.6,11.9,10.6h211.9l-0.1-0.1
			C329.9,304,329.9,290.7,339.1,282.4z"/>
		<path fill="#FAE0B2" d="M335.3,286.8H222c-6.6,0-11.9,4.7-11.9,10.6l0,0c0,5.8,5.3,10.6,11.9,10.6h113.3
			C331.2,301.5,331.2,293.4,335.3,286.8z"/>
	</g>
</g>
<g>
	<path fill="#F7A491" d="M100.2,397.2c0,0-0.9,9.3-3.3,11.1c-2.4,1.7-5.5,8.1-3.9,11.5c1.6,3.4,8.2,2.2,8.2,2.2s3.9-3.6,4.3-11.2
		c0.4-7.6,2.7-11.5,2.7-11.5L100.2,397.2z"/>
	<path fill="#F7A491" d="M137.6,401c0,0,0.7,9.4,0.1,12.5c-0.3,1.6-2.1,5-1.3,6.6c0.8,1.5,1.8,1.9,1.8,1.9l24,0.4
		c0,0-0.1-3-11.5-6.3c-1.5-0.4-3-1.8-4.3-3.3c-1.5-1.7-1.7-10-1.7-10L137.6,401z"/>
	<path fill="#3C8F7C" d="M154.8,275.7c0,0,2.7,15.3,0.9,25.3c-1.8,10-9.3,103.5-9.3,103.5l-11.4,0.1c0,0-2.1-38.3-1.7-43.7
		c0.4-5.4,2.9-13.7,2.9-13.7l0.2-32.7l12.1-41.2L154.8,275.7z"/>
	<path fill="#355389" d="M127.2,266.8c0,0-11.4,11-13.4,26.4c-1.2,9.4,2.4,34.1-1.1,46.2c-1.9,6.6-8.6,19.3-9.7,27.8
		c-1.1,8.5-5.6,31.8-5.6,31.8l56.1,9.3c6.6-47.4,8.4-91.8,2.2-131.5l-2.2-7.7L127.2,266.8z"/>
	<path fill="#F47458" d="M104.5,416.3c-5.2,0.9-8.6-2.1-10.4-4.3c-1.3,2.6-2.1,5.7-1.1,7.8c1.6,3.4,8.2,2.2,8.2,2.2
		S103.2,420.2,104.5,416.3z"/>
	<path fill="#F47458" d="M150.8,416c-0.4-0.1-0.8-0.3-1.3-0.6c-5.7,1.5-9.9,0.5-12.2-0.5c-0.6,1.7-1.4,3.7-1.3,5
		c0.2,1.6,0.9,2.1,0.9,2.1l25.3,0.2C162.2,422.3,162.2,419.3,150.8,416z"/>
	<g>
		<path fill="#F48C7F" d="M187,302.4c0,0-1.1-1.2-1.5-1.6c-0.4-0.5-1.5-2.1-1.5-2.1s-3.5-5.8-3.1-6c0.5-0.2,1.6,0.4,2,0.7
			c0.3,0.3,0.8,0.6,1.1,0.9c0.3,0.3,0.8,0.3,1.2-0.1c0.4-0.4-0.7-1.8-1.2-2.2c-1.5-1.3-6.3-3.9-6.8-4.2c-0.6-0.4-4.8-11.5-6.6-15.2
			c0,0,0,0,0,0c-2.7-6.1-5.2-12.6-5.5-13.2l-3.4-28.4l-11.1-2.9c0,0,3.3,31.6,3.7,33.1c0.2,0.7,7.6,14.5,7.6,14.5
			c4.1,6.5,7.7,12.3,8.3,13.4c0,0,1.1,3.9,1.6,6.4c0.5,2.5,2,4.6,2.3,5.3c0,0.1,0.8,2.5,2.8,4.9c1.7,2.1,1.1-0.7,1.1-0.7
			s-2.4-4.4-2-4.5c0.3-0.1,1.5,2.4,3.3,4.7c0.5,0.6,0.9,1.2,1.4,1.7c1.1,1.4,2.4,1.1,1.4-0.6c-0.3-0.6-0.9-1.5-1.4-2.2
			c-0.6-0.7-0.9-1.5-1.2-2.1c-0.8-1.3-1.3-2.2-1.3-2.2c0.1,0,0.1-0.4,0.6,0.3c0.6,0.7,1.6,2.6,2.6,3.6c0.6,0.6,1.7,1.9,1.7,1.9
			s2.1,1.9,2.2,1.8c0.7-0.5-0.3-2.2-1.2-2.9c-0.3-0.7-1.6-2-1.6-2s-1.9-3.2-1.4-3.5c0.4-0.2,6.4,6.6,7.1,6.1
			C188.7,304.6,187,302.4,187,302.4z"/>
		<path fill="#1C3B73" d="M159.6,245.6c1.4-0.5,4.3-5,5.4,2.1c1.2,7,1.5,11.9,1.5,11.9c3.7,9,10.9,27,10.9,27
			c-2.7,2.2-9.8,2.6-9.8,2.6c-7.6-12.6-13.1-26.7-13.1-26.7C153.4,252.4,159.6,245.6,159.6,245.6z"/>
		<path fill="#F47458" d="M175.9,292.4c0,0,3.3,1.8,5,0.3c0,0-0.6,1.2-2.1,1.2C177.4,294,175.9,292.4,175.9,292.4z"/>
	</g>
	<path fill="#1C3B73" d="M152.3,209c0,0,3.3,1.5,7.8,10.6c4.2,8.4,4.8,28,4.8,28s-6.6,2.1-10.4,1.4C150.7,248.3,152.3,209,152.3,209
		z"/>
	<path fill="#355389" d="M139.8,206.2c0,0-2.2,0.2-13.4,2.6c-1.8,0.4-4.7,2.5-5.8,4.4c-5.7,10.2-10.8,28.5-10.8,28.5
		s9.4,3.1,12.6,3.1l3.9-12.2c0,0,4.4,25.7,2.6,30c-1.8,4.3-6.4,15.4-6.4,15.4s0.1,2.4,17.2,4.2c6.9,0.7,15.5-0.7,15.5-0.7
		s-1.6-16.7-0.2-23.9c2.3-11.8,6.7-25.9,6.9-27.7c0.4-2.9-6.3-19.3-9.8-20.8c-0.9-0.4-2.4-1.2-3.7-1.5
		C144.5,206.5,139.8,206.2,139.8,206.2z"/>
	<polygon fill="#F7CC7F" points="156.3,278.7 135,275.2 140,243.7 162.4,248.1 	"/>
	<path fill="#F7A491" d="M159.8,260.8c0-0.2-2.4,0.5-4-0.2c-0.3-0.1,1.1-0.9,1.3-1.2c0,0,2.8-1.1,2.8-2.2c0-1.1-2.3-0.8-2.3-0.8
		s-6.5,1.6-7.5,2.3c-1,0.7-1.5,1.3-1.6,1.3c-0.4,0-0.7,0.1-1,0.1c-5.7-0.4-14.4-3.4-27.8-8.2l1.4-7.2c-2.9-0.4-7.9-1.9-10.2-2.6
		c-0.9,5.5-2.8,15-2,17.1c0.6,1.4,7.7,3.7,15.6,5.9c10.1,2.8,12.9,2.7,22,3.8c2.7,0.3,6.3,1.9,7.7,2.1c2.1,0.4,2.8,0.8,4.1-0.1
		c1.1-0.8,1.4-3.1,1.5-4.5C160.1,263.6,160.3,262.6,159.8,260.8z"/>
	<path fill="#355389" d="M117,236.3c-4.6,1.6-5.3,0.9-7.2,5.4c-1.9,4.5-3.2,18.1-1.5,19.4c1.8,1.3,19.7,7.4,36.4,7.9
		c1.3-1.9,0-11.4,0-11.4c-16.3-3.5-22.8-6.6-22.8-6.6c1-6.3,3-15.2,3-15.2C120.5,236.7,117,236.3,117,236.3z"/>
	<path fill="#F7A491" d="M141.3,194.6c0,0-0.4,8.2-1.4,11.2c-1,3,2.2,14,8.7,15.6c5.9,1.4,1.6-8.8,0.8-13.2
		c-0.1-0.5,1.1-15.7,1.1-15.7L141.3,194.6z"/>
	<path fill="#F47458" d="M150.1,197.3c0.5-2.6,1-4.7,1-4.7l-9.8,2c0,0-0.1,1.7-0.3,3.8C144.7,200.1,147.9,199.3,150.1,197.3z"/>
	<path fill="#F47458" d="M145.2,166.1c-12.3-0.5-18.1,9.4-18.3,21.8s0.4,13.4-5.6,21.2c-5.9,7.8-9.9,24.5-16,26.7
		c11.3,8.8,34,4.7,49.1,6.5c15,1.8,15.1-0.1,15.1-0.1c-4.4-18.4-11-29-11-35.1c0-11.5,0.9-21.9-1.2-30.2
		C154.9,167.4,149.2,166.2,145.2,166.1z"/>
	<path fill="#F7A491" d="M144.3,172.2c0,0-3.8,1.1-6,4.8c-2.2,3.8-3.3,14.6,4.8,19.2c8.1,4.6,13.9-2.8,13.7-9.7
		C156.5,179.7,154.5,170.5,144.3,172.2z"/>
	<path fill="#355389" d="M136.6,183.9c5.7-2.9,10.1-10.3,10.1-10.3c5.5,3.6,9.5,8.2,9.5,8.2c-0.8-6.7-4.5-10.3-10.4-10.1
		C142.8,172,136.6,173.9,136.6,183.9z"/>
</g>
<g>
	<path fill="#F7A491" d="M641.3,303.5l-5.7,50.3c0,0,2.8,10.6,2.4,13.6c-0.3,3-6.2,42.6-6.2,42.6l0.3,2.2l0.1,6.4l-21.8,0.2
		c0,0,4.6-2,11-6.1c0.5-0.3,2-1.3,2.3-3.2c1.7-12.2-2.1-52.9-2.1-52.9l-2.7-53L641.3,303.5z"/>
	<path fill="#032B9C" d="M634.1,405.9l-11.8-0.7c0,0-0.7-45.5-2.3-55.3c-1.6-9.9-2.5-42.8-0.9-55.6c1.4-10.9,6.6-28.4,6.6-28.4
		l18.2,3.6l3.7,0.9l-9.9,82.9c0,0,0.9,5.6,1.4,11.3C639.5,370.4,634.1,405.9,634.1,405.9z"/>
	<path fill="#F7A491" d="M658.5,312.7c1.2,0.3,3.1,43.4,4.1,45.4c6.4,12.1,8,49,8,49l2.7,5.2l-0.6,5c0,0-4.8,2.7-8.2,0.9l0.5-5
		l0.4-6.7l-16.2-45.9l-8.9-46.8L658.5,312.7z"/>
	<path fill="#0037D3" d="M632.4,420.3h-22.5c-0.8-0.1-1-0.7-0.7-1.2c0.6-0.9,5-2.9,7.9-4.3c5.2,0.5,14.3-1.6,15.1-2.8
		C632.7,414.5,632.9,420.2,632.4,420.3z"/>
	<path fill="#0037D3" d="M673.3,412.2c0,0-1.8,3.8-4,3.7c-2.2-0.2-4.2-2.8-4.2-2.8s-0.8,3.7-0.4,5.8c0.4,2.1,3.5,4.2,5.6,3.2
		C672.3,421.2,675.2,416.4,673.3,412.2z"/>
	<path fill="#0037D3" d="M649,260.3c0,0,0.5,4,1,4.8c1.4,2.2,5.4,9,7.5,14.3c2,4.8,2.6,8.7,3.4,13.1c2.4,13.8,1.6,55.8,1.6,55.8
		s4.2,9.1,6,21.1c1.7,12.1,3,32,3,32l-8.8,2.2l-17.9-53.5c0,0-8.5-46.9-11.2-53.1c-2.8-6.2-7.9-31.4-7.9-31.4L649,260.3z"/>
	<path fill="#F47458" d="M662.5,339.7C662.5,339.7,662.5,339.7,662.5,339.7L662.5,339.7z"/>
	<path fill="#F7A491" d="M572.5,181.7c0.2-1.9,5.3-3.3,6.8-3.8c1.5-0.4,0.5-0.1,2.2,0.5c0.2,0.1,5.3,7.8,5.3,7.8
		c1.6,2.5,16.2,24.9,21.2,28.3c5,3.5,25.1,9.5,25.1,9.5l0.9,12.8c0,0-27.7-9.5-33.6-14.6c-4.9-4.2-14.7-24.5-19.4-32l0,0
		C579.7,188.6,572.3,183.6,572.5,181.7z"/>
	<path fill="#B75742" d="M619.4,225.8c0.4-0.7-7.5-10.1-7.5-10.1c-7.8-6.5-21.7-26.9-21.7-26.9c-8.3,2.9-10.1,3.8-10.1,3.8
		c12.2,21.6,18,31.2,23.1,33.6s18.9,6.2,18.9,6.2C619.4,225.8,619.4,225.8,619.4,225.8z"/>
	<path fill="#B75742" d="M643.1,220.2c12.3,0.2,17.1-1.7,26.6,20.8c1.7,3.9,2.6,6.7,2.6,6.8c0,0-8.4,3.8-11.4,5c0,0-3-9.1-4.2-8
		c-1.2,1.1-1.8,19.8,1.2,26.1c9.9,20.3,8.4,83.2,8.8,85.2c0,0-45.9,3.3-56.3,1.1c0,0,13.6-105.3,13.1-106.5
		c-0.5-1.2-3.7-6.5-1.1-12.5c0.5-1.1,1.6-4.3,0.8-4.5c-6.3-1.7-15.8-6.5-15.8-6.5l4.5-11.4c0,0,13.9,3.2,18.7,3.8
		C634.7,220,638.9,220.1,643.1,220.2C643.1,220.2,643.1,220.2,643.1,220.2z"/>
	<path fill="#F7A491" d="M676.4,266c0.4,2.4-1.3,27.3-2,32.3c0.2,9.7-3.2,11.9-5,14.9c0,0-3.9,2-4.1,1.7c-0.2-0.4,0.2-0.9,0.8-1.3
		c0.2-0.2,0.6-0.2,0.8-0.4c0.2-0.2,0.5-0.5,0.7-0.6c0.5-0.4,0.9-0.5,0.9-0.5s0.3-0.6,0.6-1.3c0.3-0.5,0.7-1,0.8-1.2
		c0.4-0.8-0.1-0.6-0.1-0.6c-0.4,0.7-2.6,3.3-2.6,3.3s-4.2,3.3-4.3,2.9c0-0.2,0.1-0.7,0.8-1.6c0.2-0.2,0.7-0.5,0.9-0.8
		c0.2-0.2,0.4-0.5,0.6-0.8c0.3-0.3,0.6-0.4,0.9-0.7c0.4-0.4,0.6-1,0.8-1.3c1-1.3,1.4-2.4,1-2c-0.6,0.6-1.6,3.3-4.6,5.4
		c-0.5,0.3-0.8,0.5-0.9,0.3c0-0.2,0-0.8,0.4-1.3c0.3-0.4,0.8-0.6,1.1-1.1c0.2-0.3,0.3-0.6,0.5-0.9c0.8-1.2,1.2-0.6,1.9-5.1
		c-0.4,0.2-0.8,0.5-1,0.6c-0.3,0.3-1.9,2.9-2.4,2.4c-0.6-0.6,2.6-6.7,2.6-6.7l2.7-3.5c-0.6-23.6-1.3-29.3-1.5-29.5
		C666.9,268.8,675.3,259.4,676.4,266z"/>
	<path fill="#B75742" d="M665.9,249.8c-2.3,0.9-4.9,2.9-4.9,2.9c4.4,11.6,5.6,17,5.4,19.9c-0.2,2.9,0.4,23.9,0.4,23.9
		c4.3,2.5,8.8,2.5,8.8,2.5c3.6-21.4,3.2-31.7,2.2-36.7c-1.1-5-3.5-9.7-5.3-14.6C670.6,242.9,665.9,249.8,665.9,249.8z"/>
	<path fill="#F7A491" d="M642.7,210.4c0,0,0.3,7.8,1.3,10.7c1,2.9-2.1,13.3-8.3,14.8c-6.2,1.5-0.1-12.4-0.2-15.4
		c-0.1-3-2.1-12-2.1-12L642.7,210.4z"/>
	<path fill="#F47458" d="M634.3,213c-0.5-2.5-0.9-4.5-0.9-4.5l9.3,1.9c0,0,0.1,1.6,0.2,3.6C639.4,215.6,636.4,214.9,634.3,213z"/>
	<path fill="#032B9C" d="M639.6,185.5c11.3-0.1,20.7,5.5,20,15.6c-0.7,10.1-6.7,16.4-0.7,21.1c5.9,4.7,12.6,17.8,12.6,17.8
		c-8.1,18.7-35.1,16.2-43.9,12.3c-14.1-6.2-15.6-36.7-15.6-36.7c10.1,3,19,1.7,16.9-4.7s-1.7-14.8,1.9-19.6
		C634.4,186.6,637.6,185.6,639.6,185.5z"/>
	<path fill="#F7A491" d="M639.4,188.9c0,0,3.4,1.6,5,6.4c1.3,3.9,1.1,10.8-3.2,15.2c-6.2,6.4-11.3-2.3-11.3-8.9
		C629.9,194.1,634.8,187.3,639.4,188.9z"/>
	<path fill="#FFFFFF" d="M630.9,195.9c3.4-4.6,8.5-5.7,14.1,1.6c-0.3-4.3-3.8-9.1-7.1-9.5C632.6,187.9,630.9,195.9,630.9,195.9z"/>
	<path fill="#184655" d="M546.8,141.9l34,43.1l0,0c0.6,0.8,1.8,0.9,2.6,0.3c0.8-0.6,0.9-1.8,0.3-2.6c0,0,0,0,0-0.1L547.9,141l0,0
		c-0.3-0.3-0.7-0.3-1-0.1C546.6,141.2,546.6,141.6,546.8,141.9z"/>
	<path fill="#F47458" d="M576.1,179l4.7,6l0,0c0.6,0.8,1.7,0.9,2.5,0.4c-0.1,0.2-0.2,0.3-0.4,0.5c-0.8,0.6-2,0.5-2.6-0.3l0,0
		l-4.9-6.2C575.6,179.2,575.9,179.1,576.1,179z"/>
	<path fill="#F7A491" d="M576.3,176.3c0,0-5,4.5-3.8,6.3c1.4,2.1,3.2,3.2,3.3,2.6c0.1-0.6-1.1-3.6-1.1-3.6s1.6-2,1.9-3.1
		C576.9,177.4,577.2,176.3,576.3,176.3z"/>
	<path fill="#F7A491" d="M578.6,178.7c0,0,3.2,1.4,3.3,1c0.2-0.4-0.5-1.3-0.5-1.3s-4.3-3.2-4.4-2.1
		C576.9,177.5,578.6,178.7,578.6,178.7z"/>
	<path fill="#F7A491" d="M573,177.9c0,0,2.7-3.1,2.8-2.1c0.1,1.2-2.2,4.9-3.3,4.9S571.5,179.6,573,177.9z"/>
</g>
<rect x="201" y="139.3" fill="none" width="341.1" height="121.7"/>
<text transform="matrix(1 0 0 1 200.9773 174.451)"><tspan x="0" y="0" fill="#FFFFFF" font-family="'Poppins-Medium'" font-size="47.5207px">Weekly</tspan><tspan x="172.6" y="0" fill="#FFFFFF" font-family="'Poppins-Medium'" font-size="47.5207px" letter-spacing="6"> </tspan><tspan x="191.5" y="0" fill="#FFFFFF" font-family="'Poppins-Medium'" font-size="47.5207px">Quran </tspan><tspan x="77.1" y="57" fill="#FFFFFF" font-family="'Poppins-Medium'" font-size="47.5207px">Classes</tspan></text>
</svg>
